%TF.GenerationSoftware,KiCad,Pcbnew,8.0.7*%
%TF.CreationDate,2025-02-03T11:28:03-05:00*%
%TF.ProjectId,thepcb,74686570-6362-42e6-9b69-6361645f7063,v1.0.0*%
%TF.SameCoordinates,Original*%
%TF.FileFunction,Legend,Bot*%
%TF.FilePolarity,Positive*%
%FSLAX46Y46*%
G04 Gerber Fmt 4.6, Leading zero omitted, Abs format (unit mm)*
G04 Created by KiCad (PCBNEW 8.0.7) date 2025-02-03 11:28:03*
%MOMM*%
%LPD*%
G01*
G04 APERTURE LIST*
%ADD10C,0.150000*%
%ADD11C,0.100000*%
%ADD12C,0.120000*%
G04 APERTURE END LIST*
D10*
X299184867Y-94147325D02*
X298994652Y-94137357D01*
X298994652Y-94137357D02*
X298897053Y-94179926D01*
X298897053Y-94179926D02*
X298796961Y-94270049D01*
X298796961Y-94270049D02*
X298739438Y-94457772D01*
X298739438Y-94457772D02*
X298721993Y-94790649D01*
X298721993Y-94790649D02*
X298759578Y-94983356D01*
X298759578Y-94983356D02*
X298849701Y-95083448D01*
X298849701Y-95083448D02*
X298942316Y-95135986D01*
X298942316Y-95135986D02*
X299132531Y-95145955D01*
X299132531Y-95145955D02*
X299230131Y-95103386D01*
X299230131Y-95103386D02*
X299330223Y-95013262D01*
X299330223Y-95013262D02*
X299387746Y-94825539D01*
X299387746Y-94825539D02*
X299405191Y-94492663D01*
X299405191Y-94492663D02*
X299367606Y-94299956D01*
X299367606Y-94299956D02*
X299277483Y-94199864D01*
X299277483Y-94199864D02*
X299184867Y-94147325D01*
X297971101Y-94560559D02*
X298303977Y-94578004D01*
X298276563Y-95101096D02*
X298328899Y-94102466D01*
X298328899Y-94102466D02*
X297853361Y-94077544D01*
X297115133Y-94515699D02*
X297448009Y-94533145D01*
X297420595Y-95056236D02*
X297472931Y-94057607D01*
X297472931Y-94057607D02*
X296997393Y-94032685D01*
X299375351Y-84143584D02*
X299185136Y-84133615D01*
X299185136Y-84133615D02*
X299087536Y-84176185D01*
X299087536Y-84176185D02*
X298987444Y-84266308D01*
X298987444Y-84266308D02*
X298929922Y-84454031D01*
X298929922Y-84454031D02*
X298912477Y-84786907D01*
X298912477Y-84786907D02*
X298950062Y-84979615D01*
X298950062Y-84979615D02*
X299040185Y-85079707D01*
X299040185Y-85079707D02*
X299132800Y-85132245D01*
X299132800Y-85132245D02*
X299323015Y-85142214D01*
X299323015Y-85142214D02*
X299420615Y-85099644D01*
X299420615Y-85099644D02*
X299520707Y-85009521D01*
X299520707Y-85009521D02*
X299578230Y-84821798D01*
X299578230Y-84821798D02*
X299595675Y-84488922D01*
X299595675Y-84488922D02*
X299558090Y-84296214D01*
X299558090Y-84296214D02*
X299467967Y-84196122D01*
X299467967Y-84196122D02*
X299375351Y-84143584D01*
X298467047Y-85097354D02*
X298519383Y-84098725D01*
X298519383Y-84098725D02*
X297896402Y-85067448D01*
X297896402Y-85067448D02*
X297948738Y-84068818D01*
X298160216Y-106065032D02*
X298635754Y-106089953D01*
X298635754Y-106089953D02*
X298688090Y-105091324D01*
X297066478Y-106007711D02*
X297118814Y-105009082D01*
X296638494Y-105985281D02*
X296665908Y-105462190D01*
X296665908Y-105462190D02*
X296718447Y-105369574D01*
X296718447Y-105369574D02*
X296816046Y-105327005D01*
X296816046Y-105327005D02*
X296958708Y-105334482D01*
X296958708Y-105334482D02*
X297051323Y-105387020D01*
X297051323Y-105387020D02*
X297096385Y-105437066D01*
X295734972Y-105937930D02*
X295762386Y-105414838D01*
X295762386Y-105414838D02*
X295814924Y-105322223D01*
X295814924Y-105322223D02*
X295912524Y-105279653D01*
X295912524Y-105279653D02*
X296102739Y-105289622D01*
X296102739Y-105289622D02*
X296195355Y-105342160D01*
X295737464Y-105890376D02*
X295830080Y-105942914D01*
X295830080Y-105942914D02*
X296067849Y-105955375D01*
X296067849Y-105955375D02*
X296165448Y-105912806D01*
X296165448Y-105912806D02*
X296217987Y-105820190D01*
X296217987Y-105820190D02*
X296222971Y-105725083D01*
X296222971Y-105725083D02*
X296180402Y-105627483D01*
X296180402Y-105627483D02*
X296087786Y-105574945D01*
X296087786Y-105574945D02*
X295850017Y-105562484D01*
X295850017Y-105562484D02*
X295757402Y-105509946D01*
X295294325Y-105247255D02*
X295259434Y-105913008D01*
X295289341Y-105342363D02*
X295244279Y-105292317D01*
X295244279Y-105292317D02*
X295151664Y-105239778D01*
X295151664Y-105239778D02*
X295009002Y-105232302D01*
X295009002Y-105232302D02*
X294911402Y-105274871D01*
X294911402Y-105274871D02*
X294858864Y-105367487D01*
X294858864Y-105367487D02*
X294831450Y-105890578D01*
X293927928Y-105843227D02*
X293980264Y-104844597D01*
X293930420Y-105795673D02*
X294023036Y-105848211D01*
X294023036Y-105848211D02*
X294213251Y-105858180D01*
X294213251Y-105858180D02*
X294310851Y-105815610D01*
X294310851Y-105815610D02*
X294360897Y-105770549D01*
X294360897Y-105770549D02*
X294413435Y-105677933D01*
X294413435Y-105677933D02*
X294428388Y-105392611D01*
X294428388Y-105392611D02*
X294385818Y-105295011D01*
X294385818Y-105295011D02*
X294340757Y-105244965D01*
X294340757Y-105244965D02*
X294248141Y-105192427D01*
X294248141Y-105192427D02*
X294057926Y-105182458D01*
X294057926Y-105182458D02*
X293960327Y-105225027D01*
X292691529Y-105778430D02*
X292743865Y-104779800D01*
X292723928Y-105160231D02*
X292631312Y-105107692D01*
X292631312Y-105107692D02*
X292441097Y-105097724D01*
X292441097Y-105097724D02*
X292343497Y-105140293D01*
X292343497Y-105140293D02*
X292293451Y-105185355D01*
X292293451Y-105185355D02*
X292240913Y-105277970D01*
X292240913Y-105277970D02*
X292225960Y-105563293D01*
X292225960Y-105563293D02*
X292268530Y-105660893D01*
X292268530Y-105660893D02*
X292313591Y-105710938D01*
X292313591Y-105710938D02*
X292406207Y-105763477D01*
X292406207Y-105763477D02*
X292596422Y-105773445D01*
X292596422Y-105773445D02*
X292694021Y-105730876D01*
X291360023Y-105708649D02*
X291387437Y-105185557D01*
X291387437Y-105185557D02*
X291439975Y-105092941D01*
X291439975Y-105092941D02*
X291537575Y-105050372D01*
X291537575Y-105050372D02*
X291727790Y-105060341D01*
X291727790Y-105060341D02*
X291820406Y-105112879D01*
X291362515Y-105661095D02*
X291455131Y-105713633D01*
X291455131Y-105713633D02*
X291692900Y-105726094D01*
X291692900Y-105726094D02*
X291790499Y-105683524D01*
X291790499Y-105683524D02*
X291843038Y-105590909D01*
X291843038Y-105590909D02*
X291848022Y-105495801D01*
X291848022Y-105495801D02*
X291805453Y-105398202D01*
X291805453Y-105398202D02*
X291712837Y-105345664D01*
X291712837Y-105345664D02*
X291475068Y-105333203D01*
X291475068Y-105333203D02*
X291382453Y-105280664D01*
X290458993Y-105613743D02*
X290551609Y-105666281D01*
X290551609Y-105666281D02*
X290741824Y-105676250D01*
X290741824Y-105676250D02*
X290839424Y-105633681D01*
X290839424Y-105633681D02*
X290889470Y-105588619D01*
X290889470Y-105588619D02*
X290942008Y-105496004D01*
X290942008Y-105496004D02*
X290956961Y-105210681D01*
X290956961Y-105210681D02*
X290914391Y-105113081D01*
X290914391Y-105113081D02*
X290869330Y-105063035D01*
X290869330Y-105063035D02*
X290776714Y-105010497D01*
X290776714Y-105010497D02*
X290586499Y-105000528D01*
X290586499Y-105000528D02*
X290488900Y-105043098D01*
X290028517Y-105638867D02*
X290080853Y-104640238D01*
X289953347Y-105253453D02*
X289648087Y-105618930D01*
X289682977Y-104953177D02*
X290043470Y-105353544D01*
X288509287Y-105511563D02*
X288411688Y-105554133D01*
X288411688Y-105554133D02*
X288221473Y-105544164D01*
X288221473Y-105544164D02*
X288128857Y-105491626D01*
X288128857Y-105491626D02*
X288086288Y-105394026D01*
X288086288Y-105394026D02*
X288088780Y-105346472D01*
X288088780Y-105346472D02*
X288141318Y-105253857D01*
X288141318Y-105253857D02*
X288238918Y-105211288D01*
X288238918Y-105211288D02*
X288381579Y-105218764D01*
X288381579Y-105218764D02*
X288479179Y-105176195D01*
X288479179Y-105176195D02*
X288531717Y-105083579D01*
X288531717Y-105083579D02*
X288534209Y-105036026D01*
X288534209Y-105036026D02*
X288491640Y-104938426D01*
X288491640Y-104938426D02*
X288399025Y-104885888D01*
X288399025Y-104885888D02*
X288256363Y-104878411D01*
X288256363Y-104878411D02*
X288158763Y-104920980D01*
X287650827Y-105514258D02*
X287685718Y-104848505D01*
X287703163Y-104515628D02*
X287748224Y-104565674D01*
X287748224Y-104565674D02*
X287698178Y-104610736D01*
X287698178Y-104610736D02*
X287653117Y-104560690D01*
X287653117Y-104560690D02*
X287703163Y-104515628D01*
X287703163Y-104515628D02*
X287698178Y-104610736D01*
X286747305Y-105466906D02*
X286799641Y-104468277D01*
X286749798Y-105419352D02*
X286842413Y-105471891D01*
X286842413Y-105471891D02*
X287032628Y-105481859D01*
X287032628Y-105481859D02*
X287130228Y-105439290D01*
X287130228Y-105439290D02*
X287180274Y-105394228D01*
X287180274Y-105394228D02*
X287232812Y-105301613D01*
X287232812Y-105301613D02*
X287247765Y-105016290D01*
X287247765Y-105016290D02*
X287205196Y-104918690D01*
X287205196Y-104918690D02*
X287160134Y-104868644D01*
X287160134Y-104868644D02*
X287067519Y-104816106D01*
X287067519Y-104816106D02*
X286877304Y-104806138D01*
X286877304Y-104806138D02*
X286779704Y-104848707D01*
X285893829Y-105374493D02*
X285986445Y-105427031D01*
X285986445Y-105427031D02*
X286176660Y-105437000D01*
X286176660Y-105437000D02*
X286274260Y-105394431D01*
X286274260Y-105394431D02*
X286326798Y-105301815D01*
X286326798Y-105301815D02*
X286346735Y-104921385D01*
X286346735Y-104921385D02*
X286304166Y-104823785D01*
X286304166Y-104823785D02*
X286211550Y-104771247D01*
X286211550Y-104771247D02*
X286021335Y-104761278D01*
X286021335Y-104761278D02*
X285923736Y-104803848D01*
X285923736Y-104803848D02*
X285871197Y-104896463D01*
X285871197Y-104896463D02*
X285866213Y-104991571D01*
X285866213Y-104991571D02*
X286336767Y-105111600D01*
X284349678Y-105722727D02*
X284399724Y-105677665D01*
X284399724Y-105677665D02*
X284502308Y-105539988D01*
X284502308Y-105539988D02*
X284554846Y-105447373D01*
X284554846Y-105447373D02*
X284609877Y-105307204D01*
X284609877Y-105307204D02*
X284669891Y-105071927D01*
X284669891Y-105071927D02*
X284679860Y-104881712D01*
X284679860Y-104881712D02*
X284644767Y-104641451D01*
X284644767Y-104641451D02*
X284604690Y-104496297D01*
X284604690Y-104496297D02*
X284562121Y-104398698D01*
X284562121Y-104398698D02*
X284474490Y-104251052D01*
X284474490Y-104251052D02*
X284429428Y-104201006D01*
X283989185Y-105322359D02*
X284041521Y-104323730D01*
X284041521Y-104323730D02*
X283671262Y-105019591D01*
X283671262Y-105019591D02*
X283375768Y-104288839D01*
X283375768Y-104288839D02*
X283323432Y-105287469D01*
X282507339Y-104481749D02*
X282467464Y-105242609D01*
X282287217Y-105042425D02*
X282467464Y-105242609D01*
X282467464Y-105242609D02*
X282667648Y-105062363D01*
X281686666Y-105583165D02*
X281641604Y-105533119D01*
X281641604Y-105533119D02*
X281553973Y-105385473D01*
X281553973Y-105385473D02*
X281511404Y-105287873D01*
X281511404Y-105287873D02*
X281471327Y-105142719D01*
X281471327Y-105142719D02*
X281436234Y-104902458D01*
X281436234Y-104902458D02*
X281446203Y-104712243D01*
X281446203Y-104712243D02*
X281506217Y-104476966D01*
X281506217Y-104476966D02*
X281561248Y-104336797D01*
X281561248Y-104336797D02*
X281613786Y-104244182D01*
X281613786Y-104244182D02*
X281716370Y-104106505D01*
X281716370Y-104106505D02*
X281766416Y-104061443D01*
X288728311Y-113206190D02*
X289086109Y-112748098D01*
X289298956Y-113236097D02*
X289351292Y-112237467D01*
X289351292Y-112237467D02*
X288970862Y-112217530D01*
X288970862Y-112217530D02*
X288873262Y-112260099D01*
X288873262Y-112260099D02*
X288823216Y-112305161D01*
X288823216Y-112305161D02*
X288770678Y-112397776D01*
X288770678Y-112397776D02*
X288763201Y-112540437D01*
X288763201Y-112540437D02*
X288805771Y-112638037D01*
X288805771Y-112638037D02*
X288850832Y-112688083D01*
X288850832Y-112688083D02*
X288943448Y-112740621D01*
X288943448Y-112740621D02*
X289323878Y-112760559D01*
X288350373Y-113138699D02*
X288205219Y-113178776D01*
X288205219Y-113178776D02*
X287967450Y-113166315D01*
X287967450Y-113166315D02*
X287874835Y-113113777D01*
X287874835Y-113113777D02*
X287829773Y-113063731D01*
X287829773Y-113063731D02*
X287787204Y-112966131D01*
X287787204Y-112966131D02*
X287792188Y-112871024D01*
X287792188Y-112871024D02*
X287844726Y-112778409D01*
X287844726Y-112778409D02*
X287894772Y-112733347D01*
X287894772Y-112733347D02*
X287992372Y-112690778D01*
X287992372Y-112690778D02*
X288185079Y-112653192D01*
X288185079Y-112653192D02*
X288282679Y-112610623D01*
X288282679Y-112610623D02*
X288332725Y-112565561D01*
X288332725Y-112565561D02*
X288385263Y-112472946D01*
X288385263Y-112472946D02*
X288390248Y-112377839D01*
X288390248Y-112377839D02*
X288347678Y-112280239D01*
X288347678Y-112280239D02*
X288302617Y-112230193D01*
X288302617Y-112230193D02*
X288210001Y-112177655D01*
X288210001Y-112177655D02*
X287972232Y-112165194D01*
X287972232Y-112165194D02*
X287827079Y-112205271D01*
X287544248Y-112142764D02*
X286973603Y-112112858D01*
X287206590Y-113126440D02*
X287258926Y-112127811D01*
X288729398Y-125923676D02*
X288781734Y-124925047D01*
X288781734Y-124925047D02*
X288401303Y-124905109D01*
X288401303Y-124905109D02*
X288303704Y-124947678D01*
X288303704Y-124947678D02*
X288253658Y-124992740D01*
X288253658Y-124992740D02*
X288201119Y-125085355D01*
X288201119Y-125085355D02*
X288193643Y-125228017D01*
X288193643Y-125228017D02*
X288236212Y-125325617D01*
X288236212Y-125325617D02*
X288281274Y-125375662D01*
X288281274Y-125375662D02*
X288373889Y-125428201D01*
X288373889Y-125428201D02*
X288754320Y-125448138D01*
X287207677Y-125843926D02*
X287778322Y-125873832D01*
X287492999Y-125858879D02*
X287545335Y-124860250D01*
X287545335Y-124860250D02*
X287632966Y-125007895D01*
X287632966Y-125007895D02*
X287723089Y-125107987D01*
X287723089Y-125107987D02*
X287815705Y-125160525D01*
X286666937Y-125243374D02*
X286764537Y-125200805D01*
X286764537Y-125200805D02*
X286814583Y-125155743D01*
X286814583Y-125155743D02*
X286867121Y-125063128D01*
X286867121Y-125063128D02*
X286869613Y-125015574D01*
X286869613Y-125015574D02*
X286827044Y-124917974D01*
X286827044Y-124917974D02*
X286781982Y-124867928D01*
X286781982Y-124867928D02*
X286689367Y-124815390D01*
X286689367Y-124815390D02*
X286499152Y-124805421D01*
X286499152Y-124805421D02*
X286401552Y-124847991D01*
X286401552Y-124847991D02*
X286351506Y-124893052D01*
X286351506Y-124893052D02*
X286298968Y-124985668D01*
X286298968Y-124985668D02*
X286296476Y-125033222D01*
X286296476Y-125033222D02*
X286339045Y-125130821D01*
X286339045Y-125130821D02*
X286384107Y-125180867D01*
X286384107Y-125180867D02*
X286476722Y-125233406D01*
X286476722Y-125233406D02*
X286666937Y-125243374D01*
X286666937Y-125243374D02*
X286759553Y-125295912D01*
X286759553Y-125295912D02*
X286804614Y-125345958D01*
X286804614Y-125345958D02*
X286847184Y-125443558D01*
X286847184Y-125443558D02*
X286837215Y-125633773D01*
X286837215Y-125633773D02*
X286784677Y-125726389D01*
X286784677Y-125726389D02*
X286734631Y-125771450D01*
X286734631Y-125771450D02*
X286637031Y-125814020D01*
X286637031Y-125814020D02*
X286446816Y-125804051D01*
X286446816Y-125804051D02*
X286354201Y-125751513D01*
X286354201Y-125751513D02*
X286309139Y-125701467D01*
X286309139Y-125701467D02*
X286266569Y-125603867D01*
X286266569Y-125603867D02*
X286276538Y-125413652D01*
X286276538Y-125413652D02*
X286329076Y-125321037D01*
X286329076Y-125321037D02*
X286379122Y-125275975D01*
X286379122Y-125275975D02*
X286476722Y-125233406D01*
X291872009Y-123544887D02*
X291924345Y-122546258D01*
X291924345Y-122546258D02*
X291543915Y-122526320D01*
X291543915Y-122526320D02*
X291446315Y-122568889D01*
X291446315Y-122568889D02*
X291396269Y-122613951D01*
X291396269Y-122613951D02*
X291343731Y-122706566D01*
X291343731Y-122706566D02*
X291336255Y-122849228D01*
X291336255Y-122849228D02*
X291378824Y-122946828D01*
X291378824Y-122946828D02*
X291423886Y-122996874D01*
X291423886Y-122996874D02*
X291516501Y-123049412D01*
X291516501Y-123049412D02*
X291896931Y-123069349D01*
X290480286Y-122804368D02*
X290445396Y-123470121D01*
X290737993Y-122436399D02*
X290938379Y-123162167D01*
X290938379Y-123162167D02*
X290320180Y-123129768D01*
X291340276Y-133690963D02*
X291392612Y-132692334D01*
X291392612Y-132692334D02*
X291012182Y-132672396D01*
X291012182Y-132672396D02*
X290914582Y-132714965D01*
X290914582Y-132714965D02*
X290864536Y-132760027D01*
X290864536Y-132760027D02*
X290811998Y-132852642D01*
X290811998Y-132852642D02*
X290804522Y-132995304D01*
X290804522Y-132995304D02*
X290847091Y-133092904D01*
X290847091Y-133092904D02*
X290892153Y-133142950D01*
X290892153Y-133142950D02*
X290984768Y-133195488D01*
X290984768Y-133195488D02*
X291365198Y-133215425D01*
X290228892Y-133060505D02*
X290326491Y-133017936D01*
X290326491Y-133017936D02*
X290376537Y-132972874D01*
X290376537Y-132972874D02*
X290429076Y-132880259D01*
X290429076Y-132880259D02*
X290431568Y-132832705D01*
X290431568Y-132832705D02*
X290388998Y-132735105D01*
X290388998Y-132735105D02*
X290343937Y-132685059D01*
X290343937Y-132685059D02*
X290251321Y-132632521D01*
X290251321Y-132632521D02*
X290061106Y-132622552D01*
X290061106Y-132622552D02*
X289963506Y-132665122D01*
X289963506Y-132665122D02*
X289913461Y-132710183D01*
X289913461Y-132710183D02*
X289860922Y-132802799D01*
X289860922Y-132802799D02*
X289858430Y-132850353D01*
X289858430Y-132850353D02*
X289901000Y-132947952D01*
X289901000Y-132947952D02*
X289946061Y-132997998D01*
X289946061Y-132997998D02*
X290038677Y-133050536D01*
X290038677Y-133050536D02*
X290228892Y-133060505D01*
X290228892Y-133060505D02*
X290321507Y-133113043D01*
X290321507Y-133113043D02*
X290366569Y-133163089D01*
X290366569Y-133163089D02*
X290409138Y-133260689D01*
X290409138Y-133260689D02*
X290399169Y-133450904D01*
X290399169Y-133450904D02*
X290346631Y-133543520D01*
X290346631Y-133543520D02*
X290296585Y-133588581D01*
X290296585Y-133588581D02*
X290198985Y-133631151D01*
X290198985Y-133631151D02*
X290008770Y-133621182D01*
X290008770Y-133621182D02*
X289916155Y-133568644D01*
X289916155Y-133568644D02*
X289871093Y-133518598D01*
X289871093Y-133518598D02*
X289828524Y-133420998D01*
X289828524Y-133420998D02*
X289838493Y-133230783D01*
X289838493Y-133230783D02*
X289891031Y-133138167D01*
X289891031Y-133138167D02*
X289941077Y-133093106D01*
X289941077Y-133093106D02*
X290038677Y-133050536D01*
X292004942Y-121008368D02*
X292057278Y-120009739D01*
X292057278Y-120009739D02*
X291676848Y-119989801D01*
X291676848Y-119989801D02*
X291579248Y-120032370D01*
X291579248Y-120032370D02*
X291529202Y-120077432D01*
X291529202Y-120077432D02*
X291476664Y-120170047D01*
X291476664Y-120170047D02*
X291469188Y-120312709D01*
X291469188Y-120312709D02*
X291511757Y-120410309D01*
X291511757Y-120410309D02*
X291556819Y-120460355D01*
X291556819Y-120460355D02*
X291649434Y-120512893D01*
X291649434Y-120512893D02*
X292029864Y-120532830D01*
X291153756Y-119962387D02*
X290535557Y-119929989D01*
X290535557Y-119929989D02*
X290848496Y-120327864D01*
X290848496Y-120327864D02*
X290705835Y-120320388D01*
X290705835Y-120320388D02*
X290608235Y-120362957D01*
X290608235Y-120362957D02*
X290558189Y-120408019D01*
X290558189Y-120408019D02*
X290505651Y-120500634D01*
X290505651Y-120500634D02*
X290493190Y-120738403D01*
X290493190Y-120738403D02*
X290535759Y-120836003D01*
X290535759Y-120836003D02*
X290580821Y-120886049D01*
X290580821Y-120886049D02*
X290673436Y-120938587D01*
X290673436Y-120938587D02*
X290958759Y-120953540D01*
X290958759Y-120953540D02*
X291056359Y-120910971D01*
X291056359Y-120910971D02*
X291106405Y-120865909D01*
X288463531Y-130996714D02*
X288515867Y-129998085D01*
X288515867Y-129998085D02*
X288135436Y-129978147D01*
X288135436Y-129978147D02*
X288037837Y-130020716D01*
X288037837Y-130020716D02*
X287987791Y-130065778D01*
X287987791Y-130065778D02*
X287935252Y-130158393D01*
X287935252Y-130158393D02*
X287927776Y-130301055D01*
X287927776Y-130301055D02*
X287970345Y-130398655D01*
X287970345Y-130398655D02*
X288015407Y-130448700D01*
X288015407Y-130448700D02*
X288108022Y-130501239D01*
X288108022Y-130501239D02*
X288488453Y-130521176D01*
X286941810Y-130916964D02*
X287512455Y-130946870D01*
X287227132Y-130931917D02*
X287279468Y-129933288D01*
X287279468Y-129933288D02*
X287367099Y-130080933D01*
X287367099Y-130080933D02*
X287457222Y-130181025D01*
X287457222Y-130181025D02*
X287549838Y-130233563D01*
X286120732Y-130206352D02*
X286085841Y-130872105D01*
X286378438Y-129838382D02*
X286578825Y-130564150D01*
X286578825Y-130564150D02*
X285960625Y-130531752D01*
X289128200Y-118314119D02*
X289180536Y-117315490D01*
X289180536Y-117315490D02*
X288800105Y-117295552D01*
X288800105Y-117295552D02*
X288702506Y-117338121D01*
X288702506Y-117338121D02*
X288652460Y-117383183D01*
X288652460Y-117383183D02*
X288599921Y-117475798D01*
X288599921Y-117475798D02*
X288592445Y-117618460D01*
X288592445Y-117618460D02*
X288635014Y-117716060D01*
X288635014Y-117716060D02*
X288680076Y-117766105D01*
X288680076Y-117766105D02*
X288772691Y-117818644D01*
X288772691Y-117818644D02*
X289153122Y-117838581D01*
X288224476Y-117360753D02*
X288179414Y-117310707D01*
X288179414Y-117310707D02*
X288086799Y-117258169D01*
X288086799Y-117258169D02*
X287849030Y-117245708D01*
X287849030Y-117245708D02*
X287751430Y-117288278D01*
X287751430Y-117288278D02*
X287701384Y-117333339D01*
X287701384Y-117333339D02*
X287648846Y-117425955D01*
X287648846Y-117425955D02*
X287643861Y-117521062D01*
X287643861Y-117521062D02*
X287683939Y-117666216D01*
X287683939Y-117666216D02*
X288224678Y-118266767D01*
X288224678Y-118266767D02*
X287606479Y-118234369D01*
X286655403Y-118184525D02*
X287226048Y-118214432D01*
X286940725Y-118199478D02*
X286993061Y-117200849D01*
X286993061Y-117200849D02*
X287080692Y-117348495D01*
X287080692Y-117348495D02*
X287170816Y-117448587D01*
X287170816Y-117448587D02*
X287263431Y-117501125D01*
X288197664Y-136069752D02*
X288250000Y-135071123D01*
X288250000Y-135071123D02*
X287869569Y-135051185D01*
X287869569Y-135051185D02*
X287771970Y-135093754D01*
X287771970Y-135093754D02*
X287721924Y-135138816D01*
X287721924Y-135138816D02*
X287669385Y-135231431D01*
X287669385Y-135231431D02*
X287661909Y-135374093D01*
X287661909Y-135374093D02*
X287704478Y-135471693D01*
X287704478Y-135471693D02*
X287749540Y-135521738D01*
X287749540Y-135521738D02*
X287842155Y-135574277D01*
X287842155Y-135574277D02*
X288222586Y-135594214D01*
X286675943Y-135990002D02*
X287246588Y-136019908D01*
X286961265Y-136004955D02*
X287013601Y-135006326D01*
X287013601Y-135006326D02*
X287101232Y-135153971D01*
X287101232Y-135153971D02*
X287191355Y-135254063D01*
X287191355Y-135254063D02*
X287283971Y-135306601D01*
X286110079Y-134958974D02*
X286014972Y-134953990D01*
X286014972Y-134953990D02*
X285917372Y-134996559D01*
X285917372Y-134996559D02*
X285867326Y-135041621D01*
X285867326Y-135041621D02*
X285814788Y-135134236D01*
X285814788Y-135134236D02*
X285757265Y-135321959D01*
X285757265Y-135321959D02*
X285744804Y-135559728D01*
X285744804Y-135559728D02*
X285782389Y-135752435D01*
X285782389Y-135752435D02*
X285824959Y-135850035D01*
X285824959Y-135850035D02*
X285870020Y-135900081D01*
X285870020Y-135900081D02*
X285962636Y-135952619D01*
X285962636Y-135952619D02*
X286057743Y-135957604D01*
X286057743Y-135957604D02*
X286155343Y-135915034D01*
X286155343Y-135915034D02*
X286205389Y-135869973D01*
X286205389Y-135869973D02*
X286257927Y-135777357D01*
X286257927Y-135777357D02*
X286315450Y-135589634D01*
X286315450Y-135589634D02*
X286327911Y-135351865D01*
X286327911Y-135351865D02*
X286290326Y-135159158D01*
X286290326Y-135159158D02*
X286247756Y-135061558D01*
X286247756Y-135061558D02*
X286202695Y-135011512D01*
X286202695Y-135011512D02*
X286110079Y-134958974D01*
X288862331Y-123387157D02*
X288914667Y-122388528D01*
X288914667Y-122388528D02*
X288534236Y-122368590D01*
X288534236Y-122368590D02*
X288436637Y-122411159D01*
X288436637Y-122411159D02*
X288386591Y-122456221D01*
X288386591Y-122456221D02*
X288334052Y-122548836D01*
X288334052Y-122548836D02*
X288326576Y-122691498D01*
X288326576Y-122691498D02*
X288369145Y-122789098D01*
X288369145Y-122789098D02*
X288414207Y-122839143D01*
X288414207Y-122839143D02*
X288506822Y-122891682D01*
X288506822Y-122891682D02*
X288887253Y-122911619D01*
X287340610Y-123307407D02*
X287911255Y-123337313D01*
X287625932Y-123322360D02*
X287678268Y-122323731D01*
X287678268Y-122323731D02*
X287765899Y-122471376D01*
X287765899Y-122471376D02*
X287856022Y-122571468D01*
X287856022Y-122571468D02*
X287948638Y-122624006D01*
X286865072Y-123282485D02*
X286674856Y-123272516D01*
X286674856Y-123272516D02*
X286582241Y-123219978D01*
X286582241Y-123219978D02*
X286537179Y-123169932D01*
X286537179Y-123169932D02*
X286449548Y-123022286D01*
X286449548Y-123022286D02*
X286411963Y-122829579D01*
X286411963Y-122829579D02*
X286431901Y-122449149D01*
X286431901Y-122449149D02*
X286484439Y-122356533D01*
X286484439Y-122356533D02*
X286534485Y-122311472D01*
X286534485Y-122311472D02*
X286632085Y-122268902D01*
X286632085Y-122268902D02*
X286822300Y-122278871D01*
X286822300Y-122278871D02*
X286914915Y-122331409D01*
X286914915Y-122331409D02*
X286959977Y-122381455D01*
X286959977Y-122381455D02*
X287002546Y-122479055D01*
X287002546Y-122479055D02*
X286990085Y-122716824D01*
X286990085Y-122716824D02*
X286937547Y-122809439D01*
X286937547Y-122809439D02*
X286887501Y-122854501D01*
X286887501Y-122854501D02*
X286789902Y-122897070D01*
X286789902Y-122897070D02*
X286599686Y-122887102D01*
X286599686Y-122887102D02*
X286507071Y-122834564D01*
X286507071Y-122834564D02*
X286462009Y-122784518D01*
X286462009Y-122784518D02*
X286419440Y-122686918D01*
X288596464Y-128460195D02*
X288648800Y-127461566D01*
X288648800Y-127461566D02*
X288268369Y-127441628D01*
X288268369Y-127441628D02*
X288170770Y-127484197D01*
X288170770Y-127484197D02*
X288120724Y-127529259D01*
X288120724Y-127529259D02*
X288068185Y-127621874D01*
X288068185Y-127621874D02*
X288060709Y-127764536D01*
X288060709Y-127764536D02*
X288103278Y-127862136D01*
X288103278Y-127862136D02*
X288148340Y-127912181D01*
X288148340Y-127912181D02*
X288240955Y-127964720D01*
X288240955Y-127964720D02*
X288621386Y-127984657D01*
X287074743Y-128380445D02*
X287645388Y-128410351D01*
X287360065Y-128395398D02*
X287412401Y-127396769D01*
X287412401Y-127396769D02*
X287500032Y-127544414D01*
X287500032Y-127544414D02*
X287590155Y-127644506D01*
X287590155Y-127644506D02*
X287682771Y-127697044D01*
X286223556Y-127334464D02*
X286699094Y-127359386D01*
X286699094Y-127359386D02*
X286721726Y-127837416D01*
X286721726Y-127837416D02*
X286676665Y-127787370D01*
X286676665Y-127787370D02*
X286584049Y-127734832D01*
X286584049Y-127734832D02*
X286346280Y-127722371D01*
X286346280Y-127722371D02*
X286248681Y-127764940D01*
X286248681Y-127764940D02*
X286198635Y-127810002D01*
X286198635Y-127810002D02*
X286146096Y-127902617D01*
X286146096Y-127902617D02*
X286133635Y-128140386D01*
X286133635Y-128140386D02*
X286176205Y-128237986D01*
X286176205Y-128237986D02*
X286221267Y-128288032D01*
X286221267Y-128288032D02*
X286313882Y-128340570D01*
X286313882Y-128340570D02*
X286551651Y-128353031D01*
X286551651Y-128353031D02*
X286649251Y-128310462D01*
X286649251Y-128310462D02*
X286699297Y-128265400D01*
X291739076Y-126081406D02*
X291791412Y-125082777D01*
X291791412Y-125082777D02*
X291410982Y-125062839D01*
X291410982Y-125062839D02*
X291313382Y-125105408D01*
X291313382Y-125105408D02*
X291263336Y-125150470D01*
X291263336Y-125150470D02*
X291210798Y-125243085D01*
X291210798Y-125243085D02*
X291203322Y-125385747D01*
X291203322Y-125385747D02*
X291245891Y-125483347D01*
X291245891Y-125483347D02*
X291290953Y-125533393D01*
X291290953Y-125533393D02*
X291383568Y-125585931D01*
X291383568Y-125585931D02*
X291763998Y-125605868D01*
X290317245Y-125005519D02*
X290792783Y-125030441D01*
X290792783Y-125030441D02*
X290815415Y-125508471D01*
X290815415Y-125508471D02*
X290770353Y-125458425D01*
X290770353Y-125458425D02*
X290677738Y-125405887D01*
X290677738Y-125405887D02*
X290439969Y-125393426D01*
X290439969Y-125393426D02*
X290342369Y-125435995D01*
X290342369Y-125435995D02*
X290292323Y-125481057D01*
X290292323Y-125481057D02*
X290239785Y-125573672D01*
X290239785Y-125573672D02*
X290227324Y-125811441D01*
X290227324Y-125811441D02*
X290269893Y-125909041D01*
X290269893Y-125909041D02*
X290314955Y-125959087D01*
X290314955Y-125959087D02*
X290407570Y-126011625D01*
X290407570Y-126011625D02*
X290645339Y-126024086D01*
X290645339Y-126024086D02*
X290742939Y-125981516D01*
X290742939Y-125981516D02*
X290792985Y-125936455D01*
X288995264Y-120850638D02*
X289047600Y-119852009D01*
X289047600Y-119852009D02*
X288667169Y-119832071D01*
X288667169Y-119832071D02*
X288569570Y-119874640D01*
X288569570Y-119874640D02*
X288519524Y-119919702D01*
X288519524Y-119919702D02*
X288466985Y-120012317D01*
X288466985Y-120012317D02*
X288459509Y-120154979D01*
X288459509Y-120154979D02*
X288502078Y-120252579D01*
X288502078Y-120252579D02*
X288547140Y-120302624D01*
X288547140Y-120302624D02*
X288639755Y-120355163D01*
X288639755Y-120355163D02*
X289020186Y-120375100D01*
X288091540Y-119897272D02*
X288046478Y-119847226D01*
X288046478Y-119847226D02*
X287953863Y-119794688D01*
X287953863Y-119794688D02*
X287716094Y-119782227D01*
X287716094Y-119782227D02*
X287618494Y-119824797D01*
X287618494Y-119824797D02*
X287568448Y-119869858D01*
X287568448Y-119869858D02*
X287515910Y-119962474D01*
X287515910Y-119962474D02*
X287510925Y-120057581D01*
X287510925Y-120057581D02*
X287551003Y-120202735D01*
X287551003Y-120202735D02*
X288091742Y-120803286D01*
X288091742Y-120803286D02*
X287473543Y-120770888D01*
X286907679Y-119739860D02*
X286812572Y-119734876D01*
X286812572Y-119734876D02*
X286714972Y-119777445D01*
X286714972Y-119777445D02*
X286664926Y-119822507D01*
X286664926Y-119822507D02*
X286612388Y-119915122D01*
X286612388Y-119915122D02*
X286554865Y-120102845D01*
X286554865Y-120102845D02*
X286542404Y-120340614D01*
X286542404Y-120340614D02*
X286579989Y-120533321D01*
X286579989Y-120533321D02*
X286622559Y-120630921D01*
X286622559Y-120630921D02*
X286667620Y-120680967D01*
X286667620Y-120680967D02*
X286760236Y-120733505D01*
X286760236Y-120733505D02*
X286855343Y-120738490D01*
X286855343Y-120738490D02*
X286952943Y-120695920D01*
X286952943Y-120695920D02*
X287002989Y-120650859D01*
X287002989Y-120650859D02*
X287055527Y-120558243D01*
X287055527Y-120558243D02*
X287113050Y-120370520D01*
X287113050Y-120370520D02*
X287125511Y-120132751D01*
X287125511Y-120132751D02*
X287087926Y-119940044D01*
X287087926Y-119940044D02*
X287045356Y-119842444D01*
X287045356Y-119842444D02*
X287000295Y-119792398D01*
X287000295Y-119792398D02*
X286907679Y-119739860D01*
X292669609Y-108325773D02*
X292721945Y-107327144D01*
X292721945Y-107327144D02*
X292341515Y-107307206D01*
X292341515Y-107307206D02*
X292243915Y-107349775D01*
X292243915Y-107349775D02*
X292193869Y-107394837D01*
X292193869Y-107394837D02*
X292141331Y-107487452D01*
X292141331Y-107487452D02*
X292133855Y-107630114D01*
X292133855Y-107630114D02*
X292176424Y-107727714D01*
X292176424Y-107727714D02*
X292221486Y-107777760D01*
X292221486Y-107777760D02*
X292314101Y-107830298D01*
X292314101Y-107830298D02*
X292694531Y-107850235D01*
X291147888Y-108246023D02*
X291718534Y-108275929D01*
X291433211Y-108260976D02*
X291485547Y-107262347D01*
X291485547Y-107262347D02*
X291573178Y-107409992D01*
X291573178Y-107409992D02*
X291663301Y-107510084D01*
X291663301Y-107510084D02*
X291755916Y-107562623D01*
X291207342Y-136227482D02*
X291259678Y-135228853D01*
X291259678Y-135228853D02*
X290879248Y-135208915D01*
X290879248Y-135208915D02*
X290781648Y-135251484D01*
X290781648Y-135251484D02*
X290731602Y-135296546D01*
X290731602Y-135296546D02*
X290679064Y-135389161D01*
X290679064Y-135389161D02*
X290671588Y-135531823D01*
X290671588Y-135531823D02*
X290714157Y-135629423D01*
X290714157Y-135629423D02*
X290759219Y-135679469D01*
X290759219Y-135679469D02*
X290851834Y-135732007D01*
X290851834Y-135732007D02*
X291232264Y-135751944D01*
X290161159Y-136172654D02*
X289970944Y-136162685D01*
X289970944Y-136162685D02*
X289878328Y-136110147D01*
X289878328Y-136110147D02*
X289833267Y-136060101D01*
X289833267Y-136060101D02*
X289745636Y-135912455D01*
X289745636Y-135912455D02*
X289708051Y-135719748D01*
X289708051Y-135719748D02*
X289727988Y-135339318D01*
X289727988Y-135339318D02*
X289780527Y-135246702D01*
X289780527Y-135246702D02*
X289830572Y-135201641D01*
X289830572Y-135201641D02*
X289928172Y-135159071D01*
X289928172Y-135159071D02*
X290118387Y-135169040D01*
X290118387Y-135169040D02*
X290211003Y-135221578D01*
X290211003Y-135221578D02*
X290256064Y-135271624D01*
X290256064Y-135271624D02*
X290298634Y-135369224D01*
X290298634Y-135369224D02*
X290286173Y-135606993D01*
X290286173Y-135606993D02*
X290233635Y-135699608D01*
X290233635Y-135699608D02*
X290183589Y-135744670D01*
X290183589Y-135744670D02*
X290085989Y-135787239D01*
X290085989Y-135787239D02*
X289895774Y-135777271D01*
X289895774Y-135777271D02*
X289803158Y-135724732D01*
X289803158Y-135724732D02*
X289758097Y-135674686D01*
X289758097Y-135674686D02*
X289715527Y-135577087D01*
X292536676Y-110862292D02*
X292589012Y-109863663D01*
X292589012Y-109863663D02*
X292208582Y-109843725D01*
X292208582Y-109843725D02*
X292110982Y-109886294D01*
X292110982Y-109886294D02*
X292060936Y-109931356D01*
X292060936Y-109931356D02*
X292008398Y-110023971D01*
X292008398Y-110023971D02*
X292000922Y-110166633D01*
X292000922Y-110166633D02*
X292043491Y-110264233D01*
X292043491Y-110264233D02*
X292088553Y-110314279D01*
X292088553Y-110314279D02*
X292181168Y-110366817D01*
X292181168Y-110366817D02*
X292561598Y-110386754D01*
X291400168Y-109801358D02*
X291305060Y-109796374D01*
X291305060Y-109796374D02*
X291207460Y-109838943D01*
X291207460Y-109838943D02*
X291157414Y-109884005D01*
X291157414Y-109884005D02*
X291104876Y-109976620D01*
X291104876Y-109976620D02*
X291047354Y-110164343D01*
X291047354Y-110164343D02*
X291034893Y-110402112D01*
X291034893Y-110402112D02*
X291072478Y-110594819D01*
X291072478Y-110594819D02*
X291115047Y-110692419D01*
X291115047Y-110692419D02*
X291160109Y-110742465D01*
X291160109Y-110742465D02*
X291252724Y-110795003D01*
X291252724Y-110795003D02*
X291347832Y-110799987D01*
X291347832Y-110799987D02*
X291445431Y-110757418D01*
X291445431Y-110757418D02*
X291495477Y-110712356D01*
X291495477Y-110712356D02*
X291548016Y-110619741D01*
X291548016Y-110619741D02*
X291605538Y-110432018D01*
X291605538Y-110432018D02*
X291617999Y-110194249D01*
X291617999Y-110194249D02*
X291580414Y-110001542D01*
X291580414Y-110001542D02*
X291537845Y-109903942D01*
X291537845Y-109903942D02*
X291492783Y-109853896D01*
X291492783Y-109853896D02*
X291400168Y-109801358D01*
X289125079Y-109729810D02*
X289222679Y-109687241D01*
X289222679Y-109687241D02*
X289365340Y-109694718D01*
X289365340Y-109694718D02*
X289505509Y-109749748D01*
X289505509Y-109749748D02*
X289595632Y-109849840D01*
X289595632Y-109849840D02*
X289638202Y-109947440D01*
X289638202Y-109947440D02*
X289675787Y-110140147D01*
X289675787Y-110140147D02*
X289668310Y-110282808D01*
X289668310Y-110282808D02*
X289610788Y-110470531D01*
X289610788Y-110470531D02*
X289558250Y-110563147D01*
X289558250Y-110563147D02*
X289458158Y-110653270D01*
X289458158Y-110653270D02*
X289313004Y-110693347D01*
X289313004Y-110693347D02*
X289217897Y-110688363D01*
X289217897Y-110688363D02*
X289077727Y-110633332D01*
X289077727Y-110633332D02*
X289032666Y-110583286D01*
X289032666Y-110583286D02*
X289050111Y-110250410D01*
X289050111Y-110250410D02*
X289240326Y-110260379D01*
X288599697Y-110655964D02*
X288652033Y-109657335D01*
X288652033Y-109657335D02*
X288029052Y-110626058D01*
X288029052Y-110626058D02*
X288081388Y-109627429D01*
X287553514Y-110601136D02*
X287605850Y-109602507D01*
X287605850Y-109602507D02*
X287368081Y-109590046D01*
X287368081Y-109590046D02*
X287222928Y-109630123D01*
X287222928Y-109630123D02*
X287122836Y-109720246D01*
X287122836Y-109720246D02*
X287070297Y-109812862D01*
X287070297Y-109812862D02*
X287012775Y-110000584D01*
X287012775Y-110000584D02*
X287005298Y-110143246D01*
X287005298Y-110143246D02*
X287042883Y-110335953D01*
X287042883Y-110335953D02*
X287085453Y-110433553D01*
X287085453Y-110433553D02*
X287175576Y-110533645D01*
X287175576Y-110533645D02*
X287315745Y-110588675D01*
X287315745Y-110588675D02*
X287553514Y-110601136D01*
X289432351Y-114785201D02*
X289047138Y-115766385D01*
X289047138Y-115766385D02*
X288766598Y-114750310D01*
X287815724Y-115606481D02*
X287860786Y-115656527D01*
X287860786Y-115656527D02*
X288000955Y-115711557D01*
X288000955Y-115711557D02*
X288096062Y-115716541D01*
X288096062Y-115716541D02*
X288241216Y-115676464D01*
X288241216Y-115676464D02*
X288341308Y-115586341D01*
X288341308Y-115586341D02*
X288393846Y-115493726D01*
X288393846Y-115493726D02*
X288451369Y-115306003D01*
X288451369Y-115306003D02*
X288458845Y-115163341D01*
X288458845Y-115163341D02*
X288421260Y-114970634D01*
X288421260Y-114970634D02*
X288378691Y-114873034D01*
X288378691Y-114873034D02*
X288288567Y-114772942D01*
X288288567Y-114772942D02*
X288148398Y-114717912D01*
X288148398Y-114717912D02*
X288053291Y-114712927D01*
X288053291Y-114712927D02*
X287908137Y-114753005D01*
X287908137Y-114753005D02*
X287858091Y-114798066D01*
X286817094Y-115554145D02*
X286862156Y-115604191D01*
X286862156Y-115604191D02*
X287002325Y-115659221D01*
X287002325Y-115659221D02*
X287097433Y-115664205D01*
X287097433Y-115664205D02*
X287242586Y-115624128D01*
X287242586Y-115624128D02*
X287342678Y-115534005D01*
X287342678Y-115534005D02*
X287395216Y-115441390D01*
X287395216Y-115441390D02*
X287452739Y-115253667D01*
X287452739Y-115253667D02*
X287460216Y-115111005D01*
X287460216Y-115111005D02*
X287422631Y-114918298D01*
X287422631Y-114918298D02*
X287380061Y-114820698D01*
X287380061Y-114820698D02*
X287289938Y-114720606D01*
X287289938Y-114720606D02*
X287149769Y-114665576D01*
X287149769Y-114665576D02*
X287054661Y-114660592D01*
X287054661Y-114660592D02*
X286909508Y-114700669D01*
X286909508Y-114700669D02*
X286859462Y-114745730D01*
X288330598Y-133533233D02*
X288382934Y-132534604D01*
X288382934Y-132534604D02*
X288002503Y-132514666D01*
X288002503Y-132514666D02*
X287904904Y-132557235D01*
X287904904Y-132557235D02*
X287854858Y-132602297D01*
X287854858Y-132602297D02*
X287802319Y-132694912D01*
X287802319Y-132694912D02*
X287794843Y-132837574D01*
X287794843Y-132837574D02*
X287837412Y-132935174D01*
X287837412Y-132935174D02*
X287882474Y-132985219D01*
X287882474Y-132985219D02*
X287975089Y-133037758D01*
X287975089Y-133037758D02*
X288355520Y-133057695D01*
X286808877Y-133453483D02*
X287379522Y-133483389D01*
X287094199Y-133468436D02*
X287146535Y-132469807D01*
X287146535Y-132469807D02*
X287234166Y-132617452D01*
X287234166Y-132617452D02*
X287324289Y-132717544D01*
X287324289Y-132717544D02*
X287416905Y-132770082D01*
X286005244Y-132409994D02*
X286195459Y-132419963D01*
X286195459Y-132419963D02*
X286288075Y-132472501D01*
X286288075Y-132472501D02*
X286333136Y-132522547D01*
X286333136Y-132522547D02*
X286420767Y-132670193D01*
X286420767Y-132670193D02*
X286458352Y-132862900D01*
X286458352Y-132862900D02*
X286438415Y-133243330D01*
X286438415Y-133243330D02*
X286385877Y-133335946D01*
X286385877Y-133335946D02*
X286335831Y-133381007D01*
X286335831Y-133381007D02*
X286238231Y-133423577D01*
X286238231Y-133423577D02*
X286048016Y-133413608D01*
X286048016Y-133413608D02*
X285955401Y-133361070D01*
X285955401Y-133361070D02*
X285910339Y-133311024D01*
X285910339Y-133311024D02*
X285867769Y-133213424D01*
X285867769Y-133213424D02*
X285880230Y-132975655D01*
X285880230Y-132975655D02*
X285932769Y-132883040D01*
X285932769Y-132883040D02*
X285982815Y-132837978D01*
X285982815Y-132837978D02*
X286080414Y-132795409D01*
X286080414Y-132795409D02*
X286270629Y-132805378D01*
X286270629Y-132805378D02*
X286363245Y-132857916D01*
X286363245Y-132857916D02*
X286408306Y-132907962D01*
X286408306Y-132907962D02*
X286450876Y-133005561D01*
X291473209Y-131154444D02*
X291525545Y-130155815D01*
X291525545Y-130155815D02*
X291145115Y-130135877D01*
X291145115Y-130135877D02*
X291047515Y-130178446D01*
X291047515Y-130178446D02*
X290997469Y-130223508D01*
X290997469Y-130223508D02*
X290944931Y-130316123D01*
X290944931Y-130316123D02*
X290937455Y-130458785D01*
X290937455Y-130458785D02*
X290980024Y-130556385D01*
X290980024Y-130556385D02*
X291025086Y-130606431D01*
X291025086Y-130606431D02*
X291117701Y-130658969D01*
X291117701Y-130658969D02*
X291498131Y-130678906D01*
X290622023Y-130108463D02*
X289956270Y-130073572D01*
X289956270Y-130073572D02*
X290331918Y-131094632D01*
X291606142Y-128617925D02*
X291658478Y-127619296D01*
X291658478Y-127619296D02*
X291278048Y-127599358D01*
X291278048Y-127599358D02*
X291180448Y-127641927D01*
X291180448Y-127641927D02*
X291130402Y-127686989D01*
X291130402Y-127686989D02*
X291077864Y-127779604D01*
X291077864Y-127779604D02*
X291070388Y-127922266D01*
X291070388Y-127922266D02*
X291112957Y-128019866D01*
X291112957Y-128019866D02*
X291158019Y-128069912D01*
X291158019Y-128069912D02*
X291250634Y-128122450D01*
X291250634Y-128122450D02*
X291631064Y-128142387D01*
X290231865Y-127544530D02*
X290422080Y-127554499D01*
X290422080Y-127554499D02*
X290514695Y-127607037D01*
X290514695Y-127607037D02*
X290559757Y-127657083D01*
X290559757Y-127657083D02*
X290647388Y-127804729D01*
X290647388Y-127804729D02*
X290684973Y-127997436D01*
X290684973Y-127997436D02*
X290665035Y-128377866D01*
X290665035Y-128377866D02*
X290612497Y-128470482D01*
X290612497Y-128470482D02*
X290562451Y-128515543D01*
X290562451Y-128515543D02*
X290464851Y-128558113D01*
X290464851Y-128558113D02*
X290274636Y-128548144D01*
X290274636Y-128548144D02*
X290182021Y-128495606D01*
X290182021Y-128495606D02*
X290136959Y-128445560D01*
X290136959Y-128445560D02*
X290094390Y-128347960D01*
X290094390Y-128347960D02*
X290106851Y-128110191D01*
X290106851Y-128110191D02*
X290159389Y-128017576D01*
X290159389Y-128017576D02*
X290209435Y-127972514D01*
X290209435Y-127972514D02*
X290307035Y-127929945D01*
X290307035Y-127929945D02*
X290497250Y-127939913D01*
X290497250Y-127939913D02*
X290589865Y-127992452D01*
X290589865Y-127992452D02*
X290634927Y-128042498D01*
X290634927Y-128042498D02*
X290677496Y-128140097D01*
X289136839Y-108140629D02*
X289494637Y-107682536D01*
X289707484Y-108170535D02*
X289759820Y-107171906D01*
X289759820Y-107171906D02*
X289379390Y-107151968D01*
X289379390Y-107151968D02*
X289281790Y-107194538D01*
X289281790Y-107194538D02*
X289231744Y-107239599D01*
X289231744Y-107239599D02*
X289179206Y-107332215D01*
X289179206Y-107332215D02*
X289171730Y-107474876D01*
X289171730Y-107474876D02*
X289214299Y-107572476D01*
X289214299Y-107572476D02*
X289259361Y-107622522D01*
X289259361Y-107622522D02*
X289351976Y-107675060D01*
X289351976Y-107675060D02*
X289732406Y-107694997D01*
X288771362Y-107835369D02*
X288295824Y-107810447D01*
X288851516Y-108125676D02*
X288570976Y-107109601D01*
X288570976Y-107109601D02*
X288185763Y-108090785D01*
X288000330Y-107079695D02*
X287710225Y-108065863D01*
X287710225Y-108065863D02*
X287557393Y-107342588D01*
X287557393Y-107342588D02*
X287329795Y-108045926D01*
X287329795Y-108045926D02*
X287144362Y-107034835D01*
X291755238Y-114954622D02*
X291852838Y-114912053D01*
X291852838Y-114912053D02*
X291995499Y-114919530D01*
X291995499Y-114919530D02*
X292135668Y-114974560D01*
X292135668Y-114974560D02*
X292225791Y-115074652D01*
X292225791Y-115074652D02*
X292268361Y-115172252D01*
X292268361Y-115172252D02*
X292305946Y-115364959D01*
X292305946Y-115364959D02*
X292298469Y-115507620D01*
X292298469Y-115507620D02*
X292240947Y-115695343D01*
X292240947Y-115695343D02*
X292188409Y-115787959D01*
X292188409Y-115787959D02*
X292088317Y-115878082D01*
X292088317Y-115878082D02*
X291943163Y-115918159D01*
X291943163Y-115918159D02*
X291848056Y-115913175D01*
X291848056Y-115913175D02*
X291707886Y-115858144D01*
X291707886Y-115858144D02*
X291662825Y-115808098D01*
X291662825Y-115808098D02*
X291680270Y-115475222D01*
X291680270Y-115475222D02*
X291870485Y-115485191D01*
X291229856Y-115880776D02*
X291282192Y-114882147D01*
X291282192Y-114882147D02*
X290659211Y-115850870D01*
X290659211Y-115850870D02*
X290711547Y-114852241D01*
X290183673Y-115825948D02*
X290236009Y-114827319D01*
X290236009Y-114827319D02*
X289998240Y-114814858D01*
X289998240Y-114814858D02*
X289853087Y-114854935D01*
X289853087Y-114854935D02*
X289752995Y-114945058D01*
X289752995Y-114945058D02*
X289700456Y-115037674D01*
X289700456Y-115037674D02*
X289642934Y-115225396D01*
X289642934Y-115225396D02*
X289635457Y-115368058D01*
X289635457Y-115368058D02*
X289673042Y-115560765D01*
X289673042Y-115560765D02*
X289715612Y-115658365D01*
X289715612Y-115658365D02*
X289805735Y-115758457D01*
X289805735Y-115758457D02*
X289945904Y-115813487D01*
X289945904Y-115813487D02*
X290183673Y-115825948D01*
X291888172Y-112418103D02*
X291985772Y-112375534D01*
X291985772Y-112375534D02*
X292128433Y-112383011D01*
X292128433Y-112383011D02*
X292268602Y-112438041D01*
X292268602Y-112438041D02*
X292358725Y-112538133D01*
X292358725Y-112538133D02*
X292401295Y-112635733D01*
X292401295Y-112635733D02*
X292438880Y-112828440D01*
X292438880Y-112828440D02*
X292431403Y-112971101D01*
X292431403Y-112971101D02*
X292373881Y-113158824D01*
X292373881Y-113158824D02*
X292321343Y-113251440D01*
X292321343Y-113251440D02*
X292221251Y-113341563D01*
X292221251Y-113341563D02*
X292076097Y-113381640D01*
X292076097Y-113381640D02*
X291980990Y-113376656D01*
X291980990Y-113376656D02*
X291840820Y-113321625D01*
X291840820Y-113321625D02*
X291795759Y-113271579D01*
X291795759Y-113271579D02*
X291813204Y-112938703D01*
X291813204Y-112938703D02*
X292003419Y-112948672D01*
X291362790Y-113344257D02*
X291415126Y-112345628D01*
X291415126Y-112345628D02*
X290792145Y-113314351D01*
X290792145Y-113314351D02*
X290844481Y-112315722D01*
X290316607Y-113289429D02*
X290368943Y-112290800D01*
X290368943Y-112290800D02*
X290131174Y-112278339D01*
X290131174Y-112278339D02*
X289986021Y-112318416D01*
X289986021Y-112318416D02*
X289885929Y-112408539D01*
X289885929Y-112408539D02*
X289833390Y-112501155D01*
X289833390Y-112501155D02*
X289775868Y-112688877D01*
X289775868Y-112688877D02*
X289768391Y-112831539D01*
X289768391Y-112831539D02*
X289805976Y-113024246D01*
X289805976Y-113024246D02*
X289848546Y-113121846D01*
X289848546Y-113121846D02*
X289938669Y-113221938D01*
X289938669Y-113221938D02*
X290078838Y-113276968D01*
X290078838Y-113276968D02*
X290316607Y-113289429D01*
X292137876Y-118471849D02*
X292190212Y-117473220D01*
X292190212Y-117473220D02*
X291809782Y-117453282D01*
X291809782Y-117453282D02*
X291712182Y-117495851D01*
X291712182Y-117495851D02*
X291662136Y-117540913D01*
X291662136Y-117540913D02*
X291609598Y-117633528D01*
X291609598Y-117633528D02*
X291602122Y-117776190D01*
X291602122Y-117776190D02*
X291644691Y-117873790D01*
X291644691Y-117873790D02*
X291689753Y-117923836D01*
X291689753Y-117923836D02*
X291782368Y-117976374D01*
X291782368Y-117976374D02*
X292162798Y-117996311D01*
X291234152Y-117518483D02*
X291189091Y-117468437D01*
X291189091Y-117468437D02*
X291096475Y-117415899D01*
X291096475Y-117415899D02*
X290858706Y-117403438D01*
X290858706Y-117403438D02*
X290761106Y-117446008D01*
X290761106Y-117446008D02*
X290711061Y-117491069D01*
X290711061Y-117491069D02*
X290658522Y-117583685D01*
X290658522Y-117583685D02*
X290653538Y-117678792D01*
X290653538Y-117678792D02*
X290693615Y-117823946D01*
X290693615Y-117823946D02*
X291234354Y-118424498D01*
X291234354Y-118424498D02*
X290616155Y-118392099D01*
D11*
%TO.C,D10*%
X244236795Y-126860040D02*
X245036673Y-126874002D01*
X244619282Y-127866869D02*
X244626263Y-127466930D01*
X244626263Y-127466930D02*
X244076346Y-127457331D01*
X244626263Y-127466930D02*
X244236795Y-126860040D01*
X244626263Y-127466930D02*
X245176179Y-127476529D01*
X244636734Y-126867021D02*
X244645460Y-126367097D01*
X245036673Y-126874002D02*
X244626263Y-127466930D01*
%TO.C,D8*%
X222426396Y-97792497D02*
X223225908Y-97764571D01*
X222826152Y-97778537D02*
X222808702Y-97278842D01*
X222847092Y-98378172D02*
X222297427Y-98397367D01*
X222847092Y-98378172D02*
X222426396Y-97792497D01*
X222847092Y-98378172D02*
X223396757Y-98358977D01*
X222861052Y-98777928D02*
X222847092Y-98378172D01*
X223225908Y-97764571D02*
X222847092Y-98378172D01*
%TO.C,D15*%
X266693052Y-92139264D02*
X267491956Y-92181133D01*
X267040168Y-93158828D02*
X267061102Y-92759376D01*
X267061102Y-92759376D02*
X266511856Y-92730592D01*
X267061102Y-92759376D02*
X266693052Y-92139264D01*
X267061102Y-92759376D02*
X267610349Y-92788161D01*
X267092504Y-92160199D02*
X267118672Y-91660884D01*
X267491956Y-92181133D02*
X267061102Y-92759376D01*
%TO.C,D17*%
X254875683Y-149016370D02*
X255669720Y-149113865D01*
X255150832Y-150057664D02*
X255199580Y-149660645D01*
X255199580Y-149660645D02*
X254653679Y-149593617D01*
X255199580Y-149660645D02*
X254875683Y-149016370D01*
X255199580Y-149660645D02*
X255745480Y-149727673D01*
X255272701Y-149065117D02*
X255333636Y-148568844D01*
X255669720Y-149113865D02*
X255199580Y-149660645D01*
%TO.C,D3*%
X178927406Y-109557764D02*
X179717557Y-109432616D01*
X179322481Y-109495190D02*
X179244264Y-109001346D01*
X179416342Y-110087803D02*
X178873113Y-110173842D01*
X179416342Y-110087803D02*
X178927406Y-109557764D01*
X179416342Y-110087803D02*
X179959571Y-110001764D01*
X179478916Y-110482878D02*
X179416342Y-110087803D01*
X179717557Y-109432616D02*
X179416342Y-110087803D01*
%TO.C,D7*%
X223089486Y-116780923D02*
X223888998Y-116752997D01*
X223489242Y-116766963D02*
X223471792Y-116267268D01*
X223510182Y-117366598D02*
X222960517Y-117385793D01*
X223510182Y-117366598D02*
X223089486Y-116780923D01*
X223510182Y-117366598D02*
X224059847Y-117347403D01*
X223524142Y-117766354D02*
X223510182Y-117366598D01*
X223888998Y-116752997D02*
X223510182Y-117366598D01*
D12*
%TO.C,PWR1*%
X296970623Y-90972271D02*
X296960155Y-91171999D01*
X297127630Y-87976382D02*
X297038659Y-89674052D01*
X298273013Y-86183870D02*
X299061930Y-86225216D01*
X298700812Y-93115759D02*
X297911895Y-93074414D01*
X300039145Y-86877253D02*
X299740830Y-92569441D01*
D11*
%TO.C,D2*%
X181899661Y-128323843D02*
X182689812Y-128198695D01*
X182294736Y-128261269D02*
X182216519Y-127767425D01*
X182388597Y-128853882D02*
X181845368Y-128939921D01*
X182388597Y-128853882D02*
X181899661Y-128323843D01*
X182388597Y-128853882D02*
X182931826Y-128767843D01*
X182451171Y-129248957D02*
X182388597Y-128853882D01*
X182689812Y-128198695D02*
X182388597Y-128853882D01*
%TO.C,D9*%
X221763305Y-78804071D02*
X222562817Y-78776145D01*
X222163061Y-78790111D02*
X222145611Y-78290416D01*
X222184001Y-79389746D02*
X221634336Y-79408941D01*
X222184001Y-79389746D02*
X221763305Y-78804071D01*
X222184001Y-79389746D02*
X222733666Y-79370551D01*
X222197961Y-79789502D02*
X222184001Y-79389746D01*
X222562817Y-78776145D02*
X222184001Y-79389746D01*
%TO.C,RST1*%
X284931096Y-83291644D02*
X284918012Y-83541301D01*
X285088104Y-80295755D02*
X285101188Y-80046098D01*
X285167669Y-83554385D02*
X284918012Y-83541301D01*
X285350845Y-80059182D02*
X285101188Y-80046098D01*
X289361913Y-83774196D02*
X289611570Y-83787280D01*
X289545089Y-80278993D02*
X289794746Y-80292077D01*
X289624654Y-83537623D02*
X289611570Y-83787280D01*
X289781662Y-80541734D02*
X289794746Y-80292077D01*
%TO.C,D16*%
X226828487Y-152002142D02*
X227622524Y-152099637D01*
X227103636Y-153043436D02*
X227152384Y-152646417D01*
X227152384Y-152646417D02*
X226606483Y-152579389D01*
X227152384Y-152646417D02*
X226828487Y-152002142D01*
X227152384Y-152646417D02*
X227698284Y-152713445D01*
X227225505Y-152050889D02*
X227286440Y-151554616D01*
X227622524Y-152099637D02*
X227152384Y-152646417D01*
%TO.C,D18*%
X280285124Y-152386876D02*
X281079161Y-152484371D01*
X280560273Y-153428170D02*
X280609021Y-153031151D01*
X280609021Y-153031151D02*
X280063120Y-152964123D01*
X280609021Y-153031151D02*
X280285124Y-152386876D01*
X280609021Y-153031151D02*
X281154921Y-153098179D01*
X280682142Y-152435623D02*
X280743077Y-151939350D01*
X281079161Y-152484371D02*
X280609021Y-153031151D01*
%TO.C,D13*%
X264704285Y-130087186D02*
X265503189Y-130129055D01*
X265051401Y-131106750D02*
X265072335Y-130707298D01*
X265072335Y-130707298D02*
X264523089Y-130678514D01*
X265072335Y-130707298D02*
X264704285Y-130087186D01*
X265072335Y-130707298D02*
X265621582Y-130736083D01*
X265103737Y-130108121D02*
X265129905Y-129608806D01*
X265503189Y-130129055D02*
X265072335Y-130707298D01*
%TO.C,D4*%
X203273929Y-128742472D02*
X204070885Y-128672747D01*
X203672407Y-128707609D02*
X203628829Y-128209512D01*
X203724702Y-129305326D02*
X203176793Y-129353262D01*
X203724702Y-129305326D02*
X203273929Y-128742472D01*
X203724702Y-129305326D02*
X204272608Y-129257390D01*
X203759563Y-129703804D02*
X203724702Y-129305326D01*
X204070885Y-128672747D02*
X203724702Y-129305326D01*
%TO.C,D14*%
X265698669Y-111113225D02*
X266497573Y-111155094D01*
X266045785Y-112132789D02*
X266066719Y-111733337D01*
X266066719Y-111733337D02*
X265517473Y-111704553D01*
X266066719Y-111733337D02*
X265698669Y-111113225D01*
X266066719Y-111733337D02*
X266615966Y-111762122D01*
X266098121Y-111134160D02*
X266124289Y-110634845D01*
X266497573Y-111155094D02*
X266066719Y-111733337D01*
%TO.C,D5*%
X201617969Y-109814773D02*
X202414925Y-109745048D01*
X202016447Y-109779910D02*
X201972869Y-109281813D01*
X202068742Y-110377627D02*
X201520833Y-110425563D01*
X202068742Y-110377627D02*
X201617969Y-109814773D01*
X202068742Y-110377627D02*
X202616648Y-110329691D01*
X202103603Y-110776105D02*
X202068742Y-110377627D01*
X202414925Y-109745048D02*
X202068742Y-110377627D01*
%TO.C,D12*%
X244899987Y-88865827D02*
X245699865Y-88879789D01*
X245282474Y-89872656D02*
X245289455Y-89472717D01*
X245289455Y-89472717D02*
X244739538Y-89463118D01*
X245289455Y-89472717D02*
X244899987Y-88865827D01*
X245289455Y-89472717D02*
X245839371Y-89482316D01*
X245299926Y-88872808D02*
X245308652Y-88372884D01*
X245699865Y-88879789D02*
X245289455Y-89472717D01*
%TO.C,D11*%
X244568391Y-107862933D02*
X245368269Y-107876895D01*
X244950878Y-108869762D02*
X244957859Y-108469823D01*
X244957859Y-108469823D02*
X244407942Y-108460224D01*
X244957859Y-108469823D02*
X244568391Y-107862933D01*
X244957859Y-108469823D02*
X245507775Y-108479422D01*
X244968330Y-107869914D02*
X244977056Y-107369990D01*
X245368269Y-107876895D02*
X244957859Y-108469823D01*
%TO.C,D6*%
X199962010Y-90887074D02*
X200758966Y-90817349D01*
X200360488Y-90852211D02*
X200316910Y-90354114D01*
X200412783Y-91449928D02*
X199864874Y-91497864D01*
X200412783Y-91449928D02*
X199962010Y-90887074D01*
X200412783Y-91449928D02*
X200960689Y-91401992D01*
X200447644Y-91848406D02*
X200412783Y-91449928D01*
X200758966Y-90817349D02*
X200412783Y-91449928D01*
%TO.C,D1*%
X184871915Y-147089921D02*
X185662066Y-146964773D01*
X185266990Y-147027347D02*
X185188773Y-146533503D01*
X185360851Y-147619960D02*
X184817622Y-147705999D01*
X185360851Y-147619960D02*
X184871915Y-147089921D01*
X185360851Y-147619960D02*
X185904080Y-147533921D01*
X185423425Y-148015035D02*
X185360851Y-147619960D01*
X185662066Y-146964773D02*
X185360851Y-147619960D01*
D12*
%TO.C,MCU1*%
X281050998Y-105929600D02*
X279449518Y-136487664D01*
X282105872Y-136626877D02*
X279449518Y-136487664D01*
X283707353Y-106068813D02*
X281050998Y-105929600D01*
X283707353Y-106068813D02*
X282105872Y-136626877D01*
X296270112Y-106727200D02*
X294668632Y-137285264D01*
X297324987Y-137424477D02*
X294668632Y-137285264D01*
X298790393Y-109462850D02*
X296134039Y-109323637D01*
X298926467Y-106866413D02*
X296270112Y-106727200D01*
X298926467Y-106866413D02*
X297324987Y-137424477D01*
%TO.C,JST1*%
X281066911Y-99511638D02*
X281119247Y-98513008D01*
X281476178Y-91702355D02*
X281423842Y-92700984D01*
X281985650Y-99559787D02*
X281066911Y-99511638D01*
X282474808Y-91754691D02*
X281476178Y-91702355D01*
D11*
X282570344Y-100631857D02*
X283568973Y-100684193D01*
X283095826Y-100158710D02*
X283043490Y-101157339D01*
X285566232Y-100788864D02*
X284567603Y-100736529D01*
D12*
X286259785Y-99783785D02*
X287178524Y-99831934D01*
X286669052Y-91974502D02*
X287587791Y-92022651D01*
X287178524Y-99831934D02*
X287230860Y-98833304D01*
X287587791Y-92022651D02*
X287535455Y-93021280D01*
%TD*%
M02*
