%TF.GenerationSoftware,KiCad,Pcbnew,8.0.7*%
%TF.CreationDate,2025-02-03T11:28:03-05:00*%
%TF.ProjectId,thepcb,74686570-6362-42e6-9b69-6361645f7063,v1.0.0*%
%TF.SameCoordinates,Original*%
%TF.FileFunction,Copper,L2,Bot*%
%TF.FilePolarity,Positive*%
%FSLAX46Y46*%
G04 Gerber Fmt 4.6, Leading zero omitted, Abs format (unit mm)*
G04 Created by KiCad (PCBNEW 8.0.7) date 2025-02-03 11:28:03*
%MOMM*%
%LPD*%
G01*
G04 APERTURE LIST*
G04 Aperture macros list*
%AMHorizOval*
0 Thick line with rounded ends*
0 $1 width*
0 $2 $3 position (X,Y) of the first rounded end (center of the circle)*
0 $4 $5 position (X,Y) of the second rounded end (center of the circle)*
0 Add line between two ends*
20,1,$1,$2,$3,$4,$5,0*
0 Add two circle primitives to create the rounded ends*
1,1,$1,$2,$3*
1,1,$1,$4,$5*%
%AMRotRect*
0 Rectangle, with rotation*
0 The origin of the aperture is its center*
0 $1 length*
0 $2 width*
0 $3 Rotation angle, in degrees counterclockwise*
0 Add horizontal line*
21,1,$1,$2,0,0,$3*%
%AMOutline5P*
0 Free polygon, 5 corners , with rotation*
0 The origin of the aperture is its center*
0 number of corners: always 5*
0 $1 to $10 corner X, Y*
0 $11 Rotation angle, in degrees counterclockwise*
0 create outline with 5 corners*
4,1,5,$1,$2,$3,$4,$5,$6,$7,$8,$9,$10,$1,$2,$11*%
%AMOutline6P*
0 Free polygon, 6 corners , with rotation*
0 The origin of the aperture is its center*
0 number of corners: always 6*
0 $1 to $12 corner X, Y*
0 $13 Rotation angle, in degrees counterclockwise*
0 create outline with 6 corners*
4,1,6,$1,$2,$3,$4,$5,$6,$7,$8,$9,$10,$11,$12,$1,$2,$13*%
%AMOutline7P*
0 Free polygon, 7 corners , with rotation*
0 The origin of the aperture is its center*
0 number of corners: always 7*
0 $1 to $14 corner X, Y*
0 $15 Rotation angle, in degrees counterclockwise*
0 create outline with 7 corners*
4,1,7,$1,$2,$3,$4,$5,$6,$7,$8,$9,$10,$11,$12,$13,$14,$1,$2,$15*%
%AMOutline8P*
0 Free polygon, 8 corners , with rotation*
0 The origin of the aperture is its center*
0 number of corners: always 8*
0 $1 to $16 corner X, Y*
0 $17 Rotation angle, in degrees counterclockwise*
0 create outline with 8 corners*
4,1,8,$1,$2,$3,$4,$5,$6,$7,$8,$9,$10,$11,$12,$13,$14,$15,$16,$1,$2,$17*%
%AMFreePoly0*
4,1,6,0.250000,0.000000,-0.250000,-0.625000,-0.500000,-0.625000,-0.500000,0.625000,-0.250000,0.625000,0.250000,0.000000,0.250000,0.000000,$1*%
%AMFreePoly1*
4,1,6,0.500000,-0.625000,-0.650000,-0.625000,-0.150000,0.000000,-0.650000,0.625000,0.500000,0.625000,0.500000,-0.625000,0.500000,-0.625000,$1*%
%AMFreePoly2*
4,1,6,0.600000,-1.000000,0.000000,-0.400000,-0.600000,-1.000000,-0.600000,0.250000,0.600000,0.250000,0.600000,-1.000000,0.600000,-1.000000,$1*%
%AMFreePoly3*
4,1,6,0.600000,-0.199999,0.600000,-0.400000,-0.600000,-0.400000,-0.600000,-0.200000,0.000000,0.400000,0.600000,-0.199999,0.600000,-0.199999,$1*%
G04 Aperture macros list end*
%TA.AperFunction,SMDPad,CuDef*%
%ADD10RotRect,0.900000X1.200000X89.000000*%
%TD*%
%TA.AperFunction,SMDPad,CuDef*%
%ADD11Outline5P,-1.300000X1.300000X1.300000X1.300000X1.300000X-1.300000X0.000000X-1.300000X-1.300000X0.000000X2.000000*%
%TD*%
%TA.AperFunction,SMDPad,CuDef*%
%ADD12RotRect,2.600000X2.600000X2.000000*%
%TD*%
%TA.AperFunction,SMDPad,CuDef*%
%ADD13RotRect,0.900000X1.200000X92.000000*%
%TD*%
%TA.AperFunction,SMDPad,CuDef*%
%ADD14Outline5P,-1.300000X1.300000X1.300000X1.300000X1.300000X-1.300000X0.000000X-1.300000X-1.300000X0.000000X359.000000*%
%TD*%
%TA.AperFunction,SMDPad,CuDef*%
%ADD15RotRect,2.600000X2.600000X359.000000*%
%TD*%
%TA.AperFunction,SMDPad,CuDef*%
%ADD16RotRect,0.900000X1.200000X87.000000*%
%TD*%
%TA.AperFunction,SMDPad,CuDef*%
%ADD17RotRect,0.900000X1.200000X83.000000*%
%TD*%
%TA.AperFunction,SMDPad,CuDef*%
%ADD18RotRect,0.900000X1.200000X99.000000*%
%TD*%
%TA.AperFunction,SMDPad,CuDef*%
%ADD19Outline5P,-1.300000X1.300000X1.300000X1.300000X1.300000X-1.300000X0.000000X-1.300000X-1.300000X0.000000X9.000000*%
%TD*%
%TA.AperFunction,SMDPad,CuDef*%
%ADD20RotRect,2.600000X2.600000X9.000000*%
%TD*%
%TA.AperFunction,SMDPad,CuDef*%
%ADD21RotRect,1.000000X0.800000X267.000000*%
%TD*%
%TA.AperFunction,SMDPad,CuDef*%
%ADD22RotRect,0.700000X1.500000X267.000000*%
%TD*%
%TA.AperFunction,SMDPad,CuDef*%
%ADD23Outline5P,-1.300000X1.300000X1.300000X1.300000X1.300000X-1.300000X0.000000X-1.300000X-1.300000X0.000000X353.000000*%
%TD*%
%TA.AperFunction,SMDPad,CuDef*%
%ADD24RotRect,2.600000X2.600000X353.000000*%
%TD*%
%TA.AperFunction,SMDPad,CuDef*%
%ADD25RotRect,1.550000X1.000000X177.000000*%
%TD*%
%TA.AperFunction,SMDPad,CuDef*%
%ADD26Outline5P,-1.300000X1.300000X1.300000X1.300000X1.300000X-1.300000X0.000000X-1.300000X-1.300000X0.000000X357.000000*%
%TD*%
%TA.AperFunction,SMDPad,CuDef*%
%ADD27RotRect,2.600000X2.600000X357.000000*%
%TD*%
%TA.AperFunction,SMDPad,CuDef*%
%ADD28Outline5P,-1.300000X1.300000X1.300000X1.300000X1.300000X-1.300000X0.000000X-1.300000X-1.300000X0.000000X5.000000*%
%TD*%
%TA.AperFunction,SMDPad,CuDef*%
%ADD29RotRect,2.600000X2.600000X5.000000*%
%TD*%
%TA.AperFunction,SMDPad,CuDef*%
%ADD30RotRect,0.900000X1.200000X95.000000*%
%TD*%
%TA.AperFunction,ComponentPad*%
%ADD31Outline6P,-1.300000X0.540000X-0.940000X0.900000X0.940000X0.900000X1.300000X0.540000X1.300000X-0.900000X-1.300000X-0.900000X272.000000*%
%TD*%
%TA.AperFunction,ComponentPad*%
%ADD32Outline6P,-1.300000X0.900000X1.300000X0.900000X1.300000X-0.540000X0.940000X-0.900000X-0.940000X-0.900000X-1.300000X-0.540000X272.000000*%
%TD*%
%TA.AperFunction,ComponentPad*%
%ADD33HorizOval,1.100000X0.249848X0.008725X-0.249848X-0.008725X0*%
%TD*%
%TA.AperFunction,SMDPad,CuDef*%
%ADD34FreePoly0,177.000000*%
%TD*%
%TA.AperFunction,ComponentPad*%
%ADD35C,1.700000*%
%TD*%
%TA.AperFunction,SMDPad,CuDef*%
%ADD36FreePoly0,357.000000*%
%TD*%
%TA.AperFunction,SMDPad,CuDef*%
%ADD37FreePoly1,357.000000*%
%TD*%
%TA.AperFunction,ComponentPad*%
%ADD38C,0.800000*%
%TD*%
%TA.AperFunction,SMDPad,CuDef*%
%ADD39FreePoly1,177.000000*%
%TD*%
%TA.AperFunction,SMDPad,CuDef*%
%ADD40FreePoly2,177.000000*%
%TD*%
%TA.AperFunction,ComponentPad*%
%ADD41HorizOval,1.200000X-0.014392X-0.274623X0.014392X0.274623X0*%
%TD*%
%TA.AperFunction,SMDPad,CuDef*%
%ADD42FreePoly3,177.000000*%
%TD*%
%TA.AperFunction,ViaPad*%
%ADD43C,0.800000*%
%TD*%
%TA.AperFunction,Conductor*%
%ADD44C,0.250000*%
%TD*%
G04 APERTURE END LIST*
D10*
%TO.P,D10,1*%
%TO.N,P16*%
X244603575Y-128766732D03*
%TO.P,D10,2*%
%TO.N,index_bottom*%
X244661167Y-125467234D03*
%TD*%
D11*
%TO.P,S7,1*%
%TO.N,P21*%
X223461560Y-106661773D03*
D12*
%TO.P,S7,2*%
%TO.N,middle_bottom*%
X235081303Y-108457344D03*
%TD*%
D13*
%TO.P,D8,1*%
%TO.N,P14*%
X222892461Y-99677380D03*
%TO.P,D8,2*%
%TO.N,middle_home*%
X222777293Y-96379390D03*
%TD*%
D14*
%TO.P,S11,1*%
%TO.N,P1*%
X245469550Y-97777125D03*
D15*
%TO.P,S11,2*%
%TO.N,index_home*%
X256979395Y-100178365D03*
%TD*%
D16*
%TO.P,D15,1*%
%TO.N,P15*%
X266993066Y-94057595D03*
%TO.P,D15,2*%
%TO.N,far_top*%
X267165774Y-90762117D03*
%TD*%
D17*
%TO.P,D17,1*%
%TO.N,P10*%
X255041150Y-150950955D03*
%TO.P,D17,2*%
%TO.N,2_top*%
X255443318Y-147675553D03*
%TD*%
D18*
%TO.P,D3,1*%
%TO.N,P15*%
X179619707Y-111371798D03*
%TO.P,D3,2*%
%TO.N,pinkie_top*%
X179103473Y-108112426D03*
%TD*%
D11*
%TO.P,S9,1*%
%TO.N,P21*%
X222135379Y-68684921D03*
D12*
%TO.P,S9,2*%
%TO.N,middle_top*%
X233755122Y-70480492D03*
%TD*%
D13*
%TO.P,D7,1*%
%TO.N,P16*%
X223555551Y-118665806D03*
%TO.P,D7,2*%
%TO.N,middle_bottom*%
X223440383Y-115367816D03*
%TD*%
D19*
%TO.P,S2,1*%
%TO.N,P19*%
X181035747Y-118234775D03*
D20*
%TO.P,S2,2*%
%TO.N,pinkie_home*%
X192787703Y-118600873D03*
%TD*%
D21*
%TO.P,PWR1,*%
%TO.N,*%
X297574453Y-85946986D03*
X297192401Y-93236981D03*
X299781424Y-86062648D03*
X299399372Y-93352644D03*
D22*
%TO.P,PWR1,1*%
%TO.N,BAT_P*%
X296852074Y-87311049D03*
%TO.P,PWR1,2*%
%TO.N,RAW*%
X296695066Y-90306937D03*
%TO.P,PWR1,3*%
%TO.N,N/C*%
X296616562Y-91804882D03*
%TD*%
D18*
%TO.P,D2,1*%
%TO.N,P14*%
X182591962Y-130137877D03*
%TO.P,D2,2*%
%TO.N,pinkie_home*%
X182075728Y-126878505D03*
%TD*%
D23*
%TO.P,S18,1*%
%TO.N,P0*%
X282235600Y-142450514D03*
D24*
%TO.P,S18,2*%
%TO.N,3_top*%
X293431395Y-146041707D03*
%TD*%
D13*
%TO.P,D9,1*%
%TO.N,P15*%
X222229370Y-80688954D03*
%TO.P,D9,2*%
%TO.N,middle_top*%
X222114202Y-77390964D03*
%TD*%
D25*
%TO.P,RST1,1*%
%TO.N,GND*%
X284779462Y-80930472D03*
%TO.P,RST1,2*%
%TO.N,RST*%
X284690491Y-82628142D03*
%TO.P,RST1,3*%
%TO.N,GND*%
X290022267Y-81205236D03*
%TO.P,RST1,4*%
%TO.N,RST*%
X289933296Y-82902906D03*
%TD*%
D26*
%TO.P,S13,1*%
%TO.N,P0*%
X266000000Y-120200000D03*
D27*
%TO.P,S13,2*%
%TO.N,far_bottom*%
X277419032Y-123001465D03*
%TD*%
D28*
%TO.P,S5,1*%
%TO.N,P20*%
X201459938Y-99690019D03*
D29*
%TO.P,S5,2*%
%TO.N,ring_home*%
X213157729Y-100874998D03*
%TD*%
D17*
%TO.P,D16,1*%
%TO.N,P10*%
X226993954Y-153936727D03*
%TO.P,D16,2*%
%TO.N,1_top*%
X227396122Y-150661325D03*
%TD*%
%TO.P,D18,1*%
%TO.N,P10*%
X280450591Y-154321461D03*
%TO.P,D18,2*%
%TO.N,3_top*%
X280852759Y-151046059D03*
%TD*%
D19*
%TO.P,S3,1*%
%TO.N,P19*%
X178063492Y-99424645D03*
D20*
%TO.P,S3,2*%
%TO.N,pinkie_top*%
X189815448Y-99790743D03*
%TD*%
D23*
%TO.P,S16,1*%
%TO.N,P21*%
X228778964Y-142065780D03*
D24*
%TO.P,S16,2*%
%TO.N,1_top*%
X239974759Y-145656973D03*
%TD*%
D16*
%TO.P,D13,1*%
%TO.N,P16*%
X265004299Y-132005517D03*
%TO.P,D13,2*%
%TO.N,far_bottom*%
X265177007Y-128710039D03*
%TD*%
D30*
%TO.P,D4,1*%
%TO.N,P16*%
X203838003Y-130600379D03*
%TO.P,D4,2*%
%TO.N,ring_bottom*%
X203550389Y-127312937D03*
%TD*%
D16*
%TO.P,D14,1*%
%TO.N,P14*%
X265998683Y-113031556D03*
%TO.P,D14,2*%
%TO.N,far_home*%
X266171391Y-109736078D03*
%TD*%
D30*
%TO.P,D5,1*%
%TO.N,P14*%
X202182043Y-111672680D03*
%TO.P,D5,2*%
%TO.N,ring_home*%
X201894429Y-108385238D03*
%TD*%
D28*
%TO.P,S6,1*%
%TO.N,P20*%
X199803979Y-80762320D03*
D29*
%TO.P,S6,2*%
%TO.N,ring_top*%
X211501770Y-81947299D03*
%TD*%
D10*
%TO.P,D12,1*%
%TO.N,P15*%
X245266767Y-90772519D03*
%TO.P,D12,2*%
%TO.N,index_top*%
X245324359Y-87473021D03*
%TD*%
D11*
%TO.P,S8,1*%
%TO.N,P21*%
X222798469Y-87673347D03*
D12*
%TO.P,S8,2*%
%TO.N,middle_home*%
X234418212Y-89468918D03*
%TD*%
D10*
%TO.P,D11,1*%
%TO.N,P14*%
X244935171Y-109769625D03*
%TO.P,D11,2*%
%TO.N,index_home*%
X244992763Y-106470127D03*
%TD*%
D19*
%TO.P,S1,1*%
%TO.N,P19*%
X184008002Y-137000853D03*
D20*
%TO.P,S1,2*%
%TO.N,pinkie_bottom*%
X195759958Y-137366951D03*
%TD*%
D28*
%TO.P,S4,1*%
%TO.N,P20*%
X203115897Y-118617718D03*
D29*
%TO.P,S4,2*%
%TO.N,ring_bottom*%
X214813688Y-119802697D03*
%TD*%
D14*
%TO.P,S10,1*%
%TO.N,P1*%
X245137955Y-116774231D03*
D15*
%TO.P,S10,2*%
%TO.N,index_bottom*%
X256647800Y-119175471D03*
%TD*%
D30*
%TO.P,D6,1*%
%TO.N,P15*%
X200526084Y-92744981D03*
%TO.P,D6,2*%
%TO.N,ring_top*%
X200238470Y-89457539D03*
%TD*%
D18*
%TO.P,D1,1*%
%TO.N,P16*%
X185564216Y-148903955D03*
%TO.P,D1,2*%
%TO.N,pinkie_bottom*%
X185047982Y-145644583D03*
%TD*%
D14*
%TO.P,S12,1*%
%TO.N,P1*%
X245801146Y-78780019D03*
D15*
%TO.P,S12,2*%
%TO.N,index_top*%
X257310991Y-81181259D03*
%TD*%
D26*
%TO.P,S15,1*%
%TO.N,P0*%
X267945651Y-82091049D03*
D27*
%TO.P,S15,2*%
%TO.N,far_top*%
X279364683Y-84892514D03*
%TD*%
D26*
%TO.P,S14,1*%
%TO.N,P0*%
X266951268Y-101065011D03*
D27*
%TO.P,S14,2*%
%TO.N,far_home*%
X278370300Y-103866476D03*
%TD*%
D31*
%TO.P,RE1,*%
%TO.N,*%
X221938919Y-129678934D03*
D32*
X233132097Y-129288060D03*
D33*
%TO.P,RE1,A*%
%TO.N,P5*%
X230295731Y-136891679D03*
%TO.P,RE1,B*%
%TO.N,GND*%
X227797254Y-136978928D03*
%TO.P,RE1,C*%
%TO.N,P18*%
X225298777Y-137066177D03*
%TD*%
D23*
%TO.P,S17,1*%
%TO.N,P1*%
X256826159Y-139080009D03*
D24*
%TO.P,S17,2*%
%TO.N,2_top*%
X268021954Y-142671202D03*
%TD*%
D34*
%TO.P,MCU1,1*%
%TO.N,MCU1_1*%
X295411588Y-108014032D03*
D35*
X297528683Y-108124984D03*
D34*
%TO.P,MCU1,2*%
%TO.N,MCU1_2*%
X295278655Y-110550551D03*
D35*
X297395749Y-110661503D03*
D34*
%TO.P,MCU1,3*%
%TO.N,MCU1_3*%
X295145721Y-113087070D03*
D35*
X297262816Y-113198022D03*
D34*
%TO.P,MCU1,4*%
%TO.N,MCU1_4*%
X295012788Y-115623589D03*
D35*
X297129883Y-115734541D03*
D34*
%TO.P,MCU1,5*%
%TO.N,MCU1_5*%
X294879855Y-118160108D03*
D35*
X296996949Y-118271060D03*
D34*
%TO.P,MCU1,6*%
%TO.N,MCU1_6*%
X294746921Y-120696627D03*
D35*
X296864016Y-120807579D03*
D34*
%TO.P,MCU1,7*%
%TO.N,MCU1_7*%
X294613988Y-123233146D03*
D35*
X296731083Y-123344098D03*
D34*
%TO.P,MCU1,8*%
%TO.N,MCU1_8*%
X294481055Y-125769665D03*
D35*
X296598149Y-125880617D03*
D34*
%TO.P,MCU1,9*%
%TO.N,MCU1_9*%
X294348121Y-128306184D03*
D35*
X296465216Y-128417136D03*
D34*
%TO.P,MCU1,10*%
%TO.N,MCU1_10*%
X294215188Y-130842703D03*
D35*
X296332283Y-130953655D03*
D34*
%TO.P,MCU1,11*%
%TO.N,MCU1_11*%
X294082255Y-133379222D03*
D35*
X296199349Y-133490174D03*
D34*
%TO.P,MCU1,12*%
%TO.N,MCU1_12*%
X293949321Y-135915741D03*
D35*
X296066416Y-136026693D03*
%TO.P,MCU1,13*%
%TO.N,MCU1_13*%
X280847302Y-135229093D03*
D36*
X282964397Y-135340045D03*
D35*
%TO.P,MCU1,14*%
%TO.N,MCU1_14*%
X280980235Y-132692574D03*
D36*
X283097330Y-132803526D03*
D35*
%TO.P,MCU1,15*%
%TO.N,MCU1_15*%
X281113169Y-130156055D03*
D36*
X283230263Y-130267007D03*
D35*
%TO.P,MCU1,16*%
%TO.N,MCU1_16*%
X281246102Y-127619536D03*
D36*
X283363197Y-127730488D03*
D35*
%TO.P,MCU1,17*%
%TO.N,MCU1_17*%
X281379035Y-125083017D03*
D36*
X283496130Y-125193969D03*
D35*
%TO.P,MCU1,18*%
%TO.N,MCU1_18*%
X281511969Y-122546498D03*
D36*
X283629063Y-122657450D03*
D35*
%TO.P,MCU1,19*%
%TO.N,MCU1_19*%
X281644902Y-120009979D03*
D36*
X283761997Y-120120931D03*
D35*
%TO.P,MCU1,20*%
%TO.N,MCU1_20*%
X281777835Y-117473460D03*
D36*
X283894930Y-117584412D03*
D35*
%TO.P,MCU1,21*%
%TO.N,MCU1_21*%
X281910769Y-114936941D03*
D36*
X284027863Y-115047893D03*
D35*
%TO.P,MCU1,22*%
%TO.N,MCU1_22*%
X282043702Y-112400422D03*
D36*
X284160797Y-112511374D03*
D35*
%TO.P,MCU1,23*%
%TO.N,MCU1_23*%
X282176635Y-109863903D03*
D36*
X284293730Y-109974855D03*
D35*
%TO.P,MCU1,24*%
%TO.N,MCU1_24*%
X282309569Y-107327384D03*
D36*
X284426663Y-107438336D03*
D37*
%TO.P,MCU1,101*%
%TO.N,RAW*%
X285150670Y-107476280D03*
D38*
X293314466Y-107904126D03*
D37*
%TO.P,MCU1,102*%
%TO.N,GND*%
X285017736Y-110012799D03*
D38*
X293181533Y-110440645D03*
D37*
%TO.P,MCU1,103*%
%TO.N,RST*%
X284884803Y-112549318D03*
D38*
X293048599Y-112977164D03*
D37*
%TO.P,MCU1,104*%
%TO.N,VCC*%
X284751870Y-115085837D03*
D38*
X292915666Y-115513683D03*
D37*
%TO.P,MCU1,105*%
%TO.N,P21*%
X284618936Y-117622356D03*
D38*
X292782733Y-118050202D03*
D37*
%TO.P,MCU1,106*%
%TO.N,P20*%
X284486003Y-120158875D03*
D38*
X292649799Y-120586721D03*
D37*
%TO.P,MCU1,107*%
%TO.N,P19*%
X284353070Y-122695394D03*
D38*
X292516866Y-123123240D03*
D37*
%TO.P,MCU1,108*%
%TO.N,P18*%
X284220136Y-125231913D03*
D38*
X292383933Y-125659759D03*
D37*
%TO.P,MCU1,109*%
%TO.N,P15*%
X284087203Y-127768432D03*
D38*
X292250999Y-128196278D03*
D37*
%TO.P,MCU1,110*%
%TO.N,P14*%
X283954270Y-130304951D03*
D38*
X292118066Y-130732797D03*
D37*
%TO.P,MCU1,111*%
%TO.N,P16*%
X283821336Y-132841470D03*
D38*
X291985133Y-133269316D03*
D37*
%TO.P,MCU1,112*%
%TO.N,P10*%
X283688403Y-135377989D03*
D38*
X291852199Y-135805835D03*
%TO.P,MCU1,113*%
%TO.N,P9*%
X285061519Y-135449951D03*
D39*
X293225315Y-135877797D03*
D38*
%TO.P,MCU1,114*%
%TO.N,P8*%
X285194452Y-132913432D03*
D39*
X293358248Y-133341278D03*
D38*
%TO.P,MCU1,115*%
%TO.N,P7*%
X285327385Y-130376913D03*
D39*
X293491182Y-130804759D03*
D38*
%TO.P,MCU1,116*%
%TO.N,P6*%
X285460319Y-127840394D03*
D39*
X293624115Y-128268240D03*
D38*
%TO.P,MCU1,117*%
%TO.N,P5*%
X285593252Y-125303875D03*
D39*
X293757048Y-125731721D03*
D38*
%TO.P,MCU1,118*%
%TO.N,P4*%
X285726185Y-122767356D03*
D39*
X293889982Y-123195202D03*
D38*
%TO.P,MCU1,119*%
%TO.N,P3*%
X285859119Y-120230837D03*
D39*
X294022915Y-120658683D03*
D38*
%TO.P,MCU1,120*%
%TO.N,P2*%
X285992052Y-117694318D03*
D39*
X294155848Y-118122164D03*
D38*
%TO.P,MCU1,121*%
%TO.N,GND*%
X286124985Y-115157799D03*
D39*
X294288782Y-115585645D03*
D38*
%TO.P,MCU1,122*%
X286257919Y-112621280D03*
D39*
X294421715Y-113049126D03*
D38*
%TO.P,MCU1,123*%
%TO.N,P0*%
X286390852Y-110084761D03*
D39*
X294554648Y-110512607D03*
D38*
%TO.P,MCU1,124*%
%TO.N,P1*%
X286523785Y-107548242D03*
D39*
X294687582Y-107976088D03*
%TD*%
D40*
%TO.P,JST1,1*%
%TO.N,BAT_P*%
X285306825Y-96184979D03*
%TO.P,JST1,2*%
%TO.N,GND*%
X283309566Y-96080307D03*
D41*
%TO.P,JST1,11*%
%TO.N,JST1_1*%
X283456944Y-93268166D03*
%TO.P,JST1,12*%
%TO.N,JST1_2*%
X285454204Y-93372838D03*
D42*
%TO.P,JST1,31*%
%TO.N,JST1_1*%
X283362740Y-95065699D03*
%TO.P,JST1,32*%
%TO.N,JST1_2*%
X285359999Y-95170371D03*
%TD*%
D43*
%TO.N,P19*%
X243000000Y-115000000D03*
X264600000Y-117720008D03*
X245402120Y-114878552D03*
X262200000Y-117400000D03*
X219200000Y-118000000D03*
X221400000Y-118000000D03*
X178608378Y-102909163D03*
X189400000Y-131800000D03*
X181600000Y-121800000D03*
%TO.N,pinkie_bottom*%
X186400000Y-145600000D03*
%TO.N,pinkie_home*%
X183600000Y-126800000D03*
%TO.N,pinkie_top*%
X181200000Y-108200000D03*
%TO.N,P20*%
X219600000Y-116600000D03*
X264600000Y-116000000D03*
X199400000Y-97200000D03*
X245800000Y-113600000D03*
X243000000Y-113600000D03*
X211600000Y-116400000D03*
X221664880Y-116664880D03*
X262292308Y-115907692D03*
X200270856Y-83909383D03*
%TO.N,ring_bottom*%
X205200000Y-127400000D03*
%TO.N,ring_home*%
X203200000Y-108400000D03*
%TO.N,ring_top*%
X202000000Y-89400000D03*
%TO.N,P21*%
X223200000Y-91200000D03*
X224800000Y-109800000D03*
X246200000Y-111800000D03*
X264600000Y-114800000D03*
X222450408Y-71822576D03*
X226400000Y-140000000D03*
X243000000Y-111200000D03*
X262400000Y-114600000D03*
%TO.N,middle_bottom*%
X224800000Y-115400000D03*
%TO.N,middle_home*%
X224200000Y-96200000D03*
%TO.N,middle_top*%
X223800000Y-77200000D03*
%TO.N,P1*%
X246078795Y-81626121D03*
X245235698Y-120020658D03*
X245666582Y-100830004D03*
X255000000Y-136400000D03*
%TO.N,index_bottom*%
X246400000Y-125400000D03*
%TO.N,index_home*%
X247000000Y-106400000D03*
%TO.N,index_top*%
X247000000Y-87400000D03*
%TO.N,P0*%
X268050596Y-85118809D03*
X276144535Y-141489996D03*
X267844120Y-116800000D03*
X274600000Y-99400000D03*
%TO.N,far_bottom*%
X266400000Y-128600000D03*
%TO.N,far_home*%
X267600000Y-109800000D03*
%TO.N,far_top*%
X268600000Y-90800000D03*
%TO.N,1_top*%
X229200000Y-150600000D03*
%TO.N,2_top*%
X257000000Y-147800000D03*
%TO.N,3_top*%
X282800000Y-151200000D03*
%TO.N,P16*%
X266800000Y-134000000D03*
X206800000Y-130600379D03*
X229400000Y-118665806D03*
X187000000Y-147200000D03*
X246200000Y-128766732D03*
%TO.N,P14*%
X205600000Y-111672680D03*
X184800000Y-130200000D03*
X226600000Y-99677380D03*
X266000000Y-114075000D03*
X247600000Y-109769625D03*
%TO.N,P15*%
X181800000Y-111400000D03*
X205261367Y-91461367D03*
X229000000Y-80688954D03*
X267000000Y-95400000D03*
X248400000Y-90772519D03*
%TO.N,P10*%
X258200000Y-150950955D03*
X281800000Y-153000000D03*
X228165340Y-152765340D03*
%TO.N,BAT_P*%
X289800000Y-94400000D03*
%TO.N,RAW*%
X291400000Y-108800000D03*
X291407448Y-106857887D03*
%TO.N,GND*%
X287000000Y-114200000D03*
X288600000Y-111053303D03*
X264517922Y-113535885D03*
X257800000Y-132000000D03*
X259200000Y-116800000D03*
X288604664Y-106710999D03*
X229800000Y-135000000D03*
%TO.N,P5*%
X274000000Y-137600000D03*
X278000000Y-126200000D03*
X232000000Y-138600000D03*
%TO.N,P18*%
X274200000Y-136200000D03*
X227000000Y-135400000D03*
X276875000Y-127400000D03*
%TD*%
D44*
%TO.N,P10*%
X258200000Y-150950955D02*
X255041150Y-150950955D01*
X228165340Y-152765341D02*
X226993954Y-153936727D01*
X228165340Y-152765340D02*
X228165340Y-152765341D01*
%TO.N,P16*%
X246200000Y-128766732D02*
X244603575Y-128766732D01*
X229400000Y-118665806D02*
X223555551Y-118665806D01*
X206800000Y-130600379D02*
X203838003Y-130600379D01*
%TO.N,P14*%
X205600000Y-111672680D02*
X202182043Y-111672680D01*
X226600000Y-99677380D02*
X222892461Y-99677380D01*
X247600000Y-109769625D02*
X244935171Y-109769625D01*
%TO.N,P15*%
X248400000Y-90772519D02*
X245266767Y-90772519D01*
X229000000Y-80688954D02*
X222229370Y-80688954D01*
X203977753Y-92744981D02*
X200526084Y-92744981D01*
X205261367Y-91461367D02*
X203977753Y-92744981D01*
%TO.N,P19*%
X197608855Y-123400000D02*
X204801653Y-123400000D01*
X181087719Y-134080570D02*
X184008002Y-137000853D01*
X284702286Y-122713696D02*
X285388349Y-123475646D01*
X285988136Y-123507079D02*
X286508363Y-123038664D01*
X280336969Y-121373365D02*
X280336969Y-123044986D01*
X184008002Y-137000853D02*
X197608855Y-123400000D01*
X181087719Y-126312281D02*
X181087719Y-134080570D01*
X286508363Y-123038664D02*
X292275144Y-123340888D01*
X280336969Y-123044986D02*
X281013481Y-123721498D01*
X178115464Y-115314492D02*
X181035747Y-118234775D01*
X240129860Y-117870140D02*
X243000000Y-115000000D01*
X262200000Y-117400000D02*
X259078552Y-114878552D01*
X178115464Y-107284536D02*
X178115464Y-115314492D01*
X291918608Y-123721498D02*
X292516866Y-123123240D01*
X221400000Y-118000000D02*
X221529860Y-117870140D01*
X284353070Y-122695394D02*
X284702286Y-122713696D01*
X264600000Y-117720008D02*
X276683612Y-117720008D01*
X221529860Y-117870140D02*
X240129860Y-117870140D01*
X178578885Y-99984089D02*
X178578885Y-106821115D01*
X181551140Y-125848860D02*
X181087719Y-126312281D01*
X285388349Y-123475646D02*
X285988136Y-123507079D01*
X204801653Y-123400000D02*
X210201653Y-118000000D01*
X178063492Y-99468696D02*
X178578885Y-99984089D01*
X181551140Y-118750168D02*
X181551140Y-125848860D01*
X259078552Y-114878552D02*
X245402120Y-114878552D01*
X281013481Y-123721498D02*
X291918608Y-123721498D01*
X178578885Y-106821115D02*
X178115464Y-107284536D01*
X181035747Y-118234775D02*
X181551140Y-118750168D01*
X276683612Y-117720008D02*
X280336969Y-121373365D01*
X210201653Y-118000000D02*
X219200000Y-118000000D01*
%TO.N,pinkie_bottom*%
X195759958Y-141084364D02*
X195759958Y-137366950D01*
X191199739Y-145644583D02*
X195759958Y-141084364D01*
X185047982Y-145644583D02*
X191199739Y-145644583D01*
%TO.N,pinkie_home*%
X192787703Y-122318286D02*
X192787703Y-118600872D01*
X188227484Y-126878505D02*
X192787703Y-122318286D01*
X182075728Y-126878505D02*
X188227484Y-126878505D01*
%TO.N,pinkie_top*%
X185255229Y-108112426D02*
X189815448Y-103552207D01*
X189815448Y-103552207D02*
X189815448Y-99834793D01*
X179103473Y-108112426D02*
X185255229Y-108112426D01*
%TO.N,P20*%
X203115897Y-118617718D02*
X205276332Y-116457283D01*
X200152285Y-81110626D02*
X200152285Y-88051172D01*
X286121069Y-120970560D02*
X286641297Y-120502145D01*
X199276533Y-97506614D02*
X201459938Y-99690019D01*
X275600000Y-116000000D02*
X280784979Y-121184979D01*
X285800000Y-120953734D02*
X286121069Y-120970560D01*
X198058244Y-101255341D02*
X198058244Y-113560065D01*
X199803979Y-80762320D02*
X200152285Y-81110626D01*
X284835219Y-120177177D02*
X285521282Y-120939127D01*
X286641297Y-120502145D02*
X292408078Y-120804369D01*
X285521282Y-120939127D02*
X285800000Y-120953734D01*
X198058244Y-113560065D02*
X203115897Y-118617718D01*
X199623566Y-99690019D02*
X198058244Y-101255341D01*
X239935120Y-116664880D02*
X243000000Y-113600000D01*
X259600000Y-113600000D02*
X245800000Y-113600000D01*
X221664880Y-116664880D02*
X239935120Y-116664880D01*
X205276332Y-116457283D02*
X219457283Y-116457283D01*
X219457283Y-116457283D02*
X219600000Y-116600000D01*
X280784979Y-121184979D02*
X285568755Y-121184979D01*
X285568755Y-121184979D02*
X285800000Y-120953734D01*
X200152285Y-88051172D02*
X199276533Y-88926924D01*
X264600000Y-116000000D02*
X275600000Y-116000000D01*
X284486003Y-120158875D02*
X284835219Y-120177177D01*
X262292308Y-115907692D02*
X259600000Y-113600000D01*
X201459938Y-99690019D02*
X199623566Y-99690019D01*
X199276533Y-88926924D02*
X199276533Y-97506614D01*
%TO.N,ring_bottom*%
X203550389Y-127312937D02*
X210577113Y-127312937D01*
X210577113Y-127312937D02*
X214813688Y-123076362D01*
X214813688Y-123076362D02*
X214813688Y-119802697D01*
X203550389Y-127312937D02*
X205112937Y-127312937D01*
X205112937Y-127312937D02*
X205200000Y-127400000D01*
%TO.N,ring_home*%
X213157729Y-104148663D02*
X213157729Y-100874998D01*
X201894429Y-108385238D02*
X208921154Y-108385238D01*
X208921154Y-108385238D02*
X213157729Y-104148663D01*
%TO.N,ring_top*%
X211501770Y-85220964D02*
X211501770Y-81947299D01*
X207265195Y-89457539D02*
X211501770Y-85220964D01*
X200238470Y-89457539D02*
X207265195Y-89457539D01*
%TO.N,P21*%
X286774230Y-117965626D02*
X292541011Y-118267850D01*
X223026299Y-87901177D02*
X223026299Y-94626639D01*
X222363209Y-75638212D02*
X221000000Y-77001421D01*
X285654215Y-118402608D02*
X286254002Y-118434041D01*
X225450855Y-104672478D02*
X236472478Y-104672478D01*
X264600000Y-114800000D02*
X277442674Y-114800000D01*
X224600000Y-107800213D02*
X224600000Y-112704454D01*
X286254002Y-118434041D02*
X286774230Y-117965626D01*
X223026299Y-94626639D02*
X221836954Y-95815984D01*
X224600000Y-112704454D02*
X220600000Y-116704454D01*
X281442674Y-118800000D02*
X292032935Y-118800000D01*
X222135379Y-68684921D02*
X222363209Y-68912751D01*
X220600000Y-116704454D02*
X220600000Y-133886816D01*
X260139973Y-112000000D02*
X246400000Y-112000000D01*
X221000000Y-77001421D02*
X221000000Y-85874878D01*
X221836954Y-105037167D02*
X223461560Y-106661773D01*
X223461560Y-106661773D02*
X224600000Y-107800213D01*
X284968153Y-117640658D02*
X285654215Y-118402608D01*
X223461560Y-106661773D02*
X225450855Y-104672478D01*
X222798469Y-87673347D02*
X223026299Y-87901177D01*
X236472478Y-104672478D02*
X243000000Y-111200000D01*
X222363209Y-68912751D02*
X222363209Y-75638212D01*
X221000000Y-85874878D02*
X222798469Y-87673347D01*
X292032935Y-118800000D02*
X292782733Y-118050202D01*
X284618937Y-117622356D02*
X284968153Y-117640658D01*
X221836954Y-95815984D02*
X221836954Y-105037167D01*
X220600000Y-133886816D02*
X228778964Y-142065780D01*
X246400000Y-112000000D02*
X246200000Y-111800000D01*
X277442674Y-114800000D02*
X281442674Y-118800000D01*
X262400000Y-114600000D02*
X260139973Y-112000000D01*
%TO.N,middle_bottom*%
X223440383Y-115367816D02*
X231106641Y-115367816D01*
X231106641Y-115367816D02*
X235081303Y-111393154D01*
X235081303Y-111393154D02*
X235081303Y-108457344D01*
%TO.N,middle_home*%
X222777293Y-96379390D02*
X230443550Y-96379390D01*
X230443550Y-96379390D02*
X234418212Y-92404728D01*
X234418212Y-92404728D02*
X234418212Y-89468918D01*
%TO.N,middle_top*%
X233755122Y-73444878D02*
X233755122Y-70480492D01*
X226200000Y-77390964D02*
X229809036Y-77390964D01*
X222114202Y-77390964D02*
X226200000Y-77390964D01*
X229809036Y-77390964D02*
X233755122Y-73444878D01*
%TO.N,P1*%
X244334005Y-86951296D02*
X244334005Y-96641580D01*
X245137955Y-116774231D02*
X245249822Y-116886098D01*
X244334005Y-96641580D02*
X245469550Y-97777125D01*
X245581417Y-97888992D02*
X245581417Y-104369394D01*
X244852637Y-126252637D02*
X256826159Y-138226159D01*
X245249822Y-123366500D02*
X243670813Y-124945509D01*
X286523785Y-106982557D02*
X286523785Y-107548242D01*
X245469550Y-97777125D02*
X245581417Y-97888992D01*
X245249822Y-116886098D02*
X245249822Y-123366500D01*
X244000000Y-115636276D02*
X245137955Y-116774231D01*
X243670813Y-124945509D02*
X243670813Y-125983721D01*
X292521779Y-107642282D02*
X286754998Y-107340057D01*
X276777329Y-79249102D02*
X281600000Y-84071773D01*
X245801146Y-78780019D02*
X247733302Y-80712175D01*
X245913013Y-85372288D02*
X244334005Y-86951296D01*
X245801146Y-78780019D02*
X245913013Y-78891886D01*
X245581417Y-104369394D02*
X244000000Y-105950811D01*
X245913013Y-78891886D02*
X245913013Y-85372288D01*
X281600000Y-102058772D02*
X286523785Y-106982557D01*
X294338366Y-107957787D02*
X293652303Y-107195837D01*
X247733302Y-80712175D02*
X251287825Y-80712175D01*
X252750898Y-79249102D02*
X276777329Y-79249102D01*
X251287825Y-80712175D02*
X252750898Y-79249102D01*
X243939729Y-126252637D02*
X244852637Y-126252637D01*
X293052517Y-107164403D02*
X292521779Y-107642282D01*
X244000000Y-105950811D02*
X244000000Y-115636276D01*
X281600000Y-84071773D02*
X281600000Y-102058772D01*
X293652303Y-107195837D02*
X293052517Y-107164403D01*
X256826159Y-138226159D02*
X256826159Y-139080009D01*
X294687582Y-107976088D02*
X294338366Y-107957787D01*
X243670813Y-125983721D02*
X243939729Y-126252637D01*
%TO.N,index_bottom*%
X256647800Y-119175471D02*
X256647800Y-121770129D01*
X252883461Y-125400000D02*
X252950695Y-125467234D01*
X244661167Y-125467234D02*
X246332766Y-125467234D01*
X246400000Y-125400000D02*
X252883461Y-125400000D01*
X246332766Y-125467234D02*
X246400000Y-125400000D01*
X256647800Y-121770129D02*
X252950695Y-125467234D01*
%TO.N,index_home*%
X253282291Y-106470127D02*
X244992763Y-106470127D01*
X256979395Y-100178365D02*
X256979395Y-102773023D01*
X256979395Y-102773023D02*
X253282291Y-106470127D01*
%TO.N,index_top*%
X257310991Y-81181259D02*
X257310991Y-83775917D01*
X253613887Y-87473021D02*
X245324359Y-87473021D01*
X257310991Y-83775917D02*
X253613887Y-87473021D01*
%TO.N,P0*%
X266951268Y-101065011D02*
X268654868Y-99361411D01*
X276921293Y-99361411D02*
X281001635Y-103441753D01*
X266045337Y-90366522D02*
X266045337Y-100159080D01*
X286390852Y-109789232D02*
X286390852Y-110084761D01*
X292388846Y-110178801D02*
X286622065Y-109876576D01*
X294554649Y-110512607D02*
X294205433Y-110494306D01*
X266951268Y-101065011D02*
X266988493Y-101102236D01*
X294205433Y-110494306D02*
X293519370Y-109732356D01*
X266988493Y-101102236D02*
X266988493Y-107402944D01*
X267844120Y-116800000D02*
X263587500Y-116800000D01*
X263400000Y-119800000D02*
X265956885Y-120038972D01*
X268654868Y-99361411D02*
X276921293Y-99361411D01*
X285290523Y-108688903D02*
X286390852Y-109789232D01*
X281001635Y-103441753D02*
X281001635Y-108000604D01*
X265956885Y-120038972D02*
X266200000Y-120282087D01*
X267982876Y-88428983D02*
X266045337Y-90366522D01*
X266200000Y-120282087D02*
X266200000Y-126000000D01*
X264000000Y-110200000D02*
X263587500Y-116800000D01*
X266988493Y-107402944D02*
X264000000Y-110200000D01*
X276949628Y-142450514D02*
X282235600Y-142450514D01*
X292919583Y-109700922D02*
X292388846Y-110178801D01*
X267982876Y-82128274D02*
X267982876Y-88428983D01*
X293519370Y-109732356D02*
X292919583Y-109700922D01*
X281689934Y-108688903D02*
X285290523Y-108688903D01*
X266200000Y-126000000D02*
X264056570Y-128143430D01*
X264056570Y-129557456D02*
X276949628Y-142450514D01*
X267945651Y-82091049D02*
X267982876Y-82128274D01*
X263587500Y-116800000D02*
X263400000Y-119800000D01*
X266045337Y-100159080D02*
X266951268Y-101065011D01*
X281001635Y-108000604D02*
X281689934Y-108688903D01*
X264056570Y-128143430D02*
X264056570Y-129557456D01*
%TO.N,far_bottom*%
X277375917Y-122840437D02*
X277375917Y-125824083D01*
X277375917Y-125824083D02*
X274489961Y-128710039D01*
X274489961Y-128710039D02*
X265177007Y-128710039D01*
%TO.N,far_home*%
X278370300Y-103866476D02*
X278370300Y-106232332D01*
X278370300Y-106232332D02*
X274866554Y-109736078D01*
X274866554Y-109736078D02*
X266171391Y-109736078D01*
%TO.N,far_top*%
X279364683Y-87258370D02*
X275860936Y-90762117D01*
X275860936Y-90762117D02*
X267165774Y-90762117D01*
X279364683Y-84892514D02*
X279364683Y-87258370D01*
%TO.N,1_top*%
X236876626Y-150661325D02*
X227396122Y-150661325D01*
X239974759Y-147563192D02*
X236876626Y-150661325D01*
X239974759Y-145656973D02*
X239974759Y-147563192D01*
%TO.N,2_top*%
X268021954Y-144577421D02*
X264923822Y-147675553D01*
X264923822Y-147675553D02*
X255443318Y-147675553D01*
X268021954Y-142671202D02*
X268021954Y-144577421D01*
%TO.N,3_top*%
X290333262Y-151046059D02*
X280852759Y-151046059D01*
X293431395Y-147947926D02*
X290333262Y-151046059D01*
X293431395Y-146041707D02*
X293431395Y-147947926D01*
%TO.N,P16*%
X185564216Y-148903955D02*
X185564216Y-148635784D01*
X185564216Y-148635784D02*
X187000000Y-147200000D01*
X285976630Y-133184740D02*
X291743411Y-133486964D01*
X265004299Y-132005517D02*
X265004299Y-132204299D01*
X283821337Y-132841470D02*
X284170553Y-132859772D01*
X284856615Y-133621722D02*
X285456402Y-133653155D01*
X285456402Y-133653155D02*
X285976630Y-133184740D01*
X265004299Y-132204299D02*
X266800000Y-134000000D01*
X284170553Y-132859772D02*
X284856615Y-133621722D01*
%TO.N,P14*%
X182591962Y-130137877D02*
X184737877Y-130137877D01*
X286109564Y-130648221D02*
X291876344Y-130950445D01*
X285589335Y-131116636D02*
X286109564Y-130648221D01*
X283954270Y-130304951D02*
X284303486Y-130323253D01*
X284989549Y-131085203D02*
X285589335Y-131116636D01*
X284303486Y-130323253D02*
X284989549Y-131085203D01*
X265998683Y-113031556D02*
X265998683Y-114073683D01*
X184737877Y-130137877D02*
X184800000Y-130200000D01*
X265998683Y-114073683D02*
X266000000Y-114075000D01*
%TO.N,P15*%
X285122482Y-128548684D02*
X285722269Y-128580117D01*
X286242497Y-128111702D02*
X292009278Y-128413926D01*
X181771798Y-111371798D02*
X181800000Y-111400000D01*
X285722269Y-128580117D02*
X286242497Y-128111702D01*
X266993066Y-95393066D02*
X267000000Y-95400000D01*
X284087203Y-127768432D02*
X284436419Y-127786734D01*
X179619707Y-111371798D02*
X181771798Y-111371798D01*
X266993066Y-94057595D02*
X266993066Y-95393066D01*
X284436419Y-127786734D02*
X285122482Y-128548684D01*
%TO.N,P10*%
X280450591Y-154321461D02*
X280478539Y-154321461D01*
X283688403Y-135377989D02*
X284037619Y-135396291D01*
X284037619Y-135396291D02*
X284723682Y-136158241D01*
X285323469Y-136189674D02*
X285843697Y-135721259D01*
X280478539Y-154321461D02*
X281800000Y-153000000D01*
X285843697Y-135721259D02*
X291610478Y-136023483D01*
X284723682Y-136158241D02*
X285323469Y-136189674D01*
%TO.N,BAT_P*%
X287000000Y-96184979D02*
X287978144Y-96184979D01*
X285306825Y-96184979D02*
X287000000Y-96184979D01*
X287978144Y-96184979D02*
X296852074Y-87311049D01*
%TO.N,RAW*%
X295944036Y-90306937D02*
X291407448Y-94843525D01*
X285499886Y-107494582D02*
X286185949Y-108256532D01*
X286185949Y-108256532D02*
X286785736Y-108287965D01*
X296695066Y-90306937D02*
X295944036Y-90306937D01*
X292418592Y-108800000D02*
X293314466Y-107904126D01*
X291407448Y-94843525D02*
X291407448Y-106857887D01*
X291400000Y-108800000D02*
X292418592Y-108800000D01*
X286785736Y-108287965D02*
X287305963Y-107819550D01*
X285150670Y-107476280D02*
X285499886Y-107494582D01*
X287305963Y-107819550D02*
X293072744Y-108121774D01*
%TO.N,GND*%
X287000000Y-114793836D02*
X287200000Y-114993836D01*
X288600000Y-111053303D02*
X286058240Y-111053303D01*
X257800000Y-132000000D02*
X257800000Y-131400000D01*
X286058240Y-111053303D02*
X285017736Y-110012799D01*
X266475304Y-111038903D02*
X284761097Y-111038903D01*
X293939566Y-115567344D02*
X293253503Y-114805394D01*
X227797254Y-136978928D02*
X227821072Y-136978928D01*
X288604664Y-101375405D02*
X288604664Y-106710999D01*
X292122979Y-115251839D02*
X287200000Y-114993836D01*
X293386437Y-112268875D02*
X292786650Y-112237441D01*
X292786650Y-112237441D02*
X292255912Y-112715320D01*
X290022267Y-81205236D02*
X285054226Y-81205236D01*
X285054226Y-81205236D02*
X284779462Y-80930472D01*
X287000000Y-114200000D02*
X287000000Y-114793836D01*
X287825896Y-111053303D02*
X286257919Y-112621280D01*
X294421715Y-113049126D02*
X294072500Y-113030825D01*
X294072500Y-113030825D02*
X293386437Y-112268875D01*
X286053015Y-110793051D02*
X286652802Y-110824484D01*
X292653717Y-114773960D02*
X292122979Y-115251839D01*
X288600000Y-111053303D02*
X287825896Y-111053303D01*
X257800000Y-131400000D02*
X259200000Y-130000000D01*
X286652802Y-110824484D02*
X287173030Y-110356069D01*
X282260852Y-95031593D02*
X282260852Y-83139148D01*
X287173030Y-110356069D02*
X292939811Y-110658293D01*
X285366952Y-110031101D02*
X286053015Y-110793051D01*
X284469528Y-80930472D02*
X284779462Y-80930472D01*
X259200000Y-130000000D02*
X259200000Y-116800000D01*
X285017736Y-110782264D02*
X285017736Y-110012799D01*
X283309566Y-96080307D02*
X288604664Y-101375405D01*
X282260852Y-83139148D02*
X284469528Y-80930472D01*
X264517922Y-112996285D02*
X266475304Y-111038903D01*
X285017737Y-110012799D02*
X285366952Y-110031101D01*
X283309566Y-96080307D02*
X282260852Y-95031593D01*
X284761097Y-111038903D02*
X285017736Y-110782264D01*
X294288782Y-115585646D02*
X293939566Y-115567344D01*
X292255912Y-112715320D02*
X286489131Y-112413095D01*
X287200000Y-114993836D02*
X286356198Y-114949614D01*
X293253503Y-114805394D02*
X292653717Y-114773960D01*
X227821072Y-136978928D02*
X229800000Y-135000000D01*
X264517922Y-113535885D02*
X264517922Y-112996285D01*
%TO.N,RST*%
X287040097Y-112892588D02*
X292806878Y-113194812D01*
X285234019Y-112567620D02*
X285920082Y-113329570D01*
X298703683Y-113418856D02*
X297749517Y-114373022D01*
X298532700Y-107467300D02*
X298703683Y-107638283D01*
X298912136Y-87327132D02*
X299692605Y-88107601D01*
X298912136Y-85921050D02*
X298912136Y-87327132D01*
X289933296Y-82902906D02*
X295893992Y-82902906D01*
X298703683Y-107638283D02*
X298703683Y-113418856D01*
X284690491Y-82628142D02*
X289658532Y-82628142D01*
X289658532Y-82628142D02*
X289933296Y-82902906D01*
X299692605Y-91307395D02*
X298532700Y-92467300D01*
X293048599Y-113542849D02*
X293048599Y-112977164D01*
X299692605Y-88107601D02*
X299692605Y-91307395D01*
X286519869Y-113361003D02*
X287040097Y-112892588D01*
X295893992Y-82902906D02*
X298912136Y-85921050D01*
X285920082Y-113329570D02*
X286519869Y-113361003D01*
X297749517Y-114373022D02*
X293878772Y-114373022D01*
X284884803Y-112549318D02*
X285234019Y-112567620D01*
X298532700Y-92467300D02*
X298532700Y-107467300D01*
X293878772Y-114373022D02*
X293048599Y-113542849D01*
%TO.N,JST1_1*%
X283362739Y-95065699D02*
X283456944Y-93268166D01*
%TO.N,JST1_2*%
X285359999Y-95170371D02*
X285454203Y-93372838D01*
%TO.N,P5*%
X291591246Y-125397915D02*
X285824465Y-125095690D01*
X277600000Y-126600000D02*
X278000000Y-126200000D01*
X293757049Y-125731721D02*
X293407833Y-125713420D01*
X230295731Y-136895731D02*
X232000000Y-138600000D01*
X277600000Y-134000000D02*
X277600000Y-126600000D01*
X292121983Y-124920036D02*
X291591246Y-125397915D01*
X274000000Y-137600000D02*
X277600000Y-134000000D01*
X292721770Y-124951470D02*
X292121983Y-124920036D01*
X230295731Y-136891679D02*
X230295731Y-136895731D01*
X293407833Y-125713420D02*
X292721770Y-124951470D01*
%TO.N,P18*%
X276875000Y-133725000D02*
X276875000Y-127400000D01*
X274200000Y-136200000D02*
X274400000Y-136200000D01*
X285255415Y-126012165D02*
X285855202Y-126043598D01*
X225333823Y-137066177D02*
X227000000Y-135400000D01*
X274400000Y-136200000D02*
X276875000Y-133725000D01*
X284220137Y-125231913D02*
X284569353Y-125250215D01*
X286375430Y-125575183D02*
X292142211Y-125877407D01*
X284569353Y-125250215D02*
X285255415Y-126012165D01*
X225298777Y-137066177D02*
X225333823Y-137066177D01*
X285855202Y-126043598D02*
X286375430Y-125575183D01*
%TO.N,VCC*%
X285787149Y-115866089D02*
X286386936Y-115897522D01*
X286386936Y-115897522D02*
X286907163Y-115429107D01*
X284751870Y-115085837D02*
X285101086Y-115104139D01*
X286907163Y-115429107D02*
X292673944Y-115731331D01*
X285101086Y-115104139D02*
X285787149Y-115866089D01*
%TO.N,P2*%
X293806633Y-118103863D02*
X293120570Y-117341913D01*
X294155849Y-118122165D02*
X293806633Y-118103863D01*
X293120570Y-117341913D02*
X292520783Y-117310479D01*
X292520783Y-117310479D02*
X291990046Y-117788358D01*
X291990046Y-117788358D02*
X286223265Y-117486133D01*
%TO.N,P3*%
X292387850Y-119846998D02*
X291857112Y-120324877D01*
X292987637Y-119878432D02*
X292387850Y-119846998D01*
X291857112Y-120324877D02*
X286090331Y-120022652D01*
X293673700Y-120640382D02*
X292987637Y-119878432D01*
X294022915Y-120658684D02*
X293673700Y-120640382D01*
%TO.N,P4*%
X292854704Y-122414951D02*
X292254917Y-122383517D01*
X293889982Y-123195203D02*
X293540766Y-123176901D01*
X291724179Y-122861396D02*
X285957398Y-122559171D01*
X293540766Y-123176901D02*
X292854704Y-122414951D01*
X292254917Y-122383517D02*
X291724179Y-122861396D01*
%TO.N,P6*%
X292588837Y-127487989D02*
X291989050Y-127456555D01*
X293274900Y-128249939D02*
X292588837Y-127487989D01*
X293624115Y-128268240D02*
X293274900Y-128249939D01*
X291458312Y-127934434D02*
X285691531Y-127632209D01*
X291989050Y-127456555D02*
X291458312Y-127934434D01*
%TO.N,P7*%
X293141966Y-130786458D02*
X292455904Y-130024508D01*
X293491182Y-130804760D02*
X293141966Y-130786458D01*
X291856117Y-129993074D02*
X291325379Y-130470953D01*
X291325379Y-130470953D02*
X285558598Y-130168728D01*
X292455904Y-130024508D02*
X291856117Y-129993074D01*
%TO.N,P8*%
X292322970Y-132561027D02*
X291723183Y-132529594D01*
X291723183Y-132529594D02*
X291192446Y-133007472D01*
X291192446Y-133007472D02*
X285425665Y-132705248D01*
X293358249Y-133341279D02*
X293009033Y-133322977D01*
X293009033Y-133322977D02*
X292322970Y-132561027D01*
%TO.N,P9*%
X291590250Y-135066113D02*
X291059512Y-135543991D01*
X292190037Y-135097546D02*
X291590250Y-135066113D01*
X293225315Y-135877798D02*
X292876100Y-135859496D01*
X292876100Y-135859496D02*
X292190037Y-135097546D01*
X291059512Y-135543991D02*
X285292731Y-135241767D01*
%TO.N,MCU1_24*%
X282309569Y-107327384D02*
X284426664Y-107438336D01*
%TO.N,MCU1_1*%
X297528683Y-108124984D02*
X295411589Y-108014032D01*
%TO.N,MCU1_23*%
X282176636Y-109863903D02*
X284293730Y-109974855D01*
%TO.N,MCU1_2*%
X297395750Y-110661503D02*
X295278655Y-110550551D01*
%TO.N,MCU1_22*%
X282043702Y-112400422D02*
X284160797Y-112511374D01*
%TO.N,MCU1_3*%
X297262816Y-113198022D02*
X295145722Y-113087070D01*
%TO.N,MCU1_21*%
X281910769Y-114936941D02*
X284027864Y-115047893D01*
%TO.N,MCU1_4*%
X297129883Y-115734541D02*
X295012789Y-115623589D01*
%TO.N,MCU1_20*%
X281777836Y-117473460D02*
X283894930Y-117584412D01*
%TO.N,MCU1_5*%
X296996950Y-118271060D02*
X294879855Y-118160108D01*
%TO.N,MCU1_19*%
X281644902Y-120009979D02*
X283761997Y-120120932D01*
%TO.N,MCU1_6*%
X296864017Y-120807579D02*
X294746922Y-120696627D01*
%TO.N,MCU1_18*%
X281511969Y-122546498D02*
X283629064Y-122657451D01*
%TO.N,MCU1_7*%
X296731083Y-123344098D02*
X294613988Y-123233146D01*
%TO.N,MCU1_17*%
X281379036Y-125083017D02*
X283496130Y-125193970D01*
%TO.N,MCU1_8*%
X296598150Y-125880617D02*
X294481055Y-125769665D01*
%TO.N,MCU1_16*%
X281246102Y-127619536D02*
X283363197Y-127730489D01*
%TO.N,MCU1_9*%
X296465217Y-128417136D02*
X294348122Y-128306184D01*
%TO.N,MCU1_15*%
X281113169Y-130156055D02*
X283230264Y-130267008D01*
%TO.N,MCU1_10*%
X296332283Y-130953655D02*
X294215188Y-130842703D01*
%TO.N,MCU1_14*%
X280980236Y-132692574D02*
X283097330Y-132803527D01*
%TO.N,MCU1_11*%
X296199350Y-133490174D02*
X294082255Y-133379222D01*
%TO.N,MCU1_13*%
X280847302Y-135229093D02*
X282964397Y-135340046D01*
%TO.N,MCU1_12*%
X296066416Y-136026693D02*
X293949322Y-135915741D01*
%TD*%
M02*
