M48
; DRILL file {KiCad 8.0.7} date 2025-02-03T11:28:08-0500
; FORMAT={-:-/ absolute / inch / decimal}
; #@! TF.CreationDate,2025-02-03T11:28:08-05:00
; #@! TF.GenerationSoftware,Kicad,Pcbnew,8.0.7
; #@! TF.FileFunction,Plated,1,2,PTH
FMAT,2
INCH
; #@! TA.AperFunction,Plated,PTH,ViaDrill
T1C0.0157
; #@! TA.AperFunction,Plated,PTH,ComponentDrill
T2C0.0157
; #@! TA.AperFunction,Plated,PTH,ComponentDrill
T3C0.0197
; #@! TA.AperFunction,Plated,PTH,ComponentDrill
T4C0.0295
; #@! TA.AperFunction,Plated,PTH,ComponentDrill
T5C0.0394
; #@! TA.AperFunction,Plated,PTH,ComponentDrill
T6C0.0591
%
G90
G05
T1
X7.0318Y-4.0515
X7.1339Y-4.2598
X7.1496Y-4.7953
X7.1575Y-4.3858
X7.2283Y-4.9921
X7.2756Y-5.126
X7.3386Y-5.7323
X7.3622Y-5.7953
X7.4567Y-5.189
X7.8504Y-3.8268
X7.8847Y-3.3035
X7.9528Y-3.5197
X8.0Y-4.2677
X8.0787Y-5.0157
X8.0812Y-3.6008
X8.0945Y-4.3966
X8.1417Y-5.1417
X8.3307Y-4.5827
X8.6299Y-4.6457
X8.6457Y-4.5906
X8.7165Y-4.6457
X8.727Y-4.5931
X8.7579Y-2.8277
X8.7874Y-3.5906
X8.811Y-3.0394
X8.8268Y-3.7874
X8.8504Y-4.3228
X8.8504Y-4.5433
X8.9134Y-5.5118
X8.9213Y-3.9243
X8.937Y-5.3307
X8.9829Y-6.0144
X9.0157Y-3.1767
X9.0236Y-5.9291
X9.0315Y-4.6719
X9.0472Y-5.315
X9.1339Y-5.4567
X9.5669Y-4.378
X9.5669Y-4.4724
X9.5669Y-4.5276
X9.6549Y-4.7252
X9.6615Y-4.5228
X9.6719Y-3.9697
X9.6772Y-4.4724
X9.6881Y-3.2136
X9.6929Y-4.4016
X9.6929Y-5.0696
X9.7008Y-4.937
X9.7244Y-3.4409
X9.7244Y-4.189
X9.748Y-4.3216
X9.7795Y-3.5737
X10.0394Y-5.3701
X10.1181Y-5.8189
X10.1496Y-5.1969
X10.1654Y-5.943
X10.2047Y-4.5984
X10.3228Y-4.622
X10.3265Y-4.5633
X10.3307Y-4.5118
X10.4141Y-4.4699
X10.4173Y-4.5197
X10.4173Y-4.5669
X10.4173Y-4.6346
X10.4724Y-4.4911
X10.4882Y-5.063
X10.5039Y-5.2756
X10.5118Y-3.7559
X10.5354Y-4.3228
X10.545Y-4.5984
X10.5532Y-3.3511
X10.5748Y-3.5748
X10.7874Y-5.4173
X10.7953Y-5.3622
X10.811Y-3.9134
X10.8718Y-5.5705
X10.9006Y-5.0157
X10.9449Y-4.9685
X11.0945Y-6.0236
X11.1339Y-5.9528
X11.2992Y-4.4961
X11.3622Y-4.3722
X11.3624Y-4.2012
X11.4094Y-3.7165
X11.4724Y-4.2835
X11.4727Y-4.207
T2
X11.2229Y-5.3327
X11.2281Y-5.2328
X11.2334Y-5.1329
X11.2386Y-5.0331
X11.2438Y-4.9332
X11.2491Y-4.8334
X11.2543Y-4.7335
X11.2595Y-4.6336
X11.2648Y-4.5338
X11.27Y-4.4339
X11.2752Y-4.334
X11.2805Y-4.2342
X11.4902Y-5.3467
X11.4955Y-5.2468
X11.5007Y-5.147
X11.5059Y-5.0471
X11.5112Y-4.9472
X11.5164Y-4.8474
X11.5216Y-4.7475
X11.5269Y-4.6476
X11.5321Y-4.5478
X11.5373Y-4.4479
X11.5426Y-4.3481
X11.5478Y-4.2482
T4
X11.1597Y-3.672
X11.2384Y-3.6761
T5
X11.057Y-5.324
X11.0622Y-5.2241
X11.0674Y-5.1243
X11.0727Y-5.0244
X11.0779Y-4.9245
X11.0831Y-4.8247
X11.0884Y-4.7248
X11.0936Y-4.6249
X11.0988Y-4.5251
X11.1041Y-4.4252
X11.1093Y-4.3254
X11.1145Y-4.2255
X11.6562Y-5.3554
X11.6614Y-5.2555
X11.6666Y-5.1557
X11.6719Y-5.0558
X11.6771Y-4.9559
X11.6823Y-4.8561
X11.6876Y-4.7562
X11.6928Y-4.6563
X11.698Y-4.5565
X11.7033Y-4.4566
X11.7085Y-4.3568
X11.7137Y-4.2569
T3
G00X8.8602Y-5.3966
M15
G01X8.8799Y-5.396
M16
G05
G00X8.9586Y-5.3932
M15
G01X8.9782Y-5.3925
M16
G05
G00X9.0569Y-5.3898
M15
G01X9.0766Y-5.3891
M16
G05
T6
G00X8.7372Y-5.0897
M15
G01X8.7383Y-5.1212
M16
G05
G00X9.1779Y-5.0743
M15
G01X9.179Y-5.1058
M16
G05
M30
