%TF.GenerationSoftware,KiCad,Pcbnew,8.0.7*%
%TF.CreationDate,2025-02-03T11:28:03-05:00*%
%TF.ProjectId,thepcb,74686570-6362-42e6-9b69-6361645f7063,v1.0.0*%
%TF.SameCoordinates,Original*%
%TF.FileFunction,Paste,Bot*%
%TF.FilePolarity,Positive*%
%FSLAX46Y46*%
G04 Gerber Fmt 4.6, Leading zero omitted, Abs format (unit mm)*
G04 Created by KiCad (PCBNEW 8.0.7) date 2025-02-03 11:28:03*
%MOMM*%
%LPD*%
G01*
G04 APERTURE LIST*
G04 Aperture macros list*
%AMRotRect*
0 Rectangle, with rotation*
0 The origin of the aperture is its center*
0 $1 length*
0 $2 width*
0 $3 Rotation angle, in degrees counterclockwise*
0 Add horizontal line*
21,1,$1,$2,0,0,$3*%
%AMOutline5P*
0 Free polygon, 5 corners , with rotation*
0 The origin of the aperture is its center*
0 number of corners: always 5*
0 $1 to $10 corner X, Y*
0 $11 Rotation angle, in degrees counterclockwise*
0 create outline with 5 corners*
4,1,5,$1,$2,$3,$4,$5,$6,$7,$8,$9,$10,$1,$2,$11*%
%AMOutline6P*
0 Free polygon, 6 corners , with rotation*
0 The origin of the aperture is its center*
0 number of corners: always 6*
0 $1 to $12 corner X, Y*
0 $13 Rotation angle, in degrees counterclockwise*
0 create outline with 6 corners*
4,1,6,$1,$2,$3,$4,$5,$6,$7,$8,$9,$10,$11,$12,$1,$2,$13*%
%AMOutline7P*
0 Free polygon, 7 corners , with rotation*
0 The origin of the aperture is its center*
0 number of corners: always 7*
0 $1 to $14 corner X, Y*
0 $15 Rotation angle, in degrees counterclockwise*
0 create outline with 7 corners*
4,1,7,$1,$2,$3,$4,$5,$6,$7,$8,$9,$10,$11,$12,$13,$14,$1,$2,$15*%
%AMOutline8P*
0 Free polygon, 8 corners , with rotation*
0 The origin of the aperture is its center*
0 number of corners: always 8*
0 $1 to $16 corner X, Y*
0 $17 Rotation angle, in degrees counterclockwise*
0 create outline with 8 corners*
4,1,8,$1,$2,$3,$4,$5,$6,$7,$8,$9,$10,$11,$12,$13,$14,$15,$16,$1,$2,$17*%
%AMFreePoly0*
4,1,6,0.250000,0.000000,-0.250000,-0.625000,-0.500000,-0.625000,-0.500000,0.625000,-0.250000,0.625000,0.250000,0.000000,0.250000,0.000000,$1*%
%AMFreePoly1*
4,1,6,0.500000,-0.625000,-0.650000,-0.625000,-0.150000,0.000000,-0.650000,0.625000,0.500000,0.625000,0.500000,-0.625000,0.500000,-0.625000,$1*%
%AMFreePoly2*
4,1,6,0.600000,-1.000000,0.000000,-0.400000,-0.600000,-1.000000,-0.600000,0.250000,0.600000,0.250000,0.600000,-1.000000,0.600000,-1.000000,$1*%
%AMFreePoly3*
4,1,6,0.600000,-0.199999,0.600000,-0.400000,-0.600000,-0.400000,-0.600000,-0.200000,0.000000,0.400000,0.600000,-0.199999,0.600000,-0.199999,$1*%
G04 Aperture macros list end*
%ADD10RotRect,0.900000X1.200000X89.000000*%
%ADD11Outline5P,-1.300000X1.300000X1.300000X1.300000X1.300000X-1.300000X0.000000X-1.300000X-1.300000X0.000000X2.000000*%
%ADD12RotRect,2.600000X2.600000X2.000000*%
%ADD13RotRect,0.900000X1.200000X92.000000*%
%ADD14Outline5P,-1.300000X1.300000X1.300000X1.300000X1.300000X-1.300000X0.000000X-1.300000X-1.300000X0.000000X359.000000*%
%ADD15RotRect,2.600000X2.600000X359.000000*%
%ADD16RotRect,0.900000X1.200000X87.000000*%
%ADD17RotRect,0.900000X1.200000X83.000000*%
%ADD18RotRect,0.900000X1.200000X99.000000*%
%ADD19Outline5P,-1.300000X1.300000X1.300000X1.300000X1.300000X-1.300000X0.000000X-1.300000X-1.300000X0.000000X9.000000*%
%ADD20RotRect,2.600000X2.600000X9.000000*%
%ADD21RotRect,1.000000X0.800000X267.000000*%
%ADD22RotRect,0.700000X1.500000X267.000000*%
%ADD23Outline5P,-1.300000X1.300000X1.300000X1.300000X1.300000X-1.300000X0.000000X-1.300000X-1.300000X0.000000X353.000000*%
%ADD24RotRect,2.600000X2.600000X353.000000*%
%ADD25RotRect,1.550000X1.000000X177.000000*%
%ADD26Outline5P,-1.300000X1.300000X1.300000X1.300000X1.300000X-1.300000X0.000000X-1.300000X-1.300000X0.000000X357.000000*%
%ADD27RotRect,2.600000X2.600000X357.000000*%
%ADD28Outline5P,-1.300000X1.300000X1.300000X1.300000X1.300000X-1.300000X0.000000X-1.300000X-1.300000X0.000000X5.000000*%
%ADD29RotRect,2.600000X2.600000X5.000000*%
%ADD30RotRect,0.900000X1.200000X95.000000*%
%ADD31FreePoly0,177.000000*%
%ADD32FreePoly0,357.000000*%
%ADD33FreePoly1,357.000000*%
%ADD34FreePoly1,177.000000*%
%ADD35FreePoly2,177.000000*%
%ADD36FreePoly3,177.000000*%
G04 APERTURE END LIST*
D10*
%TO.C,D10*%
X244603575Y-128766732D03*
X244661167Y-125467234D03*
%TD*%
D11*
%TO.C,S7*%
X223461560Y-106661773D03*
D12*
X235081303Y-108457344D03*
%TD*%
D13*
%TO.C,D8*%
X222892461Y-99677380D03*
X222777293Y-96379390D03*
%TD*%
D14*
%TO.C,S11*%
X245469550Y-97777125D03*
D15*
X256979395Y-100178365D03*
%TD*%
D16*
%TO.C,D15*%
X266993066Y-94057595D03*
X267165774Y-90762117D03*
%TD*%
D17*
%TO.C,D17*%
X255041150Y-150950955D03*
X255443318Y-147675553D03*
%TD*%
D18*
%TO.C,D3*%
X179619707Y-111371798D03*
X179103473Y-108112426D03*
%TD*%
D11*
%TO.C,S9*%
X222135379Y-68684921D03*
D12*
X233755122Y-70480492D03*
%TD*%
D13*
%TO.C,D7*%
X223555551Y-118665806D03*
X223440383Y-115367816D03*
%TD*%
D19*
%TO.C,S2*%
X181035747Y-118234775D03*
D20*
X192787703Y-118600873D03*
%TD*%
D21*
%TO.C,PWR1*%
X297574453Y-85946986D03*
X297192401Y-93236981D03*
X299781424Y-86062648D03*
X299399372Y-93352644D03*
D22*
X296852074Y-87311049D03*
X296695066Y-90306937D03*
X296616562Y-91804882D03*
%TD*%
D18*
%TO.C,D2*%
X182591962Y-130137877D03*
X182075728Y-126878505D03*
%TD*%
D23*
%TO.C,S18*%
X282235600Y-142450514D03*
D24*
X293431395Y-146041707D03*
%TD*%
D13*
%TO.C,D9*%
X222229370Y-80688954D03*
X222114202Y-77390964D03*
%TD*%
D25*
%TO.C,RST1*%
X284779462Y-80930472D03*
X284690491Y-82628142D03*
X290022267Y-81205236D03*
X289933296Y-82902906D03*
%TD*%
D26*
%TO.C,S13*%
X266000000Y-120200000D03*
D27*
X277419032Y-123001465D03*
%TD*%
D28*
%TO.C,S5*%
X201459938Y-99690019D03*
D29*
X213157729Y-100874998D03*
%TD*%
D17*
%TO.C,D16*%
X226993954Y-153936727D03*
X227396122Y-150661325D03*
%TD*%
%TO.C,D18*%
X280450591Y-154321461D03*
X280852759Y-151046059D03*
%TD*%
D19*
%TO.C,S3*%
X178063492Y-99424645D03*
D20*
X189815448Y-99790743D03*
%TD*%
D23*
%TO.C,S16*%
X228778964Y-142065780D03*
D24*
X239974759Y-145656973D03*
%TD*%
D16*
%TO.C,D13*%
X265004299Y-132005517D03*
X265177007Y-128710039D03*
%TD*%
D30*
%TO.C,D4*%
X203838003Y-130600379D03*
X203550389Y-127312937D03*
%TD*%
D16*
%TO.C,D14*%
X265998683Y-113031556D03*
X266171391Y-109736078D03*
%TD*%
D30*
%TO.C,D5*%
X202182043Y-111672680D03*
X201894429Y-108385238D03*
%TD*%
D28*
%TO.C,S6*%
X199803979Y-80762320D03*
D29*
X211501770Y-81947299D03*
%TD*%
D10*
%TO.C,D12*%
X245266767Y-90772519D03*
X245324359Y-87473021D03*
%TD*%
D11*
%TO.C,S8*%
X222798469Y-87673347D03*
D12*
X234418212Y-89468918D03*
%TD*%
D10*
%TO.C,D11*%
X244935171Y-109769625D03*
X244992763Y-106470127D03*
%TD*%
D19*
%TO.C,S1*%
X184008002Y-137000853D03*
D20*
X195759958Y-137366951D03*
%TD*%
D28*
%TO.C,S4*%
X203115897Y-118617718D03*
D29*
X214813688Y-119802697D03*
%TD*%
D14*
%TO.C,S10*%
X245137955Y-116774231D03*
D15*
X256647800Y-119175471D03*
%TD*%
D30*
%TO.C,D6*%
X200526084Y-92744981D03*
X200238470Y-89457539D03*
%TD*%
D18*
%TO.C,D1*%
X185564216Y-148903955D03*
X185047982Y-145644583D03*
%TD*%
D14*
%TO.C,S12*%
X245801146Y-78780019D03*
D15*
X257310991Y-81181259D03*
%TD*%
D26*
%TO.C,S15*%
X267945651Y-82091049D03*
D27*
X279364683Y-84892514D03*
%TD*%
D26*
%TO.C,S14*%
X266951268Y-101065011D03*
D27*
X278370300Y-103866476D03*
%TD*%
D23*
%TO.C,S17*%
X256826159Y-139080009D03*
D24*
X268021954Y-142671202D03*
%TD*%
D31*
%TO.C,MCU1*%
X295411588Y-108014032D03*
X295278655Y-110550551D03*
X295145721Y-113087070D03*
X295012788Y-115623589D03*
X294879855Y-118160108D03*
X294746921Y-120696627D03*
X294613988Y-123233146D03*
X294481055Y-125769665D03*
X294348121Y-128306184D03*
X294215188Y-130842703D03*
X294082255Y-133379222D03*
X293949321Y-135915741D03*
D32*
X282964397Y-135340045D03*
X283097330Y-132803526D03*
X283230263Y-130267007D03*
X283363197Y-127730488D03*
X283496130Y-125193969D03*
X283629063Y-122657450D03*
X283761997Y-120120931D03*
X283894930Y-117584412D03*
X284027863Y-115047893D03*
X284160797Y-112511374D03*
X284293730Y-109974855D03*
X284426663Y-107438336D03*
D33*
X285150670Y-107476280D03*
X285017736Y-110012799D03*
X284884803Y-112549318D03*
X284751870Y-115085837D03*
X284618936Y-117622356D03*
X284486003Y-120158875D03*
X284353070Y-122695394D03*
X284220136Y-125231913D03*
X284087203Y-127768432D03*
X283954270Y-130304951D03*
X283821336Y-132841470D03*
X283688403Y-135377989D03*
D34*
X293225315Y-135877797D03*
X293358248Y-133341278D03*
X293491182Y-130804759D03*
X293624115Y-128268240D03*
X293757048Y-125731721D03*
X293889982Y-123195202D03*
X294022915Y-120658683D03*
X294155848Y-118122164D03*
X294288782Y-115585645D03*
X294421715Y-113049126D03*
X294554648Y-110512607D03*
X294687582Y-107976088D03*
%TD*%
D35*
%TO.C,JST1*%
X285306825Y-96184979D03*
X283309566Y-96080307D03*
D36*
X283362740Y-95065699D03*
X285359999Y-95170371D03*
%TD*%
M02*
