M48
; DRILL file {KiCad 8.0.7} date 2025-02-03T11:28:08-0500
; FORMAT={-:-/ absolute / inch / decimal}
; #@! TF.CreationDate,2025-02-03T11:28:08-05:00
; #@! TF.GenerationSoftware,Kicad,Pcbnew,8.0.7
; #@! TF.FileFunction,NonPlated,1,2,NPTH
FMAT,2
INCH
; #@! TA.AperFunction,NonPlated,NPTH,ComponentDrill
T1C0.0354
; #@! TA.AperFunction,NonPlated,NPTH,ComponentDrill
T2C0.0670
; #@! TA.AperFunction,NonPlated,NPTH,ComponentDrill
T3C0.1181
; #@! TA.AperFunction,NonPlated,NPTH,ComponentDrill
T4C0.1350
; #@! TA.AperFunction,NonPlated,NPTH,ComponentDrill
T5C0.1575
%
G90
G05
T1
X11.7486Y-3.5885
X11.7547Y-3.4706
T2
X6.9605Y-4.1594
X7.0775Y-4.9
X7.1945Y-5.6388
X7.3882Y-4.0917
X7.5053Y-4.8322
X7.6223Y-5.5711
X7.7994Y-3.4206
X7.8646Y-4.1658
X7.9298Y-4.911
X8.2309Y-3.3829
X8.2961Y-4.1281
X8.3613Y-4.8732
X8.6661Y-2.9413
X8.6922Y-3.6889
X8.7183Y-4.4364
X8.8916Y-5.815
X9.0989Y-2.9262
X9.125Y-3.6738
X9.1511Y-4.4213
X9.3214Y-5.8677
X9.5594Y-4.8301
X9.5725Y-4.0822
X9.5855Y-3.3343
X9.9924Y-4.8377
X9.9958Y-5.6974
X10.0055Y-4.0897
X10.0185Y-3.3418
X10.3727Y-4.9616
X10.4102Y-4.2083
X10.4256Y-5.7502
X10.4493Y-3.4613
X10.8052Y-4.9843
X10.8426Y-4.2309
X10.8818Y-3.4839
X10.9961Y-5.8301
X11.426Y-5.8829
T3
X6.9568Y-4.0105
X7.0739Y-4.7511
X7.1377Y-3.8942
X7.1377Y-3.8942
X7.1909Y-5.4899
X7.2547Y-4.6347
X7.2547Y-4.6347
X7.3457Y-3.9489
X7.3718Y-5.3736
X7.3718Y-5.3736
X7.4627Y-4.6895
X7.5797Y-5.4283
X7.8062Y-3.2718
X7.8714Y-4.017
X7.9366Y-4.7622
X7.9947Y-3.1684
X7.9947Y-3.1684
X8.0599Y-3.9136
X8.0599Y-3.9136
X8.1251Y-4.6588
X8.1251Y-4.6588
X8.1984Y-3.2375
X8.2636Y-3.9827
X8.3288Y-4.7279
X8.6806Y-2.7931
X8.7067Y-3.5406
X8.7328Y-4.2882
X8.8743Y-2.6996
X8.8743Y-2.6996
X8.9005Y-3.4472
X8.9005Y-3.4472
X8.9266Y-4.1948
X8.9266Y-4.1948
X8.9291Y-5.6708
X9.0741Y-2.7793
X9.1002Y-3.5269
X9.1263Y-4.2745
X9.135Y-5.6089
X9.135Y-5.6089
X9.3198Y-5.7188
X9.5817Y-4.6828
X9.5947Y-3.9349
X9.6078Y-3.187
X9.78Y-4.5997
X9.78Y-4.5997
X9.7931Y-3.8517
X9.7931Y-3.8517
X9.8061Y-3.1038
X9.8061Y-3.1038
X9.9753Y-4.6897
X9.9884Y-3.9418
X10.0014Y-3.1939
X10.0333Y-5.5533
X10.2392Y-5.4913
X10.2392Y-5.4913
X10.4001Y-4.8152
X10.4241Y-5.6013
X10.4375Y-4.0619
X10.4767Y-3.3149
X10.6012Y-4.739
X10.6012Y-4.739
X10.6387Y-3.9857
X10.6387Y-3.9857
X10.6778Y-3.2387
X10.6778Y-3.2387
X10.7932Y-4.8358
X10.8307Y-4.0825
X10.8698Y-3.3355
X11.0337Y-5.686
X11.2396Y-5.624
X11.2396Y-5.624
X11.4244Y-5.734
T4
X7.1744Y-4.1256
X7.2914Y-4.8661
X7.4084Y-5.6049
X8.0152Y-3.4017
X8.0804Y-4.1469
X8.1456Y-4.8921
X8.8825Y-2.9337
X8.9086Y-3.6813
X8.9347Y-4.4289
X9.1065Y-5.8414
X9.7759Y-4.8339
X9.789Y-4.086
X9.802Y-3.338
X10.2107Y-5.7238
X10.5889Y-4.973
X10.6264Y-4.2196
X10.6655Y-3.4726
X11.2111Y-5.8565
T5
X7.6425Y-4.1887
X9.3625Y-3.7049
X9.6249Y-5.3668
X11.2081Y-3.501
M30
