%TF.GenerationSoftware,KiCad,Pcbnew,8.0.7*%
%TF.CreationDate,2025-02-03T11:28:03-05:00*%
%TF.ProjectId,thepcb,74686570-6362-42e6-9b69-6361645f7063,v1.0.0*%
%TF.SameCoordinates,Original*%
%TF.FileFunction,Soldermask,Top*%
%TF.FilePolarity,Negative*%
%FSLAX46Y46*%
G04 Gerber Fmt 4.6, Leading zero omitted, Abs format (unit mm)*
G04 Created by KiCad (PCBNEW 8.0.7) date 2025-02-03 11:28:03*
%MOMM*%
%LPD*%
G01*
G04 APERTURE LIST*
G04 Aperture macros list*
%AMRoundRect*
0 Rectangle with rounded corners*
0 $1 Rounding radius*
0 $2 $3 $4 $5 $6 $7 $8 $9 X,Y pos of 4 corners*
0 Add a 4 corners polygon primitive as box body*
4,1,4,$2,$3,$4,$5,$6,$7,$8,$9,$2,$3,0*
0 Add four circle primitives for the rounded corners*
1,1,$1+$1,$2,$3*
1,1,$1+$1,$4,$5*
1,1,$1+$1,$6,$7*
1,1,$1+$1,$8,$9*
0 Add four rect primitives between the rounded corners*
20,1,$1+$1,$2,$3,$4,$5,0*
20,1,$1+$1,$4,$5,$6,$7,0*
20,1,$1+$1,$6,$7,$8,$9,0*
20,1,$1+$1,$8,$9,$2,$3,0*%
%AMHorizOval*
0 Thick line with rounded ends*
0 $1 width*
0 $2 $3 position (X,Y) of the first rounded end (center of the circle)*
0 $4 $5 position (X,Y) of the second rounded end (center of the circle)*
0 Add line between two ends*
20,1,$1,$2,$3,$4,$5,0*
0 Add two circle primitives to create the rounded ends*
1,1,$1,$2,$3*
1,1,$1,$4,$5*%
%AMFreePoly0*
4,1,14,1.335355,1.335355,1.350000,1.300000,1.350000,0.000000,1.335355,-0.035355,0.035355,-1.335355,0.000000,-1.350000,-1.300000,-1.350000,-1.335355,-1.335355,-1.350000,-1.300000,-1.350000,1.300000,-1.335355,1.335355,-1.300000,1.350000,1.300000,1.350000,1.335355,1.335355,1.335355,1.335355,$1*%
%AMFreePoly1*
4,1,15,0.975355,0.935355,1.335355,0.575355,1.350000,0.540000,1.350000,-0.900000,1.335355,-0.935355,1.300000,-0.950000,-1.300000,-0.950000,-1.335355,-0.935355,-1.350000,-0.900000,-1.350000,0.540000,-1.335355,0.575355,-0.975355,0.935355,-0.940000,0.950000,0.940000,0.950000,0.975355,0.935355,0.975355,0.935355,$1*%
%AMFreePoly2*
4,1,15,1.335355,0.935355,1.350000,0.900000,1.350000,-0.540000,1.335355,-0.575355,0.975355,-0.935355,0.940000,-0.950000,-0.940000,-0.950000,-0.975355,-0.935355,-1.335355,-0.575355,-1.350000,-0.540000,-1.350000,0.900000,-1.335355,0.935355,-1.300000,0.950000,1.300000,0.950000,1.335355,0.935355,1.335355,0.935355,$1*%
%AMFreePoly3*
4,1,16,-0.214645,0.660355,-0.210957,0.656235,0.289043,0.031235,0.299694,-0.005522,0.289043,-0.031235,-0.210957,-0.656235,-0.244478,-0.674694,-0.250000,-0.675000,-0.500000,-0.675000,-0.535355,-0.660355,-0.550000,-0.625000,-0.550000,0.625000,-0.535355,0.660355,-0.500000,0.675000,-0.250000,0.675000,-0.214645,0.660355,-0.214645,0.660355,$1*%
%AMFreePoly4*
4,1,16,0.535355,0.660355,0.550000,0.625000,0.550000,-0.625000,0.535355,-0.660355,0.500000,-0.675000,-0.650000,-0.675000,-0.685355,-0.660355,-0.700000,-0.625000,-0.689043,-0.593765,-0.214031,0.000000,-0.689043,0.593765,-0.699694,0.630522,-0.681235,0.664043,-0.650000,0.675000,0.500000,0.675000,0.535355,0.660355,0.535355,0.660355,$1*%
%AMFreePoly5*
4,1,16,0.635355,0.285355,0.650000,0.250000,0.650000,-1.000000,0.635355,-1.035355,0.600000,-1.050000,0.564645,-1.035355,0.000000,-0.470710,-0.564645,-1.035355,-0.600000,-1.050000,-0.635355,-1.035355,-0.650000,-1.000000,-0.650000,0.250000,-0.635355,0.285355,-0.600000,0.300000,0.600001,0.300000,0.635355,0.285355,0.635355,0.285355,$1*%
%AMFreePoly6*
4,1,14,0.035355,0.435355,0.635355,-0.164645,0.650000,-0.200000,0.650000,-0.400000,0.635355,-0.435355,0.600000,-0.450000,-0.600000,-0.450000,-0.635355,-0.435355,-0.650000,-0.400000,-0.650000,-0.200000,-0.635355,-0.164645,-0.035355,0.435355,0.000000,0.450000,0.035355,0.435355,0.035355,0.435355,$1*%
G04 Aperture macros list end*
%ADD10C,4.100000*%
%ADD11RoundRect,0.050000X0.592055X-0.460403X0.607762X0.439460X-0.592055X0.460403X-0.607762X-0.439460X0*%
%ADD12C,1.801800*%
%ADD13C,3.100000*%
%ADD14C,3.529000*%
%ADD15FreePoly0,2.000000*%
%ADD16RoundRect,0.050000X-1.253839X-1.344577X1.344577X-1.253839X1.253839X1.344577X-1.344577X1.253839X0*%
%ADD17RoundRect,0.050000X0.615339X-0.428786X0.583930X0.470666X-0.615339X0.428786X-0.583930X-0.470666X0*%
%ADD18FreePoly0,359.000000*%
%ADD19RoundRect,0.050000X-1.322490X-1.277114X1.277114X-1.322490X1.322490X1.277114X-1.277114X1.322490X0*%
%ADD20RoundRect,0.050000X0.575627X-0.480785X0.622729X0.417982X-0.575627X0.480785X-0.622729X-0.417982X0*%
%ADD21RoundRect,0.050000X0.540686X-0.519767X0.650369X0.373524X-0.540686X0.519767X-0.650369X-0.373524X0*%
%ADD22RoundRect,0.050000X0.663009X-0.350599X0.522217X0.538320X-0.663009X0.350599X-0.522217X-0.538320X0*%
%ADD23FreePoly0,9.000000*%
%ADD24RoundRect,0.050000X-1.080630X-1.487360X1.487360X-1.080630X1.080630X1.487360X-1.487360X1.080630X0*%
%ADD25RoundRect,0.050000X0.373284X-0.520249X0.425620X0.478380X-0.373284X0.520249X-0.425620X-0.478380X0*%
%ADD26C,1.000000*%
%ADD27RoundRect,0.050000X0.730655X-0.388772X0.767290X0.310268X-0.730655X0.388772X-0.767290X-0.310268X0*%
%ADD28FreePoly0,353.000000*%
%ADD29RoundRect,0.050000X-1.448740X-1.131880X1.131880X-1.448740X1.448740X1.131880X-1.131880X1.448740X0*%
%ADD30RoundRect,0.050000X0.800106X0.458754X-0.747770X0.539875X-0.800106X-0.458754X0.747770X-0.539875X0*%
%ADD31FreePoly0,357.000000*%
%ADD32RoundRect,0.050000X-1.366255X-1.230182X1.230182X-1.366255X1.366255X1.230182X-1.230182X1.366255X0*%
%ADD33FreePoly0,5.000000*%
%ADD34RoundRect,0.050000X-1.181751X-1.408356X1.408356X-1.181751X1.181751X1.408356X-1.408356X1.181751X0*%
%ADD35RoundRect,0.050000X0.636937X-0.395994X0.558497X0.500581X-0.636937X0.395994X-0.558497X-0.500581X0*%
%ADD36FreePoly1,272.000000*%
%ADD37FreePoly2,272.000000*%
%ADD38HorizOval,1.200000X0.249848X0.008725X-0.249848X-0.008725X0*%
%ADD39FreePoly3,177.000000*%
%ADD40C,1.800000*%
%ADD41FreePoly3,357.000000*%
%ADD42C,0.900000*%
%ADD43FreePoly4,177.000000*%
%ADD44FreePoly4,357.000000*%
%ADD45FreePoly5,177.000000*%
%ADD46HorizOval,1.300000X-0.014392X-0.274623X0.014392X0.274623X0*%
%ADD47FreePoly6,177.000000*%
G04 APERTURE END LIST*
D10*
%TO.C,*%
X237807020Y-94103474D03*
%TD*%
D11*
%TO.C,D10*%
X244603575Y-128766732D03*
X244661167Y-125467234D03*
%TD*%
D12*
%TO.C,S7*%
X221445567Y-112685800D03*
D13*
X221814390Y-108920635D03*
X226734565Y-106547478D03*
X226734565Y-106547478D03*
D14*
X226942217Y-112493853D03*
D13*
X231808298Y-108571640D03*
D12*
X232438867Y-112301906D03*
D15*
X230007570Y-106433182D03*
D16*
X218541385Y-109034931D03*
%TD*%
D17*
%TO.C,D8*%
X222892461Y-99677380D03*
X222777293Y-96379390D03*
%TD*%
D10*
%TO.C,*%
X244471809Y-136315581D03*
%TD*%
D12*
%TO.C,S11*%
X243141047Y-103687387D03*
D13*
X243706417Y-99946684D03*
X248744051Y-97834281D03*
X248744051Y-97834281D03*
D14*
X248640209Y-103783375D03*
D13*
X253704894Y-100121208D03*
D12*
X254139371Y-103879363D03*
D18*
X252018552Y-97891438D03*
D19*
X240431916Y-99889527D03*
%TD*%
D20*
%TO.C,D15*%
X266993066Y-94057595D03*
X267165774Y-90762117D03*
%TD*%
D21*
%TO.C,D17*%
X255041150Y-150950955D03*
X255443318Y-147675553D03*
%TD*%
D22*
%TO.C,D3*%
X179619707Y-111371798D03*
X179103473Y-108112426D03*
%TD*%
D12*
%TO.C,S9*%
X220119386Y-74708948D03*
D13*
X220488209Y-70943783D03*
X225408384Y-68570626D03*
X225408384Y-68570626D03*
D14*
X225616036Y-74517001D03*
D13*
X230482117Y-70594788D03*
D12*
X231112686Y-74325054D03*
D15*
X228681389Y-68456330D03*
D16*
X217215204Y-71058079D03*
%TD*%
D17*
%TO.C,D7*%
X223555551Y-118665806D03*
X223440383Y-115367816D03*
%TD*%
D12*
%TO.C,S2*%
X179768925Y-124459588D03*
D13*
X179676140Y-120677539D03*
X184270426Y-117722452D03*
X184270426Y-117722452D03*
D14*
X185201211Y-123599198D03*
D13*
X189553023Y-119113194D03*
D12*
X190633497Y-122738808D03*
D23*
X187505105Y-117210130D03*
D24*
X176441461Y-121189862D03*
%TD*%
D25*
%TO.C,PWR1*%
X297574453Y-85946986D03*
X297192401Y-93236981D03*
D26*
X298570410Y-88152132D03*
X298413402Y-91148021D03*
D25*
X299781424Y-86062648D03*
X299399372Y-93352644D03*
D27*
X296616562Y-91804882D03*
X296773570Y-88808993D03*
X296852074Y-87311049D03*
%TD*%
D22*
%TO.C,D2*%
X182591962Y-130137877D03*
X182075728Y-126878505D03*
%TD*%
D12*
%TO.C,S18*%
X279302062Y-148085005D03*
D13*
X280255345Y-144423891D03*
X285486189Y-142849636D03*
X285486189Y-142849636D03*
D14*
X284761066Y-148755286D03*
D13*
X290180807Y-145642585D03*
D12*
X290220070Y-149425567D03*
D28*
X288736777Y-143248758D03*
D29*
X277004757Y-144024769D03*
%TD*%
D17*
%TO.C,D9*%
X222229370Y-80688954D03*
X222114202Y-77390964D03*
%TD*%
D30*
%TO.C,RST1*%
X290022267Y-81205236D03*
X289933296Y-82902906D03*
X284779462Y-80930472D03*
X284690491Y-82628142D03*
%TD*%
D10*
%TO.C,*%
X194119249Y-106392263D03*
%TD*%
D12*
%TO.C,S13*%
X263466651Y-126025398D03*
D13*
X264162225Y-122306705D03*
X269270512Y-120371400D03*
X269270512Y-120371400D03*
D14*
X268959113Y-126313246D03*
D13*
X274148521Y-122830065D03*
D12*
X274451575Y-126601094D03*
D31*
X272541024Y-120542801D03*
D32*
X260891713Y-122135305D03*
%TD*%
D12*
%TO.C,S5*%
X199761981Y-105811299D03*
D13*
X199933241Y-102031991D03*
X204722475Y-99404584D03*
X204722475Y-99404584D03*
D14*
X205241052Y-105331942D03*
D13*
X209895191Y-101160433D03*
D12*
X210720123Y-104852585D03*
D33*
X207985013Y-99119148D03*
D34*
X196670707Y-102317426D03*
%TD*%
D21*
%TO.C,D16*%
X226993954Y-153936727D03*
X227396122Y-150661325D03*
%TD*%
%TO.C,D18*%
X280450591Y-154321461D03*
X280852759Y-151046059D03*
%TD*%
D12*
%TO.C,S3*%
X176796670Y-105649458D03*
D13*
X176703885Y-101867409D03*
X181298171Y-98912322D03*
X181298171Y-98912322D03*
D14*
X182228956Y-104789068D03*
D13*
X186580768Y-100303064D03*
D12*
X187661242Y-103928678D03*
D23*
X184532850Y-98400000D03*
D24*
X173469206Y-102379732D03*
%TD*%
D12*
%TO.C,S16*%
X225845426Y-147700271D03*
D13*
X226798709Y-144039157D03*
X232029553Y-142464902D03*
X232029553Y-142464902D03*
D14*
X231304430Y-148370552D03*
D13*
X236724171Y-145257851D03*
D12*
X236763434Y-149040833D03*
D28*
X235280141Y-142864024D03*
D29*
X223548121Y-143640035D03*
%TD*%
D20*
%TO.C,D13*%
X265004299Y-132005517D03*
X265177007Y-128710039D03*
%TD*%
D10*
%TO.C,*%
X284685852Y-88926532D03*
%TD*%
D35*
%TO.C,D4*%
X203838003Y-130600379D03*
X203550389Y-127312937D03*
%TD*%
D20*
%TO.C,D14*%
X265998683Y-113031556D03*
X266171391Y-109736078D03*
%TD*%
D35*
%TO.C,D5*%
X202182043Y-111672680D03*
X201894429Y-108385238D03*
%TD*%
D12*
%TO.C,S6*%
X198106022Y-86883600D03*
D13*
X198277282Y-83104292D03*
X203066516Y-80476885D03*
X203066516Y-80476885D03*
D14*
X203585093Y-86404243D03*
D13*
X208239232Y-82232734D03*
D12*
X209064164Y-85924886D03*
D33*
X206329054Y-80191449D03*
D34*
X195014748Y-83389727D03*
%TD*%
D11*
%TO.C,D12*%
X245266767Y-90772519D03*
X245324359Y-87473021D03*
%TD*%
D12*
%TO.C,S8*%
X220782476Y-93697374D03*
D13*
X221151299Y-89932209D03*
X226071474Y-87559052D03*
X226071474Y-87559052D03*
D14*
X226279126Y-93505427D03*
D13*
X231145207Y-89583214D03*
D12*
X231775776Y-93313480D03*
D15*
X229344479Y-87444756D03*
D16*
X217878294Y-90046505D03*
%TD*%
D11*
%TO.C,D11*%
X244935171Y-109769625D03*
X244992763Y-106470127D03*
%TD*%
D12*
%TO.C,S1*%
X182741180Y-143225666D03*
D13*
X182648395Y-139443617D03*
X187242681Y-136488530D03*
X187242681Y-136488530D03*
D14*
X188173466Y-142365276D03*
D13*
X192525278Y-137879272D03*
D12*
X193605752Y-141504886D03*
D23*
X190477360Y-135976208D03*
D24*
X179413716Y-139955940D03*
%TD*%
D12*
%TO.C,S4*%
X201417940Y-124738998D03*
D13*
X201589200Y-120959690D03*
X206378434Y-118332283D03*
X206378434Y-118332283D03*
D14*
X206897011Y-124259641D03*
D13*
X211551150Y-120088132D03*
D12*
X212376082Y-123780284D03*
D33*
X209640972Y-118046847D03*
D34*
X198326666Y-121245125D03*
%TD*%
D12*
%TO.C,S10*%
X242809452Y-122684493D03*
D13*
X243374822Y-118943790D03*
X248412456Y-116831387D03*
X248412456Y-116831387D03*
D14*
X248308614Y-122780481D03*
D13*
X253373299Y-119118314D03*
D12*
X253807776Y-122876469D03*
D18*
X251686957Y-116888544D03*
D19*
X240100321Y-118886633D03*
%TD*%
D35*
%TO.C,D6*%
X200526084Y-92744981D03*
X200238470Y-89457539D03*
%TD*%
D22*
%TO.C,D1*%
X185564216Y-148903955D03*
X185047982Y-145644583D03*
%TD*%
D12*
%TO.C,S12*%
X243472643Y-84690281D03*
D13*
X244038013Y-80949578D03*
X249075647Y-78837175D03*
X249075647Y-78837175D03*
D14*
X248971805Y-84786269D03*
D13*
X254036490Y-81124102D03*
D12*
X254470967Y-84882257D03*
D18*
X252350148Y-78894332D03*
D19*
X240763512Y-80892421D03*
%TD*%
D12*
%TO.C,S15*%
X265412302Y-87916447D03*
D13*
X266107876Y-84197754D03*
X271216163Y-82262449D03*
X271216163Y-82262449D03*
D14*
X270904764Y-88204295D03*
D13*
X276094172Y-84721114D03*
D12*
X276397226Y-88492143D03*
D31*
X274486675Y-82433850D03*
D32*
X262837364Y-84026354D03*
%TD*%
D12*
%TO.C,S14*%
X264417919Y-106890409D03*
D13*
X265113493Y-103171716D03*
X270221780Y-101236411D03*
X270221780Y-101236411D03*
D14*
X269910381Y-107178257D03*
D13*
X275099789Y-103695076D03*
D12*
X275402843Y-107466105D03*
D31*
X273492292Y-101407812D03*
D32*
X261842981Y-103000316D03*
%TD*%
D36*
%TO.C,RE1*%
X221938919Y-129678934D03*
D37*
X233132097Y-129288060D03*
D38*
X230295731Y-136891679D03*
X227797254Y-136978928D03*
X225298777Y-137066177D03*
%TD*%
D12*
%TO.C,S17*%
X253892621Y-144714500D03*
D13*
X254845904Y-141053386D03*
X260076748Y-139479131D03*
X260076748Y-139479131D03*
D14*
X259351625Y-145384781D03*
D13*
X264771366Y-142272080D03*
D12*
X264810629Y-146055062D03*
D28*
X263327336Y-139878253D03*
D29*
X251595316Y-140654264D03*
%TD*%
D39*
%TO.C,MCU1*%
X295411588Y-108014032D03*
D40*
X297528683Y-108124984D03*
D39*
X295278655Y-110550551D03*
D40*
X297395749Y-110661503D03*
D39*
X295145721Y-113087070D03*
D40*
X297262816Y-113198022D03*
D39*
X295012788Y-115623589D03*
D40*
X297129883Y-115734541D03*
D39*
X294879855Y-118160108D03*
D40*
X296996949Y-118271060D03*
D39*
X294746921Y-120696627D03*
D40*
X296864016Y-120807579D03*
D39*
X294613988Y-123233146D03*
D40*
X296731083Y-123344098D03*
D39*
X294481055Y-125769665D03*
D40*
X296598149Y-125880617D03*
D39*
X294348121Y-128306184D03*
D40*
X296465216Y-128417136D03*
D39*
X294215188Y-130842703D03*
D40*
X296332283Y-130953655D03*
D39*
X294082255Y-133379222D03*
D40*
X296199349Y-133490174D03*
D39*
X293949321Y-135915741D03*
D40*
X296066416Y-136026693D03*
X280847302Y-135229093D03*
D41*
X282964397Y-135340045D03*
D40*
X280980235Y-132692574D03*
D41*
X283097330Y-132803526D03*
D40*
X281113169Y-130156055D03*
D41*
X283230263Y-130267007D03*
D40*
X281246102Y-127619536D03*
D41*
X283363197Y-127730488D03*
D40*
X281379035Y-125083017D03*
D41*
X283496130Y-125193969D03*
D40*
X281511969Y-122546498D03*
D41*
X283629063Y-122657450D03*
D40*
X281644902Y-120009979D03*
D41*
X283761997Y-120120931D03*
D40*
X281777835Y-117473460D03*
D41*
X283894930Y-117584412D03*
D40*
X281910769Y-114936941D03*
D41*
X284027863Y-115047893D03*
D40*
X282043702Y-112400422D03*
D41*
X284160797Y-112511374D03*
D40*
X282176635Y-109863903D03*
D41*
X284293730Y-109974855D03*
D40*
X282309569Y-107327384D03*
D41*
X284426663Y-107438336D03*
D42*
X293314466Y-107904126D03*
D43*
X294687582Y-107976088D03*
D42*
X293181533Y-110440645D03*
D43*
X294554648Y-110512607D03*
D42*
X293048599Y-112977164D03*
D43*
X294421715Y-113049126D03*
D42*
X292915666Y-115513683D03*
D43*
X294288782Y-115585645D03*
D42*
X292782733Y-118050202D03*
D43*
X294155848Y-118122164D03*
D42*
X292649799Y-120586721D03*
D43*
X294022915Y-120658683D03*
D42*
X292516866Y-123123240D03*
D43*
X293889982Y-123195202D03*
D42*
X292383933Y-125659759D03*
D43*
X293757048Y-125731721D03*
D42*
X292250999Y-128196278D03*
D43*
X293624115Y-128268240D03*
D42*
X292118066Y-130732797D03*
D43*
X293491182Y-130804759D03*
D42*
X291985133Y-133269316D03*
D43*
X293358248Y-133341278D03*
D42*
X291852199Y-135805835D03*
D43*
X293225315Y-135877797D03*
D44*
X283688403Y-135377989D03*
D42*
X285061519Y-135449951D03*
D44*
X283821336Y-132841470D03*
D42*
X285194452Y-132913432D03*
D44*
X283954270Y-130304951D03*
D42*
X285327385Y-130376913D03*
D44*
X284087203Y-127768432D03*
D42*
X285460319Y-127840394D03*
D44*
X284220136Y-125231913D03*
D42*
X285593252Y-125303875D03*
D44*
X284353070Y-122695394D03*
D42*
X285726185Y-122767356D03*
D44*
X284486003Y-120158875D03*
D42*
X285859119Y-120230837D03*
D44*
X284618936Y-117622356D03*
D42*
X285992052Y-117694318D03*
D44*
X284751870Y-115085837D03*
D42*
X286124985Y-115157799D03*
D44*
X284884803Y-112549318D03*
D42*
X286257919Y-112621280D03*
D44*
X285017736Y-110012799D03*
D42*
X286390852Y-110084761D03*
D44*
X285150670Y-107476280D03*
D42*
X286523785Y-107548242D03*
%TD*%
D45*
%TO.C,JST1*%
X283309566Y-96080307D03*
X285306825Y-96184979D03*
D46*
X283456944Y-93268166D03*
X285454204Y-93372838D03*
D47*
X283362740Y-95065699D03*
X285359999Y-95170371D03*
%TD*%
M02*
