%TF.GenerationSoftware,KiCad,Pcbnew,8.0.7*%
%TF.CreationDate,2025-02-03T11:28:03-05:00*%
%TF.ProjectId,thepcb,74686570-6362-42e6-9b69-6361645f7063,v1.0.0*%
%TF.SameCoordinates,Original*%
%TF.FileFunction,Copper,L1,Top*%
%TF.FilePolarity,Positive*%
%FSLAX46Y46*%
G04 Gerber Fmt 4.6, Leading zero omitted, Abs format (unit mm)*
G04 Created by KiCad (PCBNEW 8.0.7) date 2025-02-03 11:28:03*
%MOMM*%
%LPD*%
G01*
G04 APERTURE LIST*
G04 Aperture macros list*
%AMHorizOval*
0 Thick line with rounded ends*
0 $1 width*
0 $2 $3 position (X,Y) of the first rounded end (center of the circle)*
0 $4 $5 position (X,Y) of the second rounded end (center of the circle)*
0 Add line between two ends*
20,1,$1,$2,$3,$4,$5,0*
0 Add two circle primitives to create the rounded ends*
1,1,$1,$2,$3*
1,1,$1,$4,$5*%
%AMRotRect*
0 Rectangle, with rotation*
0 The origin of the aperture is its center*
0 $1 length*
0 $2 width*
0 $3 Rotation angle, in degrees counterclockwise*
0 Add horizontal line*
21,1,$1,$2,0,0,$3*%
%AMOutline5P*
0 Free polygon, 5 corners , with rotation*
0 The origin of the aperture is its center*
0 number of corners: always 5*
0 $1 to $10 corner X, Y*
0 $11 Rotation angle, in degrees counterclockwise*
0 create outline with 5 corners*
4,1,5,$1,$2,$3,$4,$5,$6,$7,$8,$9,$10,$1,$2,$11*%
%AMOutline6P*
0 Free polygon, 6 corners , with rotation*
0 The origin of the aperture is its center*
0 number of corners: always 6*
0 $1 to $12 corner X, Y*
0 $13 Rotation angle, in degrees counterclockwise*
0 create outline with 6 corners*
4,1,6,$1,$2,$3,$4,$5,$6,$7,$8,$9,$10,$11,$12,$1,$2,$13*%
%AMOutline7P*
0 Free polygon, 7 corners , with rotation*
0 The origin of the aperture is its center*
0 number of corners: always 7*
0 $1 to $14 corner X, Y*
0 $15 Rotation angle, in degrees counterclockwise*
0 create outline with 7 corners*
4,1,7,$1,$2,$3,$4,$5,$6,$7,$8,$9,$10,$11,$12,$13,$14,$1,$2,$15*%
%AMOutline8P*
0 Free polygon, 8 corners , with rotation*
0 The origin of the aperture is its center*
0 number of corners: always 8*
0 $1 to $16 corner X, Y*
0 $17 Rotation angle, in degrees counterclockwise*
0 create outline with 8 corners*
4,1,8,$1,$2,$3,$4,$5,$6,$7,$8,$9,$10,$11,$12,$13,$14,$15,$16,$1,$2,$17*%
%AMFreePoly0*
4,1,6,0.250000,0.000000,-0.250000,-0.625000,-0.500000,-0.625000,-0.500000,0.625000,-0.250000,0.625000,0.250000,0.000000,0.250000,0.000000,$1*%
%AMFreePoly1*
4,1,6,0.500000,-0.625000,-0.650000,-0.625000,-0.150000,0.000000,-0.650000,0.625000,0.500000,0.625000,0.500000,-0.625000,0.500000,-0.625000,$1*%
%AMFreePoly2*
4,1,6,0.600000,-1.000000,0.000000,-0.400000,-0.600000,-1.000000,-0.600000,0.250000,0.600000,0.250000,0.600000,-1.000000,0.600000,-1.000000,$1*%
%AMFreePoly3*
4,1,6,0.600000,-0.199999,0.600000,-0.400000,-0.600000,-0.400000,-0.600000,-0.200000,0.000000,0.400000,0.600000,-0.199999,0.600000,-0.199999,$1*%
G04 Aperture macros list end*
%TA.AperFunction,SMDPad,CuDef*%
%ADD10RotRect,0.900000X1.200000X89.000000*%
%TD*%
%TA.AperFunction,SMDPad,CuDef*%
%ADD11Outline5P,-1.300000X1.300000X1.300000X1.300000X1.300000X0.000000X0.000000X-1.300000X-1.300000X-1.300000X2.000000*%
%TD*%
%TA.AperFunction,SMDPad,CuDef*%
%ADD12RotRect,2.600000X2.600000X2.000000*%
%TD*%
%TA.AperFunction,SMDPad,CuDef*%
%ADD13RotRect,0.900000X1.200000X92.000000*%
%TD*%
%TA.AperFunction,SMDPad,CuDef*%
%ADD14Outline5P,-1.300000X1.300000X1.300000X1.300000X1.300000X0.000000X0.000000X-1.300000X-1.300000X-1.300000X359.000000*%
%TD*%
%TA.AperFunction,SMDPad,CuDef*%
%ADD15RotRect,2.600000X2.600000X359.000000*%
%TD*%
%TA.AperFunction,SMDPad,CuDef*%
%ADD16RotRect,0.900000X1.200000X87.000000*%
%TD*%
%TA.AperFunction,SMDPad,CuDef*%
%ADD17RotRect,0.900000X1.200000X83.000000*%
%TD*%
%TA.AperFunction,SMDPad,CuDef*%
%ADD18RotRect,0.900000X1.200000X99.000000*%
%TD*%
%TA.AperFunction,SMDPad,CuDef*%
%ADD19Outline5P,-1.300000X1.300000X1.300000X1.300000X1.300000X0.000000X0.000000X-1.300000X-1.300000X-1.300000X9.000000*%
%TD*%
%TA.AperFunction,SMDPad,CuDef*%
%ADD20RotRect,2.600000X2.600000X9.000000*%
%TD*%
%TA.AperFunction,SMDPad,CuDef*%
%ADD21RotRect,1.000000X0.800000X87.000000*%
%TD*%
%TA.AperFunction,SMDPad,CuDef*%
%ADD22RotRect,0.700000X1.500000X87.000000*%
%TD*%
%TA.AperFunction,SMDPad,CuDef*%
%ADD23Outline5P,-1.300000X1.300000X1.300000X1.300000X1.300000X0.000000X0.000000X-1.300000X-1.300000X-1.300000X353.000000*%
%TD*%
%TA.AperFunction,SMDPad,CuDef*%
%ADD24RotRect,2.600000X2.600000X353.000000*%
%TD*%
%TA.AperFunction,SMDPad,CuDef*%
%ADD25RotRect,1.550000X1.000000X177.000000*%
%TD*%
%TA.AperFunction,SMDPad,CuDef*%
%ADD26Outline5P,-1.300000X1.300000X1.300000X1.300000X1.300000X0.000000X0.000000X-1.300000X-1.300000X-1.300000X357.000000*%
%TD*%
%TA.AperFunction,SMDPad,CuDef*%
%ADD27RotRect,2.600000X2.600000X357.000000*%
%TD*%
%TA.AperFunction,SMDPad,CuDef*%
%ADD28Outline5P,-1.300000X1.300000X1.300000X1.300000X1.300000X0.000000X0.000000X-1.300000X-1.300000X-1.300000X5.000000*%
%TD*%
%TA.AperFunction,SMDPad,CuDef*%
%ADD29RotRect,2.600000X2.600000X5.000000*%
%TD*%
%TA.AperFunction,SMDPad,CuDef*%
%ADD30RotRect,0.900000X1.200000X95.000000*%
%TD*%
%TA.AperFunction,ComponentPad*%
%ADD31Outline6P,-1.300000X0.540000X-0.940000X0.900000X0.940000X0.900000X1.300000X0.540000X1.300000X-0.900000X-1.300000X-0.900000X272.000000*%
%TD*%
%TA.AperFunction,ComponentPad*%
%ADD32Outline6P,-1.300000X0.900000X1.300000X0.900000X1.300000X-0.540000X0.940000X-0.900000X-0.940000X-0.900000X-1.300000X-0.540000X272.000000*%
%TD*%
%TA.AperFunction,ComponentPad*%
%ADD33HorizOval,1.100000X0.249848X0.008725X-0.249848X-0.008725X0*%
%TD*%
%TA.AperFunction,SMDPad,CuDef*%
%ADD34FreePoly0,177.000000*%
%TD*%
%TA.AperFunction,ComponentPad*%
%ADD35C,1.700000*%
%TD*%
%TA.AperFunction,SMDPad,CuDef*%
%ADD36FreePoly0,357.000000*%
%TD*%
%TA.AperFunction,ComponentPad*%
%ADD37C,0.800000*%
%TD*%
%TA.AperFunction,SMDPad,CuDef*%
%ADD38FreePoly1,177.000000*%
%TD*%
%TA.AperFunction,SMDPad,CuDef*%
%ADD39FreePoly1,357.000000*%
%TD*%
%TA.AperFunction,SMDPad,CuDef*%
%ADD40FreePoly2,177.000000*%
%TD*%
%TA.AperFunction,ComponentPad*%
%ADD41HorizOval,1.200000X-0.014392X-0.274623X0.014392X0.274623X0*%
%TD*%
%TA.AperFunction,SMDPad,CuDef*%
%ADD42FreePoly3,177.000000*%
%TD*%
%TA.AperFunction,ViaPad*%
%ADD43C,0.800000*%
%TD*%
%TA.AperFunction,Conductor*%
%ADD44C,0.250000*%
%TD*%
G04 APERTURE END LIST*
D10*
%TO.P,D10,1*%
%TO.N,P16*%
X244603575Y-128766732D03*
%TO.P,D10,2*%
%TO.N,index_bottom*%
X244661167Y-125467234D03*
%TD*%
D11*
%TO.P,S7,1*%
%TO.N,P21*%
X230007570Y-106433182D03*
D12*
%TO.P,S7,2*%
%TO.N,middle_bottom*%
X218541385Y-109034931D03*
%TD*%
D13*
%TO.P,D8,1*%
%TO.N,P14*%
X222892461Y-99677380D03*
%TO.P,D8,2*%
%TO.N,middle_home*%
X222777293Y-96379390D03*
%TD*%
D14*
%TO.P,S11,1*%
%TO.N,P1*%
X252018552Y-97891438D03*
D15*
%TO.P,S11,2*%
%TO.N,index_home*%
X240431916Y-99889527D03*
%TD*%
D16*
%TO.P,D15,1*%
%TO.N,P15*%
X266993066Y-94057595D03*
%TO.P,D15,2*%
%TO.N,far_top*%
X267165774Y-90762117D03*
%TD*%
D17*
%TO.P,D17,1*%
%TO.N,P10*%
X255041150Y-150950955D03*
%TO.P,D17,2*%
%TO.N,2_top*%
X255443318Y-147675553D03*
%TD*%
D18*
%TO.P,D3,1*%
%TO.N,P15*%
X179619707Y-111371798D03*
%TO.P,D3,2*%
%TO.N,pinkie_top*%
X179103473Y-108112426D03*
%TD*%
D11*
%TO.P,S9,1*%
%TO.N,P21*%
X228681389Y-68456330D03*
D12*
%TO.P,S9,2*%
%TO.N,middle_top*%
X217215204Y-71058079D03*
%TD*%
D13*
%TO.P,D7,1*%
%TO.N,P16*%
X223555551Y-118665806D03*
%TO.P,D7,2*%
%TO.N,middle_bottom*%
X223440383Y-115367816D03*
%TD*%
D19*
%TO.P,S2,1*%
%TO.N,P19*%
X187505105Y-117210130D03*
D20*
%TO.P,S2,2*%
%TO.N,pinkie_home*%
X176441461Y-121189862D03*
%TD*%
D21*
%TO.P,PWR1,*%
%TO.N,*%
X297574453Y-85946986D03*
X297192401Y-93236981D03*
X299781424Y-86062648D03*
X299399372Y-93352644D03*
D22*
%TO.P,PWR1,1*%
%TO.N,N/C*%
X296616562Y-91804882D03*
%TO.P,PWR1,2*%
%TO.N,RAW*%
X296773570Y-88808993D03*
%TO.P,PWR1,3*%
%TO.N,BAT_P*%
X296852074Y-87311049D03*
%TD*%
D18*
%TO.P,D2,1*%
%TO.N,P14*%
X182591962Y-130137877D03*
%TO.P,D2,2*%
%TO.N,pinkie_home*%
X182075728Y-126878505D03*
%TD*%
D23*
%TO.P,S18,1*%
%TO.N,P0*%
X288736777Y-143248758D03*
D24*
%TO.P,S18,2*%
%TO.N,3_top*%
X277004757Y-144024769D03*
%TD*%
D13*
%TO.P,D9,1*%
%TO.N,P15*%
X222229370Y-80688954D03*
%TO.P,D9,2*%
%TO.N,middle_top*%
X222114202Y-77390964D03*
%TD*%
D25*
%TO.P,RST1,1*%
%TO.N,GND*%
X290022267Y-81205236D03*
%TO.P,RST1,2*%
%TO.N,RST*%
X289933296Y-82902906D03*
%TO.P,RST1,3*%
%TO.N,GND*%
X284779462Y-80930472D03*
%TO.P,RST1,4*%
%TO.N,RST*%
X284690491Y-82628142D03*
%TD*%
D26*
%TO.P,S13,1*%
%TO.N,P0*%
X272541024Y-120542801D03*
D27*
%TO.P,S13,2*%
%TO.N,far_bottom*%
X260891713Y-122135305D03*
%TD*%
D28*
%TO.P,S5,1*%
%TO.N,P20*%
X207985013Y-99119148D03*
D29*
%TO.P,S5,2*%
%TO.N,ring_home*%
X196670707Y-102317426D03*
%TD*%
D17*
%TO.P,D16,1*%
%TO.N,P10*%
X226993954Y-153936727D03*
%TO.P,D16,2*%
%TO.N,1_top*%
X227396122Y-150661325D03*
%TD*%
%TO.P,D18,1*%
%TO.N,P10*%
X280450591Y-154321461D03*
%TO.P,D18,2*%
%TO.N,3_top*%
X280852759Y-151046059D03*
%TD*%
D19*
%TO.P,S3,1*%
%TO.N,P19*%
X184532850Y-98400000D03*
D20*
%TO.P,S3,2*%
%TO.N,pinkie_top*%
X173469206Y-102379732D03*
%TD*%
D23*
%TO.P,S16,1*%
%TO.N,P21*%
X235280141Y-142864024D03*
D24*
%TO.P,S16,2*%
%TO.N,1_top*%
X223548121Y-143640035D03*
%TD*%
D16*
%TO.P,D13,1*%
%TO.N,P16*%
X265004299Y-132005517D03*
%TO.P,D13,2*%
%TO.N,far_bottom*%
X265177007Y-128710039D03*
%TD*%
D30*
%TO.P,D4,1*%
%TO.N,P16*%
X203838003Y-130600379D03*
%TO.P,D4,2*%
%TO.N,ring_bottom*%
X203550389Y-127312937D03*
%TD*%
D16*
%TO.P,D14,1*%
%TO.N,P14*%
X265998683Y-113031556D03*
%TO.P,D14,2*%
%TO.N,far_home*%
X266171391Y-109736078D03*
%TD*%
D30*
%TO.P,D5,1*%
%TO.N,P14*%
X202182043Y-111672680D03*
%TO.P,D5,2*%
%TO.N,ring_home*%
X201894429Y-108385238D03*
%TD*%
D28*
%TO.P,S6,1*%
%TO.N,P20*%
X206329054Y-80191449D03*
D29*
%TO.P,S6,2*%
%TO.N,ring_top*%
X195014748Y-83389727D03*
%TD*%
D10*
%TO.P,D12,1*%
%TO.N,P15*%
X245266767Y-90772519D03*
%TO.P,D12,2*%
%TO.N,index_top*%
X245324359Y-87473021D03*
%TD*%
D11*
%TO.P,S8,1*%
%TO.N,P21*%
X229344479Y-87444756D03*
D12*
%TO.P,S8,2*%
%TO.N,middle_home*%
X217878294Y-90046505D03*
%TD*%
D10*
%TO.P,D11,1*%
%TO.N,P14*%
X244935171Y-109769625D03*
%TO.P,D11,2*%
%TO.N,index_home*%
X244992763Y-106470127D03*
%TD*%
D19*
%TO.P,S1,1*%
%TO.N,P19*%
X190477360Y-135976208D03*
D20*
%TO.P,S1,2*%
%TO.N,pinkie_bottom*%
X179413716Y-139955940D03*
%TD*%
D28*
%TO.P,S4,1*%
%TO.N,P20*%
X209640972Y-118046847D03*
D29*
%TO.P,S4,2*%
%TO.N,ring_bottom*%
X198326666Y-121245125D03*
%TD*%
D14*
%TO.P,S10,1*%
%TO.N,P1*%
X251686957Y-116888544D03*
D15*
%TO.P,S10,2*%
%TO.N,index_bottom*%
X240100321Y-118886633D03*
%TD*%
D30*
%TO.P,D6,1*%
%TO.N,P15*%
X200526084Y-92744981D03*
%TO.P,D6,2*%
%TO.N,ring_top*%
X200238470Y-89457539D03*
%TD*%
D18*
%TO.P,D1,1*%
%TO.N,P16*%
X185564216Y-148903955D03*
%TO.P,D1,2*%
%TO.N,pinkie_bottom*%
X185047982Y-145644583D03*
%TD*%
D14*
%TO.P,S12,1*%
%TO.N,P1*%
X252350148Y-78894332D03*
D15*
%TO.P,S12,2*%
%TO.N,index_top*%
X240763512Y-80892421D03*
%TD*%
D26*
%TO.P,S15,1*%
%TO.N,P0*%
X274486675Y-82433850D03*
D27*
%TO.P,S15,2*%
%TO.N,far_top*%
X262837364Y-84026354D03*
%TD*%
D26*
%TO.P,S14,1*%
%TO.N,P0*%
X273492292Y-101407812D03*
D27*
%TO.P,S14,2*%
%TO.N,far_home*%
X261842981Y-103000316D03*
%TD*%
D31*
%TO.P,RE1,*%
%TO.N,*%
X221938919Y-129678934D03*
D32*
X233132097Y-129288060D03*
D33*
%TO.P,RE1,A*%
%TO.N,P5*%
X230295731Y-136891679D03*
%TO.P,RE1,B*%
%TO.N,GND*%
X227797254Y-136978928D03*
%TO.P,RE1,C*%
%TO.N,P18*%
X225298777Y-137066177D03*
%TD*%
D23*
%TO.P,S17,1*%
%TO.N,P1*%
X263327336Y-139878253D03*
D24*
%TO.P,S17,2*%
%TO.N,2_top*%
X251595316Y-140654264D03*
%TD*%
D34*
%TO.P,MCU1,1*%
%TO.N,MCU1_1*%
X295411588Y-108014032D03*
D35*
X297528683Y-108124984D03*
D34*
%TO.P,MCU1,2*%
%TO.N,MCU1_2*%
X295278655Y-110550551D03*
D35*
X297395749Y-110661503D03*
D34*
%TO.P,MCU1,3*%
%TO.N,MCU1_3*%
X295145721Y-113087070D03*
D35*
X297262816Y-113198022D03*
D34*
%TO.P,MCU1,4*%
%TO.N,MCU1_4*%
X295012788Y-115623589D03*
D35*
X297129883Y-115734541D03*
D34*
%TO.P,MCU1,5*%
%TO.N,MCU1_5*%
X294879855Y-118160108D03*
D35*
X296996949Y-118271060D03*
D34*
%TO.P,MCU1,6*%
%TO.N,MCU1_6*%
X294746921Y-120696627D03*
D35*
X296864016Y-120807579D03*
D34*
%TO.P,MCU1,7*%
%TO.N,MCU1_7*%
X294613988Y-123233146D03*
D35*
X296731083Y-123344098D03*
D34*
%TO.P,MCU1,8*%
%TO.N,MCU1_8*%
X294481055Y-125769665D03*
D35*
X296598149Y-125880617D03*
D34*
%TO.P,MCU1,9*%
%TO.N,MCU1_9*%
X294348121Y-128306184D03*
D35*
X296465216Y-128417136D03*
D34*
%TO.P,MCU1,10*%
%TO.N,MCU1_10*%
X294215188Y-130842703D03*
D35*
X296332283Y-130953655D03*
D34*
%TO.P,MCU1,11*%
%TO.N,MCU1_11*%
X294082255Y-133379222D03*
D35*
X296199349Y-133490174D03*
D34*
%TO.P,MCU1,12*%
%TO.N,MCU1_12*%
X293949321Y-135915741D03*
D35*
X296066416Y-136026693D03*
%TO.P,MCU1,13*%
%TO.N,MCU1_13*%
X280847302Y-135229093D03*
D36*
X282964397Y-135340045D03*
D35*
%TO.P,MCU1,14*%
%TO.N,MCU1_14*%
X280980235Y-132692574D03*
D36*
X283097330Y-132803526D03*
D35*
%TO.P,MCU1,15*%
%TO.N,MCU1_15*%
X281113169Y-130156055D03*
D36*
X283230263Y-130267007D03*
D35*
%TO.P,MCU1,16*%
%TO.N,MCU1_16*%
X281246102Y-127619536D03*
D36*
X283363197Y-127730488D03*
D35*
%TO.P,MCU1,17*%
%TO.N,MCU1_17*%
X281379035Y-125083017D03*
D36*
X283496130Y-125193969D03*
D35*
%TO.P,MCU1,18*%
%TO.N,MCU1_18*%
X281511969Y-122546498D03*
D36*
X283629063Y-122657450D03*
D35*
%TO.P,MCU1,19*%
%TO.N,MCU1_19*%
X281644902Y-120009979D03*
D36*
X283761997Y-120120931D03*
D35*
%TO.P,MCU1,20*%
%TO.N,MCU1_20*%
X281777835Y-117473460D03*
D36*
X283894930Y-117584412D03*
D35*
%TO.P,MCU1,21*%
%TO.N,MCU1_21*%
X281910769Y-114936941D03*
D36*
X284027863Y-115047893D03*
D35*
%TO.P,MCU1,22*%
%TO.N,MCU1_22*%
X282043702Y-112400422D03*
D36*
X284160797Y-112511374D03*
D35*
%TO.P,MCU1,23*%
%TO.N,MCU1_23*%
X282176635Y-109863903D03*
D36*
X284293730Y-109974855D03*
D35*
%TO.P,MCU1,24*%
%TO.N,MCU1_24*%
X282309569Y-107327384D03*
D36*
X284426663Y-107438336D03*
D37*
%TO.P,MCU1,101*%
%TO.N,RAW*%
X293314466Y-107904126D03*
D38*
X294687582Y-107976088D03*
D37*
%TO.P,MCU1,102*%
%TO.N,GND*%
X293181533Y-110440645D03*
D38*
X294554648Y-110512607D03*
D37*
%TO.P,MCU1,103*%
%TO.N,RST*%
X293048599Y-112977164D03*
D38*
X294421715Y-113049126D03*
D37*
%TO.P,MCU1,104*%
%TO.N,VCC*%
X292915666Y-115513683D03*
D38*
X294288782Y-115585645D03*
D37*
%TO.P,MCU1,105*%
%TO.N,P21*%
X292782733Y-118050202D03*
D38*
X294155848Y-118122164D03*
D37*
%TO.P,MCU1,106*%
%TO.N,P20*%
X292649799Y-120586721D03*
D38*
X294022915Y-120658683D03*
D37*
%TO.P,MCU1,107*%
%TO.N,P19*%
X292516866Y-123123240D03*
D38*
X293889982Y-123195202D03*
D37*
%TO.P,MCU1,108*%
%TO.N,P18*%
X292383933Y-125659759D03*
D38*
X293757048Y-125731721D03*
D37*
%TO.P,MCU1,109*%
%TO.N,P15*%
X292250999Y-128196278D03*
D38*
X293624115Y-128268240D03*
D37*
%TO.P,MCU1,110*%
%TO.N,P14*%
X292118066Y-130732797D03*
D38*
X293491182Y-130804759D03*
D37*
%TO.P,MCU1,111*%
%TO.N,P16*%
X291985133Y-133269316D03*
D38*
X293358248Y-133341278D03*
D37*
%TO.P,MCU1,112*%
%TO.N,P10*%
X291852199Y-135805835D03*
D38*
X293225315Y-135877797D03*
D39*
%TO.P,MCU1,113*%
%TO.N,P9*%
X283688403Y-135377989D03*
D37*
X285061519Y-135449951D03*
D39*
%TO.P,MCU1,114*%
%TO.N,P8*%
X283821336Y-132841470D03*
D37*
X285194452Y-132913432D03*
D39*
%TO.P,MCU1,115*%
%TO.N,P7*%
X283954270Y-130304951D03*
D37*
X285327385Y-130376913D03*
D39*
%TO.P,MCU1,116*%
%TO.N,P6*%
X284087203Y-127768432D03*
D37*
X285460319Y-127840394D03*
D39*
%TO.P,MCU1,117*%
%TO.N,P5*%
X284220136Y-125231913D03*
D37*
X285593252Y-125303875D03*
D39*
%TO.P,MCU1,118*%
%TO.N,P4*%
X284353070Y-122695394D03*
D37*
X285726185Y-122767356D03*
D39*
%TO.P,MCU1,119*%
%TO.N,P3*%
X284486003Y-120158875D03*
D37*
X285859119Y-120230837D03*
D39*
%TO.P,MCU1,120*%
%TO.N,P2*%
X284618936Y-117622356D03*
D37*
X285992052Y-117694318D03*
D39*
%TO.P,MCU1,121*%
%TO.N,GND*%
X284751870Y-115085837D03*
D37*
X286124985Y-115157799D03*
D39*
%TO.P,MCU1,122*%
X284884803Y-112549318D03*
D37*
X286257919Y-112621280D03*
D39*
%TO.P,MCU1,123*%
%TO.N,P0*%
X285017736Y-110012799D03*
D37*
X286390852Y-110084761D03*
D39*
%TO.P,MCU1,124*%
%TO.N,P1*%
X285150670Y-107476280D03*
D37*
X286523785Y-107548242D03*
%TD*%
D40*
%TO.P,JST1,1*%
%TO.N,BAT_P*%
X283309566Y-96080307D03*
%TO.P,JST1,2*%
%TO.N,GND*%
X285306825Y-96184979D03*
D41*
%TO.P,JST1,11*%
%TO.N,JST1_1*%
X283456944Y-93268166D03*
%TO.P,JST1,12*%
%TO.N,JST1_2*%
X285454204Y-93372838D03*
D42*
%TO.P,JST1,21*%
%TO.N,JST1_1*%
X283362740Y-95065699D03*
%TO.P,JST1,22*%
%TO.N,JST1_2*%
X285359999Y-95170371D03*
%TD*%
D43*
%TO.N,P19*%
X243000000Y-115000000D03*
X264600000Y-117720008D03*
X245402120Y-114878552D03*
X262200000Y-117400000D03*
X219200000Y-118000000D03*
X221400000Y-118000000D03*
X178608378Y-102909163D03*
X189400000Y-131800000D03*
X181600000Y-121800000D03*
%TO.N,pinkie_bottom*%
X186400000Y-145600000D03*
%TO.N,pinkie_home*%
X183600000Y-126800000D03*
%TO.N,pinkie_top*%
X181200000Y-108200000D03*
%TO.N,P20*%
X219600000Y-116600000D03*
X264600000Y-116000000D03*
X199400000Y-97200000D03*
X245800000Y-113600000D03*
X243000000Y-113600000D03*
X211600000Y-116400000D03*
X221664880Y-116664880D03*
X262292308Y-115907692D03*
X200270856Y-83909383D03*
%TO.N,ring_bottom*%
X205200000Y-127400000D03*
%TO.N,ring_home*%
X203200000Y-108400000D03*
%TO.N,ring_top*%
X202000000Y-89400000D03*
%TO.N,P21*%
X223200000Y-91200000D03*
X224800000Y-109800000D03*
X246200000Y-111800000D03*
X264600000Y-114800000D03*
X222450408Y-71822576D03*
X226400000Y-140000000D03*
X243000000Y-111200000D03*
X262400000Y-114600000D03*
%TO.N,middle_bottom*%
X224800000Y-115400000D03*
%TO.N,middle_home*%
X224200000Y-96200000D03*
%TO.N,middle_top*%
X223800000Y-77200000D03*
%TO.N,P1*%
X246078795Y-81626121D03*
X245235698Y-120020658D03*
X245666582Y-100830004D03*
X255000000Y-136400000D03*
%TO.N,index_bottom*%
X246400000Y-125400000D03*
%TO.N,index_home*%
X247000000Y-106400000D03*
%TO.N,index_top*%
X247000000Y-87400000D03*
%TO.N,P0*%
X268050596Y-85118809D03*
X276144535Y-141489996D03*
X267844120Y-116800000D03*
X274600000Y-99400000D03*
%TO.N,far_bottom*%
X266400000Y-128600000D03*
%TO.N,far_home*%
X267600000Y-109800000D03*
%TO.N,far_top*%
X268600000Y-90800000D03*
%TO.N,1_top*%
X229200000Y-150600000D03*
%TO.N,2_top*%
X257000000Y-147800000D03*
%TO.N,3_top*%
X282800000Y-151200000D03*
%TO.N,P16*%
X266800000Y-134000000D03*
X206800000Y-130600379D03*
X229400000Y-118665806D03*
X187000000Y-147200000D03*
X246200000Y-128766732D03*
%TO.N,P14*%
X205600000Y-111672680D03*
X184800000Y-130200000D03*
X226600000Y-99677380D03*
X266000000Y-114075000D03*
X247600000Y-109769625D03*
%TO.N,P15*%
X181800000Y-111400000D03*
X205261367Y-91461367D03*
X229000000Y-80688954D03*
X267000000Y-95400000D03*
X248400000Y-90772519D03*
%TO.N,P10*%
X258200000Y-150950955D03*
X281800000Y-153000000D03*
X228165340Y-152765340D03*
%TO.N,BAT_P*%
X289800000Y-94400000D03*
%TO.N,RAW*%
X291400000Y-108800000D03*
X291407448Y-106857887D03*
%TO.N,GND*%
X287000000Y-114200000D03*
X288600000Y-111053303D03*
X264517922Y-113535885D03*
X257800000Y-132000000D03*
X259200000Y-116800000D03*
X288604664Y-106710999D03*
X229800000Y-135000000D03*
%TO.N,P5*%
X274000000Y-137600000D03*
X278000000Y-126200000D03*
X232000000Y-138600000D03*
%TO.N,P18*%
X274200000Y-136200000D03*
X227000000Y-135400000D03*
X276875000Y-127400000D03*
%TD*%
D44*
%TO.N,P10*%
X277080085Y-150950955D02*
X280450591Y-154321461D01*
X255041150Y-150950955D02*
X277080085Y-150950955D01*
X229979726Y-150950955D02*
X255041150Y-150950955D01*
X226993954Y-153936727D02*
X229979726Y-150950955D01*
%TO.N,P15*%
X272200000Y-105866281D02*
X272200000Y-111418814D01*
X267119120Y-100785401D02*
X272200000Y-105866281D01*
X267119120Y-94183649D02*
X267119120Y-100785401D01*
X272200000Y-111418814D02*
X267609407Y-116009407D01*
X266993066Y-94057595D02*
X267119120Y-94183649D01*
%TO.N,P16*%
X244603575Y-128766732D02*
X261765514Y-128766732D01*
X261765514Y-128766732D02*
X265004299Y-132005517D01*
X234502649Y-118665806D02*
X244603575Y-128766732D01*
X223555551Y-118665806D02*
X234502649Y-118665806D01*
X203838003Y-130600379D02*
X211620978Y-130600379D01*
X211620978Y-130600379D02*
X223555551Y-118665806D01*
X199399621Y-130600379D02*
X203838003Y-130600379D01*
X194400278Y-135599722D02*
X199399621Y-130600379D01*
X191748628Y-142719544D02*
X191748628Y-141307572D01*
X190262966Y-144205205D02*
X191748628Y-142719544D01*
X191748628Y-141307572D02*
X194400278Y-138655922D01*
X185564216Y-148903955D02*
X190262966Y-144205205D01*
X194400278Y-138655922D02*
X194400278Y-135599722D01*
%TO.N,P14*%
X262736752Y-109769625D02*
X265998683Y-113031556D01*
X244935171Y-109769625D02*
X262736752Y-109769625D01*
X234842926Y-99677380D02*
X244935171Y-109769625D01*
X222892461Y-99677380D02*
X234842926Y-99677380D01*
X210897161Y-111672680D02*
X222892461Y-99677380D01*
X202182043Y-111672680D02*
X210897161Y-111672680D01*
X202182043Y-112923946D02*
X202182043Y-111672680D01*
X184968112Y-130137877D02*
X202182043Y-112923946D01*
X182591962Y-130137877D02*
X184968112Y-130137877D01*
%TO.N,P15*%
X245266767Y-90772519D02*
X263707990Y-90772519D01*
X263707990Y-90772519D02*
X266993066Y-94057595D01*
X235183202Y-80688954D02*
X245266767Y-90772519D01*
X222229370Y-80688954D02*
X235183202Y-80688954D01*
X203977753Y-92744981D02*
X216033780Y-80688954D01*
X200526084Y-92744981D02*
X203977753Y-92744981D01*
X216033780Y-80688954D02*
X222229370Y-80688954D01*
X200526084Y-92797520D02*
X200526084Y-92744981D01*
X181923604Y-111400000D02*
X200526084Y-92797520D01*
X181800000Y-111400000D02*
X181923604Y-111400000D01*
%TO.N,P19*%
X219200000Y-118000000D02*
X221400000Y-118000000D01*
X243000000Y-115000000D02*
X245280672Y-115000000D01*
X293889982Y-123195203D02*
X292516867Y-123123241D01*
X190477360Y-135976208D02*
X190477360Y-132877360D01*
X190477360Y-132877360D02*
X189400000Y-131800000D01*
X262200000Y-117400000D02*
X264600000Y-117720008D01*
X187505105Y-117210130D02*
X182915235Y-121800000D01*
X245280672Y-115000000D02*
X245402120Y-114878552D01*
X180067738Y-102909163D02*
X178608378Y-102909163D01*
X182915235Y-121800000D02*
X181600000Y-121800000D01*
X184532850Y-98444051D02*
X180067738Y-102909163D01*
%TO.N,pinkie_bottom*%
X183426413Y-145644583D02*
X185047982Y-145644583D01*
X186355417Y-145644583D02*
X186400000Y-145600000D01*
X185047982Y-145644583D02*
X186355417Y-145644583D01*
X179413716Y-141631886D02*
X183426413Y-145644583D01*
X179413716Y-139955940D02*
X179413716Y-141631886D01*
%TO.N,pinkie_home*%
X180454158Y-126878505D02*
X182075728Y-126878505D01*
X183521495Y-126878505D02*
X183600000Y-126800000D01*
X182075728Y-126878505D02*
X183521495Y-126878505D01*
X176441461Y-121189862D02*
X176441461Y-122865808D01*
X176441461Y-122865808D02*
X180454158Y-126878505D01*
%TO.N,pinkie_top*%
X181000000Y-108000000D02*
X181200000Y-108200000D01*
X173469206Y-104099729D02*
X177481903Y-108112426D01*
X179103473Y-108112426D02*
X179487574Y-108112426D01*
X173469206Y-102423783D02*
X173469206Y-104099729D01*
X179487574Y-108112426D02*
X179600000Y-108000000D01*
X177481903Y-108112426D02*
X179103473Y-108112426D01*
X179600000Y-108000000D02*
X181000000Y-108000000D01*
%TO.N,P20*%
X203124954Y-83909383D02*
X200270856Y-83909383D01*
X206329054Y-80191449D02*
X206329054Y-80705283D01*
X211287819Y-116400000D02*
X211600000Y-116400000D01*
X262292308Y-115907692D02*
X264600000Y-116000000D01*
X206395449Y-97529584D02*
X199729584Y-97529584D01*
X209640972Y-118046847D02*
X211287819Y-116400000D01*
X221600000Y-116600000D02*
X221664880Y-116664880D01*
X243000000Y-113600000D02*
X245800000Y-113600000D01*
X199729584Y-97529584D02*
X199400000Y-97200000D01*
X219600000Y-116600000D02*
X221600000Y-116600000D01*
X294022915Y-120658684D02*
X292649800Y-120586722D01*
X206329054Y-80705283D02*
X203124954Y-83909383D01*
X207985013Y-99119148D02*
X206395449Y-97529584D01*
%TO.N,ring_bottom*%
X198326666Y-123381408D02*
X202258195Y-127312937D01*
X202258195Y-127312937D02*
X203550389Y-127312937D01*
X205112937Y-127312937D02*
X205200000Y-127400000D01*
X198326666Y-121245125D02*
X198326666Y-123381408D01*
X203550389Y-127312937D02*
X205112937Y-127312937D01*
%TO.N,ring_home*%
X196670707Y-104453709D02*
X200602236Y-108385238D01*
X201894429Y-108385238D02*
X203185238Y-108385238D01*
X200602236Y-108385238D02*
X201894429Y-108385238D01*
X196670707Y-102317426D02*
X196670707Y-104453709D01*
X203185238Y-108385238D02*
X203200000Y-108400000D01*
%TO.N,ring_top*%
X195014748Y-83389727D02*
X195014748Y-85526010D01*
X198946277Y-89457539D02*
X200238470Y-89457539D01*
X201942461Y-89457539D02*
X202000000Y-89400000D01*
X195014748Y-85526010D02*
X198946277Y-89457539D01*
X200238470Y-89457539D02*
X201942461Y-89457539D01*
%TO.N,P21*%
X294155849Y-118122165D02*
X292782733Y-118050203D01*
X226681071Y-109800000D02*
X224800000Y-109800000D01*
X225315143Y-71822576D02*
X222450408Y-71822576D01*
X245800000Y-111400000D02*
X246200000Y-111800000D01*
X262400000Y-114600000D02*
X264171823Y-114371823D01*
X230007570Y-106433182D02*
X230007570Y-106473501D01*
X235280141Y-142864024D02*
X232416117Y-140000000D01*
X225589235Y-91200000D02*
X223200000Y-91200000D01*
X243000000Y-111200000D02*
X243200000Y-111400000D01*
X228681389Y-68456330D02*
X225315143Y-71822576D01*
X264600000Y-114800000D02*
X264171823Y-114371823D01*
X230007570Y-106473501D02*
X226681071Y-109800000D01*
X232416117Y-140000000D02*
X226400000Y-140000000D01*
X229344479Y-87444756D02*
X225589235Y-91200000D01*
X243200000Y-111400000D02*
X245800000Y-111400000D01*
%TO.N,middle_bottom*%
X218541385Y-109034931D02*
X218541385Y-111515302D01*
X218541385Y-111515302D02*
X222393899Y-115367816D01*
X223440383Y-115367816D02*
X224767816Y-115367816D01*
X224767816Y-115367816D02*
X224800000Y-115400000D01*
X222393899Y-115367816D02*
X223440383Y-115367816D01*
%TO.N,middle_home*%
X217878294Y-90046505D02*
X217878294Y-92526876D01*
X221730808Y-96379390D02*
X222777293Y-96379390D01*
X222777293Y-96379390D02*
X224020610Y-96379390D01*
X217878294Y-92526876D02*
X221730808Y-96379390D01*
X224020610Y-96379390D02*
X224200000Y-96200000D01*
%TO.N,middle_top*%
X223609036Y-77390964D02*
X223800000Y-77200000D01*
X217215204Y-73538450D02*
X221067718Y-77390964D01*
X217215204Y-71058079D02*
X217215204Y-73538450D01*
X221067718Y-77390964D02*
X222114202Y-77390964D01*
X222114202Y-77390964D02*
X223609036Y-77390964D01*
%TO.N,P1*%
X248554843Y-120020658D02*
X245235698Y-120020658D01*
X252018552Y-97891438D02*
X251508562Y-97891438D01*
X249373879Y-81626121D02*
X246078795Y-81626121D01*
X252350148Y-78894332D02*
X252105668Y-78894332D01*
X251508562Y-97891438D02*
X248569996Y-100830004D01*
X259849083Y-136400000D02*
X255000000Y-136400000D01*
X252105668Y-78894332D02*
X249373879Y-81626121D01*
X251686957Y-116888544D02*
X248554843Y-120020658D01*
X248569996Y-100830004D02*
X245666582Y-100830004D01*
X263327336Y-139878253D02*
X259849083Y-136400000D01*
X285150670Y-107476280D02*
X286523786Y-107548242D01*
%TO.N,index_bottom*%
X244661167Y-125467234D02*
X246332766Y-125467234D01*
X243858509Y-125467234D02*
X244661167Y-125467234D01*
X240100321Y-121709046D02*
X243858509Y-125467234D01*
X246332766Y-125467234D02*
X246400000Y-125400000D01*
X240100321Y-118886633D02*
X240100321Y-121709046D01*
%TO.N,index_home*%
X244992763Y-106470127D02*
X246929873Y-106470127D01*
X246929873Y-106470127D02*
X247000000Y-106400000D01*
X240431916Y-99889527D02*
X240431916Y-102711940D01*
X244190103Y-106470127D02*
X244992763Y-106470127D01*
X240431916Y-102711940D02*
X244190103Y-106470127D01*
%TO.N,index_top*%
X244521699Y-87473021D02*
X245324359Y-87473021D01*
X240763512Y-80892421D02*
X240763512Y-83714834D01*
X246926979Y-87473021D02*
X247000000Y-87400000D01*
X240763512Y-83714834D02*
X244521699Y-87473021D01*
X245324359Y-87473021D02*
X246926979Y-87473021D01*
%TO.N,P0*%
X273492292Y-101407812D02*
X273492292Y-100507708D01*
X286462655Y-140974636D02*
X276659895Y-140974636D01*
X288736777Y-143248758D02*
X286462655Y-140974636D01*
X268916136Y-116800000D02*
X267844120Y-116800000D01*
X276659895Y-140974636D02*
X276144535Y-141489996D01*
X273492292Y-100507708D02*
X274600000Y-99400000D01*
X271801716Y-85118809D02*
X268050596Y-85118809D01*
X274486675Y-82433850D02*
X271801716Y-85118809D01*
X272497909Y-120381773D02*
X268916136Y-116800000D01*
X285017737Y-110012799D02*
X286390852Y-110084761D01*
%TO.N,far_bottom*%
X260848598Y-125648598D02*
X263910039Y-128710039D01*
X260848598Y-121974277D02*
X260848598Y-125648598D01*
X263910039Y-128710039D02*
X265177007Y-128710039D01*
X265177007Y-128710039D02*
X266289961Y-128710039D01*
X266289961Y-128710039D02*
X266400000Y-128600000D01*
%TO.N,far_home*%
X267536078Y-109736078D02*
X267600000Y-109800000D01*
X265529904Y-109736078D02*
X266171391Y-109736078D01*
X261842981Y-103000316D02*
X261842981Y-106049155D01*
X266171391Y-109736078D02*
X267536078Y-109736078D01*
X261842981Y-106049155D02*
X265529904Y-109736078D01*
%TO.N,far_top*%
X267165774Y-90762117D02*
X268562117Y-90762117D01*
X268562117Y-90762117D02*
X268600000Y-90800000D01*
X267165774Y-90762117D02*
X266524288Y-90762117D01*
X262837364Y-87075193D02*
X262837364Y-84026354D01*
X266524288Y-90762117D02*
X262837364Y-87075193D01*
%TO.N,1_top*%
X227396122Y-150661325D02*
X229138675Y-150661325D01*
X223548121Y-147136650D02*
X227072796Y-150661325D01*
X223548121Y-143640035D02*
X223548121Y-147136650D01*
X229138675Y-150661325D02*
X229200000Y-150600000D01*
X227072796Y-150661325D02*
X227396122Y-150661325D01*
%TO.N,2_top*%
X251595316Y-144432057D02*
X251595316Y-140654264D01*
X255443318Y-147675553D02*
X254838812Y-147675553D01*
X256875553Y-147675553D02*
X257000000Y-147800000D01*
X254838812Y-147675553D02*
X251595316Y-144432057D01*
X255443318Y-147675553D02*
X256875553Y-147675553D01*
%TO.N,3_top*%
X282646059Y-151046059D02*
X282800000Y-151200000D01*
X277004757Y-147802563D02*
X277004757Y-144024769D01*
X280852759Y-151046059D02*
X282646059Y-151046059D01*
X280248253Y-151046059D02*
X277004757Y-147802563D01*
X280852759Y-151046059D02*
X280248253Y-151046059D01*
%TO.N,P16*%
X265004299Y-132005517D02*
X266998782Y-134000000D01*
X291254449Y-134000000D02*
X291985133Y-133269316D01*
X293358249Y-133341279D02*
X291985133Y-133269317D01*
X266998782Y-134000000D02*
X291254449Y-134000000D01*
%TO.N,P14*%
X266000000Y-114075000D02*
X266000000Y-113032873D01*
X270400000Y-131400000D02*
X291450863Y-131400000D01*
X266400000Y-127400000D02*
X270400000Y-131400000D01*
X266000000Y-114075000D02*
X266400000Y-114475000D01*
X266400000Y-114475000D02*
X266400000Y-127400000D01*
X291450863Y-131400000D02*
X292118066Y-130732797D01*
X266000000Y-113032873D02*
X265998683Y-113031556D01*
X293491182Y-130804760D02*
X292118067Y-130732798D01*
%TO.N,P15*%
X200526084Y-92841571D02*
X200526084Y-92744981D01*
X267119120Y-121319120D02*
X274600000Y-128800000D01*
X179619707Y-111371798D02*
X181995857Y-111371798D01*
X274600000Y-128800000D02*
X291647277Y-128800000D01*
X267119120Y-116499695D02*
X267119120Y-121319120D01*
X291647277Y-128800000D02*
X292250999Y-128196278D01*
X267800000Y-115818815D02*
X267609407Y-116009407D01*
X179619707Y-111180293D02*
X179800000Y-111000000D01*
X293624115Y-128268240D02*
X292251000Y-128196279D01*
X267609407Y-116009407D02*
X267119120Y-116499695D01*
X179619707Y-111371798D02*
X179619707Y-111180293D01*
%TO.N,P10*%
X280450591Y-154321461D02*
X282130345Y-152641707D01*
X292055807Y-136009443D02*
X291852199Y-135805835D01*
X293225315Y-135877798D02*
X291852200Y-135805836D01*
X282130345Y-152641707D02*
X288737614Y-152641707D01*
X288737614Y-152641707D02*
X292055807Y-149323514D01*
X292055807Y-149323514D02*
X292055807Y-136009443D01*
%TO.N,BAT_P*%
X282585866Y-91400000D02*
X292012093Y-91400000D01*
X282498768Y-96000000D02*
X282498768Y-91487098D01*
X292012093Y-91400000D02*
X296101044Y-87311049D01*
X284496028Y-94893845D02*
X283309566Y-96080307D01*
X296101044Y-87311049D02*
X296852074Y-87311049D01*
X283309566Y-96080307D02*
X282579075Y-96080307D01*
X285200000Y-92000000D02*
X284496028Y-92703972D01*
X284496028Y-92703972D02*
X284496028Y-94893845D01*
X282498768Y-91487098D02*
X282585866Y-91400000D01*
X289800000Y-94400000D02*
X287400000Y-92000000D01*
X287400000Y-92000000D02*
X285200000Y-92000000D01*
X282579075Y-96080307D02*
X282498768Y-96000000D01*
%TO.N,RAW*%
X291407448Y-108792552D02*
X291400000Y-108800000D01*
X293314466Y-92268097D02*
X293314466Y-107904126D01*
X294687582Y-107976088D02*
X293314467Y-107904126D01*
X291407448Y-106857887D02*
X291407448Y-108792552D01*
X296773570Y-88808993D02*
X293314466Y-92268097D01*
%TO.N,GND*%
X262438810Y-113535885D02*
X259200000Y-116774695D01*
X293181533Y-110440645D02*
X291000898Y-112621280D01*
X288604664Y-111048639D02*
X288600000Y-111053303D01*
X292589466Y-109848578D02*
X293181533Y-110440645D01*
X224187111Y-137467655D02*
X224161813Y-136743223D01*
X284751870Y-115085837D02*
X286124986Y-115157799D01*
X284900445Y-96591359D02*
X285306825Y-96184979D01*
X264517922Y-113535885D02*
X262438810Y-113535885D01*
X226814164Y-137962018D02*
X224717250Y-137962018D01*
X285306825Y-96184979D02*
X292600000Y-103478154D01*
X227797254Y-136978928D02*
X230435601Y-134340581D01*
X292600000Y-103478154D02*
X292600000Y-107593287D01*
X286257919Y-113457919D02*
X287000000Y-114200000D01*
X286257919Y-115024865D02*
X286124985Y-115157799D01*
X292600000Y-107593287D02*
X292589466Y-107603821D01*
X288604664Y-106710999D02*
X288604664Y-111048639D01*
X285054226Y-81205236D02*
X284779462Y-80930472D01*
X288600000Y-111053303D02*
X288607618Y-111045685D01*
X284779462Y-80930472D02*
X284003398Y-80930472D01*
X286257919Y-112621280D02*
X286257919Y-113457919D01*
X292589466Y-107603821D02*
X292589466Y-109848578D01*
X284884803Y-112549318D02*
X286257919Y-112621280D01*
X294554649Y-110512607D02*
X293181533Y-110440645D01*
X284003398Y-80930472D02*
X282048768Y-82885102D01*
X259200000Y-116774695D02*
X259200000Y-116800000D01*
X224656176Y-136213084D02*
X228869260Y-132000000D01*
X224717250Y-137962018D02*
X224187111Y-137467655D01*
X291000898Y-112621280D02*
X286257919Y-112621280D01*
X290022267Y-81205236D02*
X285054226Y-81205236D01*
X282048768Y-96591359D02*
X284900445Y-96591359D01*
X286257919Y-112621280D02*
X286257919Y-115024865D01*
X228869260Y-132000000D02*
X257800000Y-132000000D01*
X230435601Y-134340581D02*
X226814164Y-137962018D01*
X224161813Y-136743223D02*
X224656176Y-136213084D01*
X282048768Y-82885102D02*
X282048768Y-96591359D01*
%TO.N,RST*%
X296702906Y-82902906D02*
X298800000Y-85000000D01*
X298800000Y-112000000D02*
X294025763Y-112000000D01*
X298648752Y-92551248D02*
X298648752Y-94751248D01*
X284690491Y-82628142D02*
X289658532Y-82628142D01*
X289933296Y-82902906D02*
X296702906Y-82902906D01*
X294025763Y-112000000D02*
X293048599Y-112977164D01*
X299395410Y-91804590D02*
X298648752Y-92551248D01*
X298800000Y-95000000D02*
X298800000Y-112000000D01*
X289658532Y-82628142D02*
X289933296Y-82902906D01*
X298648752Y-94751248D02*
X298600000Y-94800000D01*
X298800000Y-87214996D02*
X299395410Y-87810406D01*
X298600000Y-94800000D02*
X298800000Y-95000000D01*
X299395410Y-87810406D02*
X299395410Y-91804590D01*
X294421715Y-113049126D02*
X293048600Y-112977164D01*
X298800000Y-85000000D02*
X298800000Y-87214996D01*
%TO.N,JST1_1*%
X283362739Y-95065699D02*
X283456944Y-93268166D01*
%TO.N,JST1_2*%
X285359999Y-95170371D02*
X285454203Y-93372838D01*
%TO.N,P5*%
X271800000Y-135400000D02*
X254974695Y-135400000D01*
X278000000Y-126200000D02*
X278800000Y-126200000D01*
X278858017Y-126258017D02*
X284639110Y-126258017D01*
X254974695Y-135400000D02*
X251634114Y-138740581D01*
X274000000Y-137600000D02*
X271800000Y-135400000D01*
X284639110Y-126258017D02*
X285593252Y-125303875D01*
X251634114Y-138740581D02*
X232144633Y-138740581D01*
X278800000Y-126200000D02*
X278858017Y-126258017D01*
X284220137Y-125231913D02*
X285593252Y-125303875D01*
X232144633Y-138740581D02*
X230295731Y-136891679D01*
%TO.N,P18*%
X290632191Y-123908017D02*
X292383933Y-125659759D01*
X276875000Y-127400000D02*
X276875000Y-126299695D01*
X293757049Y-125731721D02*
X292383933Y-125659760D01*
X279266678Y-123908017D02*
X290632191Y-123908017D01*
X265665276Y-133890581D02*
X266574695Y-134800000D01*
X276875000Y-126299695D02*
X279266678Y-123908017D01*
X225298777Y-137066177D02*
X228474373Y-133890581D01*
X272800000Y-134800000D02*
X274200000Y-136200000D01*
X266574695Y-134800000D02*
X272800000Y-134800000D01*
X228474373Y-133890581D02*
X265665276Y-133890581D01*
%TO.N,VCC*%
X294288782Y-115585646D02*
X292915667Y-115513683D01*
%TO.N,P2*%
X284618937Y-117622356D02*
X285992052Y-117694318D01*
%TO.N,P3*%
X284486003Y-120158875D02*
X285859119Y-120230837D01*
%TO.N,P4*%
X284353070Y-122695394D02*
X285726186Y-122767356D01*
%TO.N,P6*%
X284087203Y-127768432D02*
X285460319Y-127840394D01*
%TO.N,P7*%
X283954270Y-130304951D02*
X285327386Y-130376913D01*
%TO.N,P8*%
X283821337Y-132841470D02*
X285194452Y-132913432D01*
%TO.N,P9*%
X283688403Y-135377989D02*
X285061519Y-135449951D01*
%TO.N,MCU1_24*%
X282309569Y-107327384D02*
X284426664Y-107438336D01*
%TO.N,MCU1_1*%
X295411589Y-108014032D02*
X297528683Y-108124984D01*
%TO.N,MCU1_23*%
X282176636Y-109863903D02*
X284293730Y-109974855D01*
%TO.N,MCU1_2*%
X295278655Y-110550551D02*
X297395750Y-110661503D01*
%TO.N,MCU1_22*%
X282043702Y-112400422D02*
X284160797Y-112511374D01*
%TO.N,MCU1_3*%
X295145722Y-113087070D02*
X297262816Y-113198022D01*
%TO.N,MCU1_21*%
X281910769Y-114936941D02*
X284027864Y-115047893D01*
%TO.N,MCU1_4*%
X295012789Y-115623589D02*
X297129883Y-115734541D01*
%TO.N,MCU1_20*%
X281777836Y-117473460D02*
X283894930Y-117584412D01*
%TO.N,MCU1_5*%
X294879855Y-118160108D02*
X296996950Y-118271060D01*
%TO.N,MCU1_19*%
X281644902Y-120009979D02*
X283761997Y-120120932D01*
%TO.N,MCU1_6*%
X294746922Y-120696627D02*
X296864017Y-120807579D01*
%TO.N,MCU1_18*%
X281511969Y-122546498D02*
X283629064Y-122657451D01*
%TO.N,MCU1_7*%
X294613988Y-123233146D02*
X296731083Y-123344098D01*
%TO.N,MCU1_17*%
X281379036Y-125083017D02*
X283496130Y-125193970D01*
%TO.N,MCU1_8*%
X294481055Y-125769665D02*
X296598150Y-125880617D01*
%TO.N,MCU1_16*%
X281246102Y-127619536D02*
X283363197Y-127730489D01*
%TO.N,MCU1_9*%
X294348122Y-128306184D02*
X296465217Y-128417136D01*
%TO.N,MCU1_15*%
X281113169Y-130156055D02*
X283230264Y-130267008D01*
%TO.N,MCU1_10*%
X294215188Y-130842703D02*
X296332283Y-130953655D01*
%TO.N,MCU1_14*%
X280980236Y-132692574D02*
X283097330Y-132803527D01*
%TO.N,MCU1_11*%
X294082255Y-133379222D02*
X296199350Y-133490174D01*
%TO.N,MCU1_13*%
X280847302Y-135229093D02*
X282964397Y-135340046D01*
%TO.N,MCU1_12*%
X293949322Y-135915741D02*
X296066416Y-136026693D01*
%TD*%
M02*
